<svg width="48" height="48" fill="none" xmlns="http://www.w3.org/2000/svg"><path d="M34.188 40.47H14.05c-1.709 0-3.051-1.443-3.051-3.28V11.28C11 9.443 12.342 8 14.05 8h20.138c1.708 0 3.05 1.443 3.05 3.28v25.91c0 1.837-1.342 3.28-3.05 3.28Z" fill="#7C6FF5"/><path d="M32.355 27.672H15.94c-.61 0-1.098-.488-1.098-1.099 0-.61.488-1.098 1.098-1.098h16.354c.61 0 1.098.488 1.098 1.098.06.61-.427 1.099-1.038 1.099ZM20.15 33.847h-4.21c-.61 0-1.098-.488-1.098-1.098 0-.61.488-1.098 1.098-1.098h4.15c.61 0 1.098.488 1.098 1.098.06.61-.427 1.098-1.037 1.098Z" fill="#E5E2FD"/><path d="M20.833 15.057H18.58v6.128h-1.516v-6.128h-2.222V13.83h5.99v1.227ZM23.682 13.83l1.889 5.334 1.88-5.334h1.99v7.355H27.92v-2.01l.151-3.471-1.985 5.48h-1.04l-1.98-5.475.151 3.465v2.01h-1.515V13.83h1.98Z" fill="#FCFBFE"/></svg>