<?xml version="1.0" standalone="no"?>
<!DOCTYPE svg PUBLIC "-//W3C//DTD SVG 20010904//EN"
 "http://www.w3.org/TR/2001/REC-SVG-20010904/DTD/svg10.dtd">
<svg version="1.0" xmlns="http://www.w3.org/2000/svg"
 width="100" height="100" viewBox="0 0 512.000000 512.000000"
 preserveAspectRatio="xMidYMid meet">

<g transform="translate(0.000000,512.000000) scale(0.100000,-0.100000)"
fill="#28aa4a" stroke="none">
<path d="M2007 5109 c-92 -22 -178 -94 -225 -188 -23 -48 -27 -68 -27 -142 l0
-87 -95 -4 c-105 -4 -158 -24 -230 -86 -90 -76 -133 -238 -93 -352 10 -30 78
-149 151 -263 73 -114 135 -214 139 -222 4 -12 -7 -15 -58 -15 -85 0 -150 -31
-212 -100 -129 -143 -87 -370 85 -456 l37 -19 -60 -80 c-361 -479 -645 -1047
-753 -1505 -44 -182 -57 -280 -63 -450 -11 -317 43 -543 177 -740 119 -175
312 -309 539 -373 75 -22 84 -22 1191 -25 788 -2 1138 0 1195 8 396 56 698
344 787 750 19 91 22 133 22 320 0 229 -12 326 -69 550 -115 449 -394 1000
-744 1465 l-60 80 37 19 c20 10 52 32 70 50 36 33 82 114 82 142 0 14 7 15 41
10 108 -17 241 -122 297 -232 35 -69 47 -82 89 -90 41 -8 93 35 93 78 0 61
-78 187 -165 266 -58 54 -191 127 -250 138 -19 3 -35 7 -35 9 0 1 37 40 83 86
95 96 146 184 177 305 28 109 27 168 -5 199 -45 46 -127 23 -139 -38 -3 -12
-10 -51 -16 -87 -7 -36 -25 -93 -42 -128 -32 -69 -128 -178 -180 -206 l-33
-18 -53 32 c-43 28 -65 34 -128 38 -57 4 -74 8 -70 18 3 7 65 107 138 221 73
114 141 233 151 263 40 116 -3 276 -95 355 -71 61 -121 79 -228 83 l-95 4 0
87 c0 74 -4 94 -28 143 -35 72 -97 134 -167 167 l-55 26 -535 2 c-294 1 -552
-3 -573 -8z m1086 -173 c69 -29 118 -115 104 -185 -3 -15 -72 -186 -152 -380
-156 -375 -161 -392 -112 -426 31 -21 90 -19 111 4 15 17 49 95 218 499 l30
72 106 0 c131 0 173 -19 210 -90 44 -86 37 -104 -157 -409 l-172 -271 -719 0
-718 0 -172 271 c-195 305 -202 323 -158 409 37 71 79 90 210 90 l106 0 30
-72 c17 -40 69 -165 116 -278 49 -117 95 -213 107 -222 29 -24 84 -23 109 2
42 42 39 51 -115 421 -80 194 -149 365 -152 380 -14 69 34 155 102 185 45 20
1021 20 1068 0z m521 -1377 c56 -44 70 -110 36 -166 -39 -65 -21 -63 -640 -63
l-562 0 -29 -29 c-37 -38 -39 -82 -4 -116 l24 -25 499 0 499 0 90 -117 c428
-562 704 -1134 798 -1658 26 -141 31 -378 11 -513 -32 -218 -91 -339 -230
-478 -77 -76 -107 -99 -186 -138 -179 -87 -78 -81 -1360 -81 -1282 0 -1181 -6
-1360 81 -80 40 -109 61 -186 138 -139 140 -198 261 -230 478 -20 134 -15 371
10 513 92 514 363 1080 783 1636 l105 139 157 0 c144 0 159 2 179 20 29 27 37
63 20 96 -23 50 -45 54 -276 54 -236 0 -257 4 -292 63 -34 56 -20 122 36 166
27 21 27 21 1054 21 1027 0 1027 0 1054 -21z"/>
<path d="M1228 1770 c-14 -11 -28 -31 -30 -44 -7 -36 17 -85 47 -96 15 -6 87
-10 161 -10 l134 0 0 -358 0 -359 23 -20 c32 -30 62 -36 95 -19 50 26 52 40
52 411 l0 345 139 0 c131 0 142 1 165 23 40 34 43 77 11 115 l-27 32 -373 0
c-356 0 -373 -1 -397 -20z"/>
<path d="M2506 1768 c-15 -15 -88 -167 -194 -408 -93 -212 -173 -395 -176
-407 -16 -53 53 -114 105 -94 36 13 49 32 99 145 l46 101 174 0 174 0 46 -101
c50 -113 63 -132 99 -145 52 -20 121 41 105 94 -3 12 -83 195 -176 407 -106
241 -179 393 -194 408 -14 12 -38 22 -54 22 -16 0 -40 -10 -54 -22z m102 -376
c23 -53 42 -100 42 -104 0 -5 -40 -8 -90 -8 -49 0 -90 3 -90 8 0 12 85 202 90
202 3 0 24 -44 48 -98z"/>
<path d="M3185 1765 c-46 -45 -37 -72 91 -263 63 -96 113 -179 111 -186 -3 -7
-55 -88 -116 -180 -84 -127 -111 -175 -111 -200 0 -35 28 -69 66 -80 46 -14
71 10 170 159 54 80 100 145 103 145 3 0 46 -61 94 -135 49 -73 98 -142 108
-151 31 -28 87 -23 115 10 13 15 24 39 24 54 0 18 -41 88 -119 206 l-119 178
119 180 c65 98 119 188 119 199 0 64 -64 106 -125 83 -9 -4 -62 -74 -117 -156
l-100 -150 -85 128 c-47 71 -97 141 -111 157 -34 36 -83 37 -117 2z"/>
</g>
</svg>
