<?xml version="1.0" standalone="no"?>
<!DOCTYPE svg PUBLIC "-//W3C//DTD SVG 20010904//EN"
 "http://www.w3.org/TR/2001/REC-SVG-20010904/DTD/svg10.dtd">
<svg version="1.0" xmlns="http://www.w3.org/2000/svg"
 width="100" height="100" viewBox="0 0 512.000000 512.000000"
 preserveAspectRatio="xMidYMid meet">

<g transform="translate(0.000000,512.000000) scale(0.100000,-0.100000)"
fill="#28aa4a" stroke="none">
<path d="M438 5104 c-181 -43 -325 -187 -373 -371 -13 -50 -15 -334 -15 -2198
0 -2372 -5 -2200 66 -2316 38 -64 108 -130 168 -161 94 -48 91 -48 787 -48
645 0 656 0 674 20 25 28 23 76 -4 103 l-22 22 -657 5 c-602 5 -660 6 -692 23
-59 29 -104 72 -135 128 l-30 54 0 2165 c0 2064 1 2167 18 2212 38 97 123 175
226 208 62 20 90 20 1628 20 l1565 0 -16 -22 c-70 -95 -100 -222 -94 -398 3
-123 16 -150 73 -150 65 0 69 11 76 187 5 128 9 167 26 204 44 100 139 166
250 176 114 10 236 -63 284 -170 23 -49 24 -65 27 -299 l4 -248 -1099 0
c-1042 0 -1100 -1 -1138 -19 -85 -38 -137 -116 -150 -223 l-7 -58 -205 0
c-203 0 -204 0 -228 -25 -14 -13 -25 -36 -25 -50 0 -14 11 -37 25 -50 24 -25
25 -25 230 -25 l205 0 0 -360 0 -360 -205 0 c-205 0 -206 0 -230 -25 -32 -31
-32 -69 0 -100 24 -25 25 -25 230 -25 l205 0 0 -450 0 -450 -189 0 c-111 0
-201 -4 -220 -11 -54 -19 -69 -79 -28 -117 22 -21 32 -22 230 -22 l207 0 0
-465 0 -465 -205 0 c-205 0 -206 0 -230 -25 -30 -29 -32 -64 -6 -96 19 -24 22
-24 229 -27 l210 -3 4 -302 c3 -263 6 -307 21 -342 23 -50 70 -100 122 -128
l40 -22 1395 -3 c1533 -3 1444 -6 1522 58 20 17 48 53 62 82 l26 52 0 1436 c0
1432 0 1436 -20 1458 -27 29 -80 29 -106 1 -18 -20 -19 -63 -24 -1448 -4
-1102 -8 -1431 -17 -1447 -7 -12 -27 -27 -44 -33 -23 -8 -424 -11 -1388 -11
-1327 0 -1357 0 -1388 20 -22 13 -35 31 -43 58 -7 28 -9 620 -8 1927 l3 1887
33 29 32 29 1381 0 1381 0 29 -29 29 -29 0 -351 c0 -235 4 -358 11 -374 11
-25 47 -47 75 -47 8 0 26 11 39 25 l25 24 0 368 c0 365 0 368 -24 419 -27 58
-94 120 -145 134 -20 5 -136 10 -258 10 l-221 0 -5 258 c-5 283 -9 310 -70
404 -63 99 -158 167 -267 192 -57 14 -279 16 -1825 15 -1464 -1 -1770 -3
-1817 -15z"/>
<path d="M841 4035 l-107 -105 -49 50 c-39 40 -56 50 -82 50 -43 0 -73 -30
-73 -72 0 -28 14 -46 89 -120 69 -68 95 -88 117 -88 22 0 56 28 171 142 126
126 143 146 143 175 0 42 -30 73 -71 73 -27 0 -49 -16 -138 -105z"/>
<path d="M2325 3984 c-11 -3 -30 -7 -42 -9 -34 -8 -84 -55 -104 -100 -17 -36
-19 -71 -19 -350 0 -350 3 -366 76 -421 l37 -29 1192 0 1192 0 37 29 c75 56
77 73 74 440 l-3 324 -31 39 c-17 21 -46 47 -65 58 -33 20 -53 20 -1179 21
-630 1 -1154 0 -1165 -2z m2276 -154 c18 -10 19 -24 19 -295 0 -156 -3 -290
-6 -299 -6 -14 -116 -16 -1149 -16 -1033 0 -1143 2 -1149 16 -3 9 -6 143 -6
299 0 260 1 285 18 294 24 14 2246 15 2273 1z"/>
<path d="M530 3322 c-23 -11 -43 -33 -58 -62 -22 -44 -23 -52 -20 -270 3 -217
4 -226 26 -258 43 -59 57 -62 315 -62 227 0 235 1 268 23 64 42 69 65 69 312
0 247 -5 270 -69 312 -33 22 -41 23 -265 23 -200 0 -236 -2 -266 -18z m450
-317 l0 -185 -190 0 -190 0 0 185 0 185 190 0 190 0 0 -185z"/>
<path d="M2264 2909 c-41 -12 -91 -69 -99 -112 -4 -18 -5 -99 -3 -179 3 -168
10 -185 89 -226 41 -22 53 -23 201 -20 173 3 188 8 236 78 21 31 22 44 22 193
0 145 -2 163 -22 198 -37 66 -78 79 -249 78 -79 0 -158 -5 -175 -10z m296
-264 l0 -125 -125 0 -125 0 0 125 0 125 125 0 125 0 0 -125z"/>
<path d="M2931 2898 c-75 -40 -82 -65 -79 -263 3 -152 5 -173 23 -197 43 -57
65 -63 245 -63 193 0 219 9 258 85 22 42 23 55 20 200 -3 141 -5 158 -25 186
-46 64 -62 69 -238 72 -152 3 -162 2 -204 -20z m317 -250 l-3 -123 -122 -3
-123 -3 0 126 0 125 125 0 126 0 -3 -122z"/>
<path d="M3642 2913 c-34 -7 -98 -75 -105 -113 -4 -18 -7 -92 -7 -164 0 -117
3 -137 23 -176 38 -76 64 -85 257 -85 180 0 202 6 245 63 18 24 20 45 23 197
3 198 -4 223 -78 262 -40 21 -55 23 -189 22 -80 -1 -156 -4 -169 -6z m288
-268 l0 -126 -122 3 -123 3 -3 123 -3 122 126 0 125 0 0 -125z"/>
<path d="M4320 2909 c-14 -6 -36 -20 -48 -32 -47 -44 -52 -66 -52 -235 0 -148
1 -161 23 -192 47 -70 62 -75 235 -78 148 -3 160 -2 201 20 82 42 86 55 86
253 0 160 -2 176 -21 201 -48 65 -61 69 -237 71 -95 2 -172 -2 -187 -8z m300
-264 l0 -125 -125 0 -125 0 0 125 0 125 125 0 125 0 0 -125z"/>
<path d="M527 2268 c-23 -14 -45 -38 -58 -64 -19 -40 -20 -58 -17 -268 3 -247
4 -250 72 -300 26 -20 41 -21 266 -21 225 0 240 1 266 21 68 50 69 52 72 307
2 225 2 233 -20 271 -42 71 -62 76 -318 76 -213 0 -227 -2 -263 -22z m453
-318 l0 -190 -190 0 -190 0 0 190 0 190 190 0 190 0 0 -190z"/>
<path d="M2232 2200 c-58 -35 -72 -83 -72 -249 0 -170 13 -212 79 -249 35 -20
53 -22 196 -22 175 0 208 8 248 64 20 29 22 44 25 196 3 186 -5 216 -67 257
-32 22 -44 23 -205 23 -154 0 -174 -2 -204 -20z m328 -250 l0 -120 -125 0
-125 0 0 120 0 120 125 0 125 0 0 -120z"/>
<path d="M2922 2200 c-64 -39 -72 -65 -72 -251 0 -156 1 -168 23 -200 40 -60
71 -69 253 -69 151 0 163 1 194 23 70 47 75 62 78 235 3 149 2 159 -20 201
-39 73 -65 81 -258 81 -147 0 -169 -2 -198 -20z m328 -250 l0 -120 -125 0
-125 0 0 120 0 120 125 0 125 0 0 -120z"/>
<path d="M3613 2204 c-18 -9 -43 -33 -55 -53 -22 -34 -23 -47 -23 -203 0 -153
2 -169 21 -194 48 -65 60 -69 242 -72 189 -3 218 4 259 67 22 32 23 44 23 200
0 186 -8 212 -72 251 -29 18 -51 20 -198 20 -131 0 -172 -4 -197 -16z m317
-254 l0 -120 -125 0 -125 0 0 120 0 120 125 0 125 0 0 -120z"/>
<path d="M4289 2197 c-62 -41 -70 -71 -67 -257 3 -152 5 -167 25 -196 40 -56
73 -64 248 -64 143 0 161 2 196 22 66 37 79 78 79 252 0 128 -3 152 -20 187
-37 72 -60 79 -256 79 -161 0 -173 -1 -205 -23z m331 -247 l0 -120 -125 0
-125 0 0 120 0 120 125 0 125 0 0 -120z"/>
<path d="M2255 1516 c-41 -18 -83 -69 -90 -109 -4 -19 -5 -98 -3 -178 3 -132
5 -147 26 -177 43 -60 69 -67 247 -67 142 0 164 2 194 20 71 42 76 57 79 243
3 192 -5 220 -74 259 -36 21 -52 23 -194 22 -106 0 -165 -4 -185 -13z m305
-256 l0 -120 -125 0 -125 0 0 120 0 120 125 0 125 0 0 -120z"/>
<path d="M2930 1512 c-70 -38 -75 -53 -78 -245 -3 -166 -2 -173 20 -207 45
-67 73 -75 253 -75 187 0 214 9 253 85 22 42 23 54 20 202 -3 171 -7 184 -72
232 -25 19 -44 21 -194 24 -148 2 -171 1 -202 -16z m320 -252 l0 -120 -125 0
-125 0 0 120 0 120 125 0 125 0 0 -120z"/>
<path d="M3625 1516 c-46 -20 -83 -70 -90 -120 -4 -25 -5 -102 -4 -173 6 -206
33 -234 238 -241 194 -7 258 13 300 95 7 13 11 84 11 186 0 154 -1 166 -22
197 -42 61 -74 70 -248 70 -106 -1 -165 -5 -185 -14z m305 -256 l0 -120 -125
0 -125 0 0 120 0 120 125 0 125 0 0 -120z"/>
<path d="M4298 1510 c-23 -12 -46 -36 -58 -60 -19 -38 -20 -58 -20 -523 l0
-484 23 -33 c48 -72 59 -75 252 -75 190 0 200 3 249 69 21 27 21 38 21 526 0
488 0 499 -21 526 -48 65 -60 69 -242 71 -151 3 -171 1 -204 -17z m322 -580
l0 -450 -125 0 -125 0 0 450 0 450 125 0 125 0 0 -450z"/>
<path d="M580 1211 c-50 -10 -75 -26 -102 -63 -22 -32 -23 -41 -26 -258 -3
-218 -2 -226 20 -269 40 -76 57 -81 316 -81 248 0 273 5 313 61 24 34 24 37
24 276 0 230 -1 243 -21 270 -47 62 -69 68 -289 70 -110 1 -216 -2 -235 -6z
m400 -336 l0 -185 -190 0 -190 0 0 185 0 185 190 0 190 0 0 -185z"/>
<path d="M2266 870 c-38 -12 -75 -47 -92 -87 -20 -45 -19 -311 0 -357 8 -18
31 -46 52 -62 l37 -29 173 0 c192 0 203 3 252 75 21 31 22 43 22 195 0 152 -1
164 -22 195 -48 70 -62 75 -236 77 -86 1 -170 -2 -186 -7z m294 -265 l0 -125
-125 0 -125 0 0 125 0 125 125 0 125 0 0 -125z"/>
<path d="M2931 858 c-75 -40 -82 -65 -79 -263 3 -152 5 -173 23 -197 42 -55
67 -63 229 -66 173 -4 219 7 264 66 27 35 27 36 27 206 0 161 -1 173 -22 202
-46 64 -62 69 -238 72 -152 3 -162 2 -204 -20z m319 -253 l0 -125 -125 0 -125
0 0 125 0 125 125 0 125 0 0 -125z"/>
<path d="M3645 873 c-37 -10 -77 -46 -96 -87 -15 -34 -19 -66 -19 -181 0 -126
2 -145 23 -185 16 -33 34 -51 67 -68 42 -22 55 -23 200 -20 168 3 193 10 235
66 18 24 20 45 23 197 3 198 -4 223 -78 262 -40 21 -55 23 -189 22 -80 -1
-155 -4 -166 -6z m285 -268 l0 -126 -122 3 -123 3 -3 123 -3 122 126 0 125 0
0 -125z"/>
</g>
</svg>
