<?xml version="1.0" encoding="UTF-8"?>
<svg version="1.1" xmlns="http://www.w3.org/2000/svg" width="512" height="512">
<path d="M0 0 C7.31436139 7.75267518 10.74847002 15.5819091 12.8359375 25.8984375 C14.44033691 25.8670166 14.44033691 25.8670166 16.07714844 25.83496094 C20.05031923 25.76249124 24.02343175 25.71661287 27.99707031 25.67871094 C29.71592029 25.65861122 31.43470202 25.63132661 33.15332031 25.59667969 C35.62582239 25.54808716 38.0974196 25.52545315 40.5703125 25.5078125 C41.72052887 25.47684479 41.72052887 25.47684479 42.89398193 25.44525146 C46.39719069 25.44378237 48.45452251 25.62950811 51.35253906 27.67285156 C52.8359375 29.8984375 52.8359375 29.8984375 52.8359375 33.8984375 C53.87941345 33.88955505 54.9228894 33.88067261 55.99798584 33.871521 C65.82706331 33.79046867 75.65607307 33.73048822 85.48540878 33.69118881 C90.5389167 33.67030536 95.59215505 33.64197379 100.64550781 33.59667969 C105.52141218 33.55324911 110.3970571 33.5293061 115.27313995 33.51892853 C117.13432144 33.51153215 118.99548858 33.49708884 120.85655975 33.47551727 C123.46165254 33.44652006 126.06567048 33.44247991 128.67089844 33.44433594 C129.44197937 33.42995483 130.2130603 33.41557373 131.00750732 33.40075684 C134.28120477 33.42602885 136.36401332 33.54972491 139.0352478 35.52354431 C141.40051504 38.64304738 141.32931801 40.48357652 141.31695557 44.37774658 C141.32037327 45.02636555 141.32379097 45.67498453 141.32731223 46.34325862 C141.33389641 48.51477174 141.31190863 50.68504627 141.29003906 52.85644531 C141.28891069 54.41366547 141.28954425 55.97088777 141.29180908 57.52810669 C141.29295756 61.75519397 141.26942678 65.98182799 141.24151325 70.20880985 C141.21652185 74.62638621 141.21415939 79.04397275 141.20941162 83.46160889 C141.19697518 91.82682746 141.16414456 100.19183713 141.12401366 108.55696368 C141.07931672 118.08042494 141.05731415 127.60389614 141.03723192 137.12743616 C140.99541249 156.71788657 140.92504746 176.30814888 140.8359375 195.8984375 C141.6566423 196.10004486 142.47734711 196.30165222 143.32292175 196.5093689 C144.40124771 196.77617462 145.47957367 197.04298035 146.59057617 197.31787109 C147.65878098 197.58135345 148.72698578 197.84483582 149.82756042 198.11630249 C177.32375717 205.26492036 200.12974073 224.94841397 214.68554688 248.88671875 C224.66318608 266.33488238 229.23888052 285.47151923 229.2109375 305.4609375 C229.21012177 306.44963837 229.21012177 306.44963837 229.20928955 307.45831299 C229.1490723 323.37638167 226.09207764 336.76374542 220.203125 351.4453125 C218.97175987 354.55538901 217.89371044 357.72511867 216.8359375 360.8984375 C238.6159375 382.6784375 260.3959375 404.4584375 282.8359375 426.8984375 C280.91452882 430.74125486 279.2432559 432.70275677 276.2109375 435.6484375 C275.39367187 436.44765625 274.57640625 437.246875 273.734375 438.0703125 C273.10789062 438.67359375 272.48140625 439.276875 271.8359375 439.8984375 C267.62000819 438.25450374 264.80571136 435.13488364 261.69042969 431.97998047 C261.08512421 431.37496704 260.47981873 430.76995361 259.85617065 430.14660645 C257.860273 428.14931751 255.87154951 426.14504192 253.8828125 424.140625 C252.49891082 422.75299248 251.11456638 421.3658014 249.72979736 419.97903442 C246.0889053 416.3305115 242.45405972 412.67602198 238.82043457 409.02026367 C235.11048062 405.28983961 231.39484823 401.56508107 227.6796875 397.83984375 C220.39286406 390.53158003 213.11241485 383.21700134 205.8359375 375.8984375 C205.35962891 376.37474609 204.88332031 376.85105469 204.39257812 377.34179688 C198.54036458 383.19401042 192.68815104 389.04622396 186.8359375 394.8984375 C210.5959375 418.6584375 234.3559375 442.4184375 258.8359375 466.8984375 C256.91452882 470.74125486 255.2432559 472.70275677 252.2109375 475.6484375 C251.39367187 476.44765625 250.57640625 477.246875 249.734375 478.0703125 C249.10789062 478.67359375 248.48140625 479.276875 247.8359375 479.8984375 C244.93296016 478.58477813 242.86685641 477.17771627 240.621521 474.92453003 C239.70454437 474.0116774 239.70454437 474.0116774 238.76904297 473.0803833 C238.1101709 472.41432068 237.45129883 471.74825806 236.77246094 471.06201172 C236.06961975 470.35946259 235.36677856 469.65691345 234.64263916 468.93307495 C232.32209125 466.61113439 230.0087067 464.28219122 227.6953125 461.953125 C226.08720803 460.34129018 224.47866125 458.72989653 222.86968994 457.118927 C218.63696485 452.87856721 214.41028035 448.63223544 210.18481445 444.38464355 C205.87162479 440.05099207 201.55276501 435.72299962 197.234375 431.39453125 C188.76266159 422.90137077 180.29731717 414.40189222 171.8359375 405.8984375 C170.42242354 406.36467304 169.00934116 406.83221709 167.59643555 407.30029297 C166.809478 407.56051239 166.02252045 407.82073181 165.2117157 408.08883667 C160.96289013 409.53672129 156.78831316 411.18225915 152.61132812 412.82421875 C148.68206647 414.33164727 144.98661495 415.27013571 140.8359375 415.8984375 C140.84481995 416.66629578 140.85370239 417.43415405 140.862854 418.22528076 C140.94302776 425.46434205 141.00391555 432.70318785 141.04318619 439.94257736 C141.06405454 443.66438498 141.09235731 447.38582552 141.13769531 451.10742188 C141.18118163 454.6995326 141.20508027 458.29129045 141.21544647 461.8836441 C141.222833 463.25360927 141.23725751 464.62355527 141.25885773 465.99337006 C141.2879223 467.91303139 141.28957166 469.8330484 141.29003906 471.75292969 C141.29892151 472.84547058 141.30780396 473.93801147 141.31695557 475.06365967 C140.70514364 478.66924336 139.67583806 479.64394243 136.8359375 481.8984375 C134.13800812 482.39983416 134.13800812 482.39983416 130.98254395 482.40180206 C129.77875847 482.41223305 128.57497299 482.42266404 127.33470917 482.43341112 C125.99722558 482.4247627 124.65974439 482.41573607 123.32226562 482.40637207 C121.90272633 482.41097969 120.48319181 482.41733168 119.0636673 482.42528105 C115.1581564 482.44201686 111.25303524 482.43370895 107.34752274 482.42133617 C103.13749772 482.41230528 98.92754087 482.42624563 94.7175293 482.43725586 C86.46826668 482.4550667 78.21914943 482.45118971 69.96988106 482.4396053 C63.2670993 482.43058131 56.56435835 482.42934248 49.86157227 482.43370056 C48.90854485 482.43431349 47.95551744 482.43492643 46.9736104 482.43555793 C45.03771145 482.4368368 43.10181251 482.43813365 41.16591358 482.4394483 C23.00184267 482.45086161 4.83785243 482.43772862 -13.32620525 482.41624683 C-28.92063558 482.39837517 -44.51494682 482.40147907 -60.109375 482.41992188 C-78.20728772 482.44131534 -96.30512969 482.4497629 -114.40305328 482.43747282 C-116.3319346 482.43619859 -118.26081593 482.43494111 -120.18969727 482.43370056 C-121.61336396 482.43277491 -121.61336396 482.43277491 -123.06579161 482.43183056 C-129.76254693 482.42837308 -136.45925747 482.43421455 -143.15600586 482.44361877 C-151.31423379 482.45482322 -159.47230773 482.45183155 -167.63051796 482.4304958 C-171.79507551 482.41996435 -175.95937608 482.41589898 -180.12393188 482.42909241 C-183.93356598 482.44097914 -187.74270398 482.43451598 -191.55229282 482.4131822 C-192.93311858 482.40870023 -194.31398593 482.41101806 -195.69478512 482.42068535 C-197.56671784 482.43278962 -199.43876736 482.41802238 -201.31066895 482.40180206 C-202.87262371 482.40082795 -202.87262371 482.40082795 -204.46613312 482.39983416 C-207.1640625 481.8984375 -207.1640625 481.8984375 -209.49843931 480.32651854 C-211.71816904 477.09068243 -211.71854319 474.33533129 -211.66742706 470.54577637 C-211.67324083 469.79947495 -211.67905459 469.05317354 -211.68504453 468.28425694 C-211.69970858 465.76925862 -211.68573007 463.2552265 -211.67199707 460.74023438 C-211.67660347 458.92471567 -211.68295462 457.10920068 -211.69090605 455.29369354 C-211.70765842 450.29366004 -211.69932624 445.29393055 -211.68696117 440.29389572 C-211.67793711 434.90595147 -211.69186724 429.51806069 -211.70288086 424.13012695 C-211.72069899 413.57078161 -211.71681144 403.01154978 -211.7052303 392.45219994 C-211.69620919 383.87299032 -211.69496624 375.2938126 -211.69932556 366.71459961 C-211.69993849 365.49513752 -211.70055143 364.27567542 -211.70118293 363.01925993 C-211.70246179 360.54220898 -211.70375864 358.06515804 -211.7050733 355.58810711 C-211.71648875 332.34227119 -211.70335026 309.0964983 -211.68187183 285.85067272 C-211.66399999 265.89000024 -211.66710383 245.9294208 -211.68554688 225.96875 C-211.70693655 202.80802121 -211.71539002 179.6473477 -211.70309782 156.48661041 C-211.70182358 154.01849875 -211.7005661 151.55038707 -211.69932556 149.08227539 C-211.69870846 147.86780967 -211.69809136 146.65334395 -211.69745556 145.40207624 C-211.69399694 136.82980495 -211.699842 128.25756862 -211.70924377 119.68530273 C-211.72044401 109.24338446 -211.71746537 98.80158651 -211.6961208 88.35968208 C-211.68558376 83.02858988 -211.68153364 77.69769854 -211.69471741 72.36660767 C-211.7065923 67.49116928 -211.70016014 62.61611891 -211.6788072 57.74071598 C-211.67432025 55.97227394 -211.67665397 54.20379945 -211.68631035 52.43537807 C-211.69839123 50.04014546 -211.68608561 47.64625968 -211.66742706 45.25109863 C-211.67679173 44.55683808 -211.68615639 43.86257753 -211.69580483 43.14727879 C-211.64428853 39.8617224 -211.34108516 38.13709011 -209.36197615 35.46895981 C-206.0842824 33.1268791 -202.8748384 33.37204976 -198.99902344 33.44433594 C-198.1791394 33.44375183 -197.35925537 33.44316772 -196.51452637 33.44256592 C-193.80873039 33.4453492 -191.10404065 33.47645201 -188.3984375 33.5078125 C-186.5208598 33.51527404 -184.64327431 33.52096738 -182.76568604 33.52496338 C-177.82696992 33.54022659 -172.8887253 33.57951437 -167.95019531 33.6237793 C-162.90957009 33.66471715 -157.86886859 33.68297122 -152.828125 33.703125 C-142.93989715 33.74600791 -133.05201905 33.81426762 -123.1640625 33.8984375 C-123.0609375 32.9496875 -122.9578125 32.0009375 -122.8515625 31.0234375 C-122.1640625 27.8984375 -122.1640625 27.8984375 -119.1640625 25.8984375 C-116.40619835 25.72665975 -113.75190726 25.66627512 -110.99609375 25.703125 C-109.80387459 25.70736984 -109.80387459 25.70736984 -108.58757019 25.71170044 C-106.05041412 25.72289045 -103.51361178 25.74799259 -100.9765625 25.7734375 C-99.25586448 25.78346884 -97.53516091 25.79259442 -95.81445312 25.80078125 C-91.59752007 25.82282589 -87.38085125 25.85734744 -83.1640625 25.8984375 C-82.98447998 25.09889648 -82.80489746 24.29935547 -82.61987305 23.47558594 C-79.38176588 9.70396528 -72.31705235 -0.73421921 -60.2890625 -8.4140625 C-55.4260115 -11.15464867 -50.60723511 -12.90371222 -45.1640625 -14.1015625 C-44.12378906 -14.33359375 -44.12378906 -14.33359375 -43.0625 -14.5703125 C-26.6207001 -17.2798226 -11.6005315 -11.26549809 0 0 Z M-60.1640625 13.8984375 C-65.01625868 20.12794978 -66.20456294 27.01594034 -67.390625 34.640625 C-68.43817379 39.05302746 -68.43817379 39.05302746 -71.1640625 40.8984375 C-73.95354939 41.22930491 -76.53787755 41.38725941 -79.33203125 41.41015625 C-80.03670532 41.42679321 -80.74137939 41.44343018 -81.46740723 41.46057129 C-84.0951566 41.51832557 -86.72341592 41.55061203 -89.3515625 41.5859375 C-98.16875 41.740625 -98.16875 41.740625 -107.1640625 41.8984375 C-107.1640625 57.7384375 -107.1640625 73.5784375 -107.1640625 89.8984375 C-59.6440625 89.8984375 -12.1240625 89.8984375 36.8359375 89.8984375 C36.8359375 74.0584375 36.8359375 58.2184375 36.8359375 41.8984375 C25.12366118 41.68845392 25.12366118 41.68845392 13.41088867 41.51049805 C11.94186857 41.47821102 10.47287177 41.44483771 9.00390625 41.41015625 C7.86097107 41.40079041 7.86097107 41.40079041 6.69494629 41.39123535 C1.34800496 41.24528906 1.34800496 41.24528906 -1.12841797 39.56787109 C-2.81832737 36.84377856 -3.00634216 33.98033608 -3.4765625 30.8359375 C-5.08614798 21.62294515 -8.6526416 13.94178207 -16.20703125 8.1484375 C-30.7758324 -1.15698439 -48.62706818 0.99657555 -60.1640625 13.8984375 Z M-195.1640625 49.8984375 C-195.1640625 187.1784375 -195.1640625 324.4584375 -195.1640625 465.8984375 C-89.5640625 465.8984375 16.0359375 465.8984375 124.8359375 465.8984375 C124.8359375 450.0584375 124.8359375 434.2184375 124.8359375 417.8984375 C119.5559375 417.8984375 114.2759375 417.8984375 108.8359375 417.8984375 C108.7328125 419.8165625 108.6296875 421.7346875 108.5234375 423.7109375 C108.21836687 429.38525119 108.21836687 429.38525119 106.59980679 431.55721533 C104.3034431 433.30333899 102.97198551 433.27431232 100.10231018 433.27596092 C99.12283637 433.28378416 98.14336256 433.29160741 97.13420773 433.29966772 C96.05552709 433.29297555 94.97684645 433.28628339 93.86547852 433.27938843 C92.72163728 433.2840684 91.57779604 433.28874837 90.39929295 433.29357016 C87.2193055 433.30348737 84.03965975 433.29988905 80.85968065 433.29061151 C77.4322223 433.28384018 74.00481112 433.29429268 70.57736206 433.30255127 C63.86102156 433.31591137 57.14478147 433.31300078 50.42843699 433.30431335 C44.97133607 433.29754614 39.51426334 433.2966159 34.05715942 433.2998848 C33.28133092 433.3003445 32.50550241 433.30080419 31.70616394 433.30127782 C30.13022573 433.30223697 28.55428752 433.30320961 26.97834933 433.3041956 C12.19072528 433.31275616 -2.59684304 433.30290493 -17.38445795 433.2867945 C-30.08087749 433.2733907 -42.77721475 433.27571861 -55.47363281 433.28955078 C-70.20729586 433.30559485 -84.94091002 433.31193212 -99.67458057 433.30271399 C-101.24481518 433.30175831 -102.8150498 433.3008152 -104.38528442 433.2998848 C-105.54425009 433.29919056 -105.54425009 433.29919056 -106.7266292 433.29848229 C-112.17900128 433.29588888 -117.63134243 433.30027095 -123.08370972 433.30732346 C-129.72572586 433.31572565 -136.3676356 433.31348542 -143.0096395 433.29748122 C-146.40038775 433.28958113 -149.79095842 433.28653622 -153.18170547 433.29642868 C-156.85251775 433.30457398 -160.52282387 433.29440725 -164.19360352 433.27938843 C-165.27228415 433.28608059 -166.35096479 433.29277276 -167.46233273 433.29966772 C-168.44180654 433.29184447 -169.42128035 433.28402123 -170.43043518 433.27596092 C-171.27824334 433.27547387 -172.1260515 433.27498681 -172.99955082 433.27448499 C-175.1640625 432.8984375 -175.1640625 432.8984375 -176.93631899 431.74878085 C-178.69879046 429.09254416 -178.540168 427.09104462 -178.54158592 423.91542053 C-178.54940916 422.65727508 -178.55723241 421.39912962 -178.56529272 420.10285854 C-178.55880593 418.69886079 -178.55203593 417.29486432 -178.54501343 415.89086914 C-178.54846795 414.40548642 -178.55323113 412.92010625 -178.55919516 411.43473148 C-178.57176315 407.3426655 -178.56550859 403.25080838 -178.55623651 399.15874147 C-178.54946998 394.74968301 -178.5599153 390.34066135 -178.56817627 385.93161011 C-178.5815415 377.29019935 -178.57862348 368.64886659 -178.56993835 360.00745273 C-178.56317316 352.98666158 -178.56224002 345.96589235 -178.5655098 338.94509888 C-178.5659695 337.94724147 -178.56642919 336.94938406 -178.56690282 335.92128855 C-178.56786196 333.89439034 -178.5688346 331.86749213 -178.5698206 329.84059393 C-178.57838266 310.81816483 -178.56852757 291.79577904 -178.5524195 272.77335703 C-178.53901558 256.43840122 -178.54134344 240.10350935 -178.55517578 223.76855469 C-178.57121719 204.81587768 -178.57755861 185.86323868 -178.56833899 166.91055584 C-178.56738331 164.89096261 -178.56644019 162.87136937 -178.5655098 160.85177612 C-178.56504697 159.85800353 -178.56458414 158.86423093 -178.56410729 157.84034401 C-178.56151308 150.82504146 -178.56589767 143.80976294 -178.57294846 136.79446411 C-178.58134769 128.24937106 -178.57911663 119.70436073 -178.56310622 111.1592772 C-178.55520219 106.7964143 -178.55216801 102.43368948 -178.56205368 98.07082748 C-178.57095721 94.08118138 -178.56614003 90.09180207 -178.55012102 86.10218036 C-178.54675469 84.65471883 -178.54850854 83.20723502 -178.55574839 81.75978768 C-178.56480139 79.8003585 -178.55376969 77.84086668 -178.54158592 75.88145447 C-178.54109887 74.7906253 -178.54061181 73.69979612 -178.54010999 72.57591152 C-178.1640625 69.8984375 -178.1640625 69.8984375 -176.78639758 68.0494194 C-174.50430744 66.43036765 -172.83340526 66.49976126 -170.05004883 66.46606445 C-168.48877007 66.43637321 -168.48877007 66.43637321 -166.89595032 66.40608215 C-165.21302132 66.39649727 -165.21302132 66.39649727 -163.49609375 66.38671875 C-162.34614426 66.36876755 -161.19619476 66.35081635 -160.01139832 66.33232117 C-156.33315718 66.27807489 -152.65504686 66.24427579 -148.9765625 66.2109375 C-146.48500778 66.17777716 -143.99347035 66.14328872 -141.50195312 66.10742188 C-135.3894171 66.02233983 -129.27692085 65.95559653 -123.1640625 65.8984375 C-123.1640625 60.6184375 -123.1640625 55.3384375 -123.1640625 49.8984375 C-146.9240625 49.8984375 -170.6840625 49.8984375 -195.1640625 49.8984375 Z M52.8359375 49.8984375 C52.8359375 55.1784375 52.8359375 60.4584375 52.8359375 65.8984375 C54.39546143 65.91302002 55.95498535 65.92760254 57.56176758 65.94262695 C63.33739371 66.00051602 69.11262611 66.07774967 74.88793945 66.16088867 C77.38950215 66.19418221 79.89114077 66.22220018 82.39282227 66.24487305 C85.98486752 66.2783371 89.57621416 66.33064993 93.16796875 66.38671875 C94.28992142 66.39310867 95.41187408 66.3994986 96.56782532 66.40608215 C97.60867783 66.42587631 98.64953033 66.44567047 99.72192383 66.46606445 C100.63903641 66.47716751 101.55614899 66.48827057 102.50105286 66.49971008 C105.36438999 66.98868114 106.08016514 67.61700294 107.8359375 69.8984375 C108.22069836 72.20413494 108.22069836 72.20413494 108.23466492 74.96672058 C108.24720306 76.01419968 108.25974121 77.06167877 108.2726593 78.14089966 C108.27122421 79.28960541 108.26978912 80.43831116 108.26831055 81.62182617 C108.28359802 83.43664742 108.28359802 83.43664742 108.29919434 85.28813171 C108.32423342 88.60615893 108.33605432 91.92374325 108.34204841 95.24182677 C108.35142127 98.70924551 108.3776237 102.17653567 108.40205383 105.64387512 C108.44575265 112.2098701 108.47427874 118.77584018 108.49737722 125.34193641 C108.52441084 132.81714916 108.56832341 140.29223279 108.61366594 147.76735342 C108.70656062 163.14431744 108.77762043 178.52130132 108.8359375 193.8984375 C114.1159375 193.8984375 119.3959375 193.8984375 124.8359375 193.8984375 C124.8359375 146.3784375 124.8359375 98.8584375 124.8359375 49.8984375 C101.0759375 49.8984375 77.3159375 49.8984375 52.8359375 49.8984375 Z M-163.1640625 81.8984375 C-163.1640625 192.7784375 -163.1640625 303.6584375 -163.1640625 417.8984375 C-78.6840625 417.8984375 5.7959375 417.8984375 92.8359375 417.8984375 C92.8359375 417.2384375 92.8359375 416.5784375 92.8359375 415.8984375 C92.31386719 415.72828125 91.79179687 415.558125 91.25390625 415.3828125 C70.55803471 408.56876023 45.77075323 399.34324998 33.10821533 380.30012512 C31.02717659 377.63835247 31.02717659 377.63835247 27.8493042 377.29716492 C26.68570374 377.30826797 25.52210327 377.31937103 24.32324219 377.33081055 C23.67892242 377.33008041 23.03460266 377.32935028 22.37075806 377.32859802 C20.24890851 377.33207134 18.12927659 377.37091211 16.0078125 377.41015625 C14.53380533 377.41948549 13.05978263 377.42660108 11.58575439 377.43159485 C7.71212721 377.45065653 3.83944224 377.49974832 -0.03381348 377.55511475 C-3.98855849 377.60632625 -7.94345625 377.62911283 -11.8984375 377.65429688 C-19.65412447 377.70786981 -27.40884126 377.79579672 -35.1640625 377.8984375 C-35.1640625 372.6184375 -35.1640625 367.3384375 -35.1640625 361.8984375 C-17.3440625 361.8984375 0.4759375 361.8984375 18.8359375 361.8984375 C16.67391773 356.49338807 14.24485675 351.19805984 11.8359375 345.8984375 C-40.6340625 345.8984375 -93.1040625 345.8984375 -147.1640625 345.8984375 C-147.1640625 340.6184375 -147.1640625 335.3384375 -147.1640625 329.8984375 C-96.3440625 329.8984375 -45.5240625 329.8984375 6.8359375 329.8984375 C5.8459375 321.9784375 5.8459375 321.9784375 4.8359375 313.8984375 C-45.3240625 313.8984375 -95.4840625 313.8984375 -147.1640625 313.8984375 C-147.1640625 308.6184375 -147.1640625 303.3384375 -147.1640625 297.8984375 C-97.0040625 297.8984375 -46.8440625 297.8984375 4.8359375 297.8984375 C5.4959375 292.6184375 6.1559375 287.3384375 6.8359375 281.8984375 C-43.9840625 281.8984375 -94.8040625 281.8984375 -147.1640625 281.8984375 C-147.1640625 276.6184375 -147.1640625 271.3384375 -147.1640625 265.8984375 C-94.6940625 265.8984375 -42.2240625 265.8984375 11.8359375 265.8984375 C16.63764578 258.20572914 16.63764578 258.20572914 18.8359375 249.8984375 C18.00379825 249.89604915 17.17165899 249.89366079 16.3143034 249.89120007 C-3.91560024 249.83211335 -24.14538412 249.75660408 -44.37515736 249.66272259 C-54.15805295 249.61772029 -63.94091177 249.57831593 -73.72387695 249.55200195 C-82.24880666 249.5290577 -90.77362044 249.49569993 -99.29845828 249.44973594 C-103.81403409 249.42575534 -108.32949475 249.40705835 -112.84513283 249.40082359 C-117.09279167 249.39479451 -121.3401557 249.37487415 -125.58770561 249.34416199 C-127.14899273 249.33534668 -128.71031832 249.33166637 -130.27162933 249.33342934 C-132.39914773 249.33507358 -134.52575825 249.31845756 -136.65315247 249.29716492 C-137.84503079 249.29255595 -139.03690912 249.28794699 -140.26490498 249.28319836 C-143.1640625 248.8984375 -143.1640625 248.8984375 -145.04718494 247.67953205 C-146.52054061 245.32995869 -146.54144659 243.77177477 -146.54501343 241.00219727 C-146.5534729 239.99271027 -146.56193237 238.98322327 -146.57064819 237.94314575 C-146.5645755 236.83655609 -146.55850281 235.72996643 -146.55224609 234.58984375 C-146.55750305 233.42379608 -146.56276001 232.25774841 -146.56817627 231.05636597 C-146.58141059 227.19108802 -146.57262568 223.32621985 -146.5625 219.4609375 C-146.56451974 216.78197718 -146.56742546 214.10302944 -146.57119751 211.42407227 C-146.5766567 205.80513038 -146.56945924 200.18630675 -146.55517578 194.56738281 C-146.53884884 188.0695056 -146.54413724 181.57191078 -146.560655 175.07404041 C-146.57426528 169.49688454 -146.57619181 163.91981371 -146.56833899 158.3426466 C-146.5636599 155.01085676 -146.56422035 151.67922892 -146.57294846 148.34744263 C-146.58054123 144.63377612 -146.56898844 140.92065685 -146.55224609 137.20703125 C-146.55831879 136.10044159 -146.56439148 134.99385193 -146.57064819 133.85372925 C-146.56218872 132.84424225 -146.55372925 131.83475525 -146.54501343 130.79467773 C-146.54388235 129.9164183 -146.54275127 129.03815887 -146.54158592 128.13328552 C-146.07456675 125.36864413 -145.31780837 124.64169906 -143.1640625 122.8984375 C-140.24640382 122.60345882 -137.54211135 122.49394292 -134.62329102 122.51748657 C-133.29955019 122.51046661 -133.29955019 122.51046661 -131.94906712 122.50330484 C-128.98021658 122.49130083 -126.01182304 122.50083316 -123.04296875 122.51025391 C-120.91933929 122.50619061 -118.79571194 122.5008501 -116.67208862 122.49432373 C-110.89533711 122.4806156 -105.11874584 122.48596323 -99.34199142 122.49546099 C-93.30554512 122.50303948 -87.26911284 122.49601702 -81.23266602 122.49130249 C-71.09421314 122.48583965 -60.95582575 122.49305041 -50.81738281 122.50732422 C-39.0845175 122.5236517 -27.35180855 122.51836357 -15.61894703 122.501845 C-5.5577628 122.48824519 4.50337426 122.48630311 14.5645647 122.49416101 C20.57911048 122.49884581 26.59358268 122.49944026 32.60812378 122.48955154 C38.26175151 122.48090605 43.915177 122.48685953 49.56878281 122.50423431 C51.64772073 122.5082121 53.72667558 122.50704317 55.80560684 122.50044632 C58.63569222 122.49229171 61.46512276 122.50247851 64.29516602 122.51748657 C65.12482596 122.51079441 65.95448591 122.50410224 66.80928707 122.49720728 C72.39239317 122.55494143 72.39239317 122.55494143 74.54439926 124.22152936 C76.61150985 126.90542556 76.27506962 129.87152677 76.26831055 133.1237793 C76.28359802 134.2217131 76.28359802 134.2217131 76.29919434 135.34182739 C76.32938182 137.76051429 76.33859876 140.17880554 76.34765625 142.59765625 C76.36449873 144.27490054 76.38264838 145.95213216 76.40205383 147.62934875 C76.44960703 152.04338629 76.47938184 156.45737252 76.50549316 160.87158203 C76.53527195 165.37607965 76.58181144 169.8804004 76.62695312 174.38476562 C76.71304687 183.22258421 76.778816 192.06038411 76.8359375 200.8984375 C82.1159375 199.2484375 87.3959375 197.5984375 92.8359375 195.8984375 C92.8359375 158.2784375 92.8359375 120.6584375 92.8359375 81.8984375 C79.6359375 81.8984375 66.4359375 81.8984375 52.8359375 81.8984375 C52.62615427 88.34489153 52.62615427 88.34489153 52.44799805 94.79223633 C52.39832886 95.99916138 52.39832886 95.99916138 52.34765625 97.23046875 C52.32147217 98.05264893 52.29528809 98.8748291 52.26831055 99.72192383 C51.71642107 102.50006878 51.11984294 103.22398024 48.8359375 104.8984375 C45.85145569 105.27596092 45.85145569 105.27596092 42.11743164 105.27938843 C41.43094827 105.2840684 40.74446489 105.28874837 40.03717899 105.29357016 C37.73162205 105.30555813 35.42665535 105.29604852 33.12109375 105.28662109 C31.47036389 105.29068512 29.81963676 105.29602605 28.16891479 105.30255127 C23.68136323 105.31625081 19.19401812 105.31091539 14.70646286 105.30141401 C10.0153217 105.29383105 5.32419848 105.30085922 0.63305664 105.30557251 C-7.24563783 105.31103405 -15.12424801 105.30382802 -23.00292969 105.28955078 C-32.11829477 105.2732235 -41.23345857 105.27851173 -50.34881878 105.29503 C-58.16798726 105.30863354 -65.98709506 105.31057008 -73.80627155 105.30271399 C-78.4794323 105.29803124 -83.15249837 105.29742912 -87.82565308 105.30732346 C-92.21859051 105.31597441 -96.61126783 105.31000563 -101.00417709 105.29264069 C-102.61869754 105.2886658 -104.23323978 105.28982695 -105.84775162 105.29642868 C-108.04731787 105.30459508 -110.24604428 105.29438319 -112.44555664 105.27938843 C-114.29389854 105.27769181 -114.29389854 105.27769181 -116.17958069 105.27596092 C-119.1640625 104.8984375 -119.1640625 104.8984375 -121.0569458 103.51066017 C-122.53564652 101.35732365 -122.59296707 99.83083392 -122.67578125 97.23046875 C-122.70889404 96.42585205 -122.74200684 95.62123535 -122.77612305 94.79223633 C-122.80101807 93.77540771 -122.82591309 92.7585791 -122.8515625 91.7109375 C-122.9546875 88.4728125 -123.0578125 85.2346875 -123.1640625 81.8984375 C-136.3640625 81.8984375 -149.5640625 81.8984375 -163.1640625 81.8984375 Z M-131.1640625 137.8984375 C-131.1640625 169.5784375 -131.1640625 201.2584375 -131.1640625 233.8984375 C-102.59095824 234.18982704 -102.59095824 234.18982704 -74.01757812 234.38671875 C-62.3635656 234.44603603 -50.71027653 234.51573231 -39.05688477 234.65283203 C-30.56931681 234.75263873 -22.08233618 234.81705083 -13.59419769 234.83932245 C-9.10118279 234.85233815 -4.60984781 234.88282736 -0.11737251 234.95573807 C4.11601862 235.02388394 8.34704698 235.04450268 12.58093452 235.02951431 C14.13017777 235.03225387 15.67950419 235.05199541 17.22827148 235.09049225 C25.96927579 235.38496399 25.96927579 235.38496399 33.66768074 231.7187767 C35.91730044 229.21227507 37.8499889 226.61367519 39.8359375 223.8984375 C42.45643653 221.55573369 45.22715379 219.50253013 48.0859375 217.4609375 C48.7665625 216.95884766 49.4471875 216.45675781 50.1484375 215.93945312 C53.64146909 213.38398912 57.1061344 211.13631936 60.8359375 208.8984375 C60.8359375 185.4684375 60.8359375 162.0384375 60.8359375 137.8984375 C-2.5240625 137.8984375 -65.8840625 137.8984375 -131.1640625 137.8984375 Z M48.8359375 238.8984375 C47.99804688 239.71054687 47.16015625 240.52265625 46.296875 241.359375 C36.09481523 251.87728802 29.22595912 264.9708787 24.8359375 278.8984375 C24.51753906 279.88972656 24.19914063 280.88101563 23.87109375 281.90234375 C17.18387797 307.01792375 22.44422801 332.51727329 34.45703125 354.921875 C47.63982788 376.98804298 69.89834207 392.74301739 94.5859375 399.2734375 C120.00486858 405.2508673 145.87971767 400.11417448 167.9609375 386.7734375 C190.57353072 372.02609409 204.176103 350.68028608 210.8359375 324.8984375 C215.72802368 299.03428637 210.09733903 273.76591985 195.8359375 251.8984375 C181.29967193 231.54766571 160.48311563 216.84480186 135.8359375 211.8984375 C102.93037974 206.63896906 72.90813733 215.56692075 48.8359375 238.8984375 Z " fill="#28aa4a" transform="translate(219.1640625,22.1015625)"/>
<path d="M0 0 C1.30365551 1.08998583 2.59459989 2.19528814 3.875 3.3125 C4.84308594 4.08464844 5.81117188 4.85679687 6.80859375 5.65234375 C16.40913081 13.66632589 22.45343272 24.82246134 26.875 36.3125 C27.30941406 37.42496094 27.74382812 38.53742188 28.19140625 39.68359375 C34.70949162 59.69207183 32.11980722 82.03972185 23.0625 100.6875 C19.95415425 106.77552518 16.35705254 112.13679648 11.875 117.3125 C11.27816406 118.10527344 10.68132812 118.89804687 10.06640625 119.71484375 C1.86635931 129.43504199 -9.38512742 135.85794315 -21.125 140.3125 C-22.23617187 140.745625 -23.34734375 141.17875 -24.4921875 141.625 C-44.49272671 148.15578831 -66.85847413 145.5564283 -85.5 136.5 C-93.7551468 132.27632191 -100.79121995 127.12131356 -107.125 120.3125 C-107.79144531 119.65121094 -108.45789063 118.98992187 -109.14453125 118.30859375 C-125.47257686 101.42422632 -129.67210753 80.64901873 -129.39453125 57.859375 C-128.89548006 40.56221143 -121.38601226 24.31628796 -110.125 11.3125 C-109.52816406 10.51972656 -108.93132812 9.72695313 -108.31640625 8.91015625 C-100.11635931 -0.81004199 -88.86487258 -7.23294315 -77.125 -11.6875 C-76.01382813 -12.120625 -74.90265625 -12.55375 -73.7578125 -13 C-49.08137032 -21.05761377 -20.45918891 -15.72199416 0 0 Z M-94.875 19.5 C-108.23287301 33.98764337 -113.38195075 50.48903374 -112.60546875 69.95703125 C-111.4154208 86.8065515 -103.20567318 100.72693638 -91.125 112.3125 C-75.27904653 125.29808167 -58.2681787 129.2164543 -38.125 127.3125 C-20.94900112 124.49785698 -6.48844766 113.96765277 3.6875 100.125 C13.42887795 85.46982964 16.22798172 68.19067691 13.49267578 50.89501953 C9.84373072 34.44378172 -0.55051552 20.05029846 -14.59375 10.83984375 C-41.31784266 -5.28534179 -71.88649854 -1.37461627 -94.875 19.5 Z " fill="#28aa4a" transform="translate(385.125,263.6875)"/>
<path d="M0 0 C5.28 0 10.56 0 16 0 C16 2.97 16 5.94 16 9 C16.680625 9.20625 17.36125 9.4125 18.0625 9.625 C24.28637196 12.53830177 28.28024436 16.68617194 31.37109375 22.77734375 C32 25 32 25 32 32 C26.39 32 20.78 32 15 32 C14.34 30.35 13.68 28.7 13 27 C10.20129973 25.60064987 8.09501208 25.74734595 5 26 C3 27 3 27 2 29 C1.47520392 33.03378207 1.47520392 33.03378207 3.12890625 36.59765625 C5.72655804 38.54453933 8.13437031 38.84732828 11.3125 39.4375 C19.76352785 41.26449604 25.09990698 44.90076885 30 52 C33.22307561 58.44615122 33.12671819 66.535914 31.3828125 73.4453125 C29.02324135 78.77000846 24.78686321 82.77447694 20 86 C18.02 86.495 18.02 86.495 16 87 C16 89.97 16 92.94 16 96 C10.72 96 5.44 96 0 96 C0 93.03 0 90.06 0 87 C-1.0209375 86.690625 -1.0209375 86.690625 -2.0625 86.375 C-8.28637196 83.46169823 -12.28024436 79.31382806 -15.37109375 73.22265625 C-16 71 -16 71 -16 64 C-10.39 64 -4.78 64 1 64 C1.66 65.65 2.32 67.3 3 69 C5.79870027 70.39935013 7.90498792 70.25265405 11 70 C13 69 13 69 14 67 C14.52479608 62.96621793 14.52479608 62.96621793 12.87109375 59.40234375 C10.27344196 57.45546067 7.86562969 57.15267172 4.6875 56.5625 C-3.76352785 54.73550396 -9.09990698 51.09923115 -14 44 C-17.22307561 37.55384878 -17.12671819 29.464086 -15.3828125 22.5546875 C-13.02324135 17.22999154 -8.78686321 13.22552306 -4 10 C-2.68 9.67 -1.36 9.34 0 9 C0 6.03 0 3.06 0 0 Z " fill="#28aa4a" transform="translate(328,280)"/>
<path d="M0 0 C5.9436678 3.59176484 10.30873636 8.97668205 12.5625 15.5 C12.80300903 17.88557434 12.80300903 17.88557434 12.78955078 20.38208008 C12.78939972 21.32267776 12.78924866 22.26327545 12.78909302 23.2323761 C12.77877045 24.2346373 12.76844788 25.2368985 12.7578125 26.26953125 C12.7549826 27.30567062 12.75215271 28.34181 12.74923706 29.40934753 C12.73806454 32.71051707 12.71296505 36.01141281 12.6875 39.3125 C12.67746643 41.55403253 12.66834124 43.79556933 12.66015625 46.03710938 C12.63813474 51.52484467 12.60362476 57.01237595 12.5625 62.5 C7.2825 62.5 2.0025 62.5 -3.4375 62.5 C-3.4375 57.22 -3.4375 51.94 -3.4375 46.5 C-8.7175 46.5 -13.9975 46.5 -19.4375 46.5 C-19.4375 51.78 -19.4375 57.06 -19.4375 62.5 C-24.7175 62.5 -29.9975 62.5 -35.4375 62.5 C-35.53674314 55.95300668 -35.60914631 49.40645606 -35.65722656 42.85888672 C-35.67728046 40.63387418 -35.70453065 38.40891393 -35.73925781 36.18408203 C-35.78804934 32.97675635 -35.81053162 29.77013049 -35.828125 26.5625 C-35.84877014 25.57572266 -35.86941528 24.58894531 -35.89068604 23.57226562 C-35.8930561 16.19535594 -34.37923561 10.85697065 -29.47265625 5.2578125 C-28.82167969 4.71898437 -28.17070312 4.18015625 -27.5 3.625 C-26.85160156 3.07070312 -26.20320312 2.51640625 -25.53515625 1.9453125 C-18.47077988 -2.92213491 -7.84396301 -3.47595223 0 0 Z M-16.75 17.3125 C-20.24274711 21.84013514 -19.4375 24.27099027 -19.4375 30.5 C-14.1575 30.5 -8.8775 30.5 -3.4375 30.5 C-3.2732309 22.71430216 -3.2732309 22.71430216 -6.4375 16.5 C-10.23281479 14.60234261 -13.41071965 14.69522621 -16.75 17.3125 Z " fill="#28aa4a" transform="translate(195.4375,177.5)"/>
<path d="M0 0 C5.61 0 11.22 0 17 0 C17.2475 1.485 17.495 2.97 17.75 4.5 C18.74630242 9.56814711 20.49921533 13.49858759 23 18 C23.66 18 24.32 18 25 18 C28.34143501 11.98541697 29.8681574 6.79105559 31 0 C36.61 0 42.22 0 48 0 C48.63838034 11.01206082 45.89532501 19.24227372 39.07421875 27.9296875 C37.78671761 29.97677059 37.78671761 29.97677059 38.15234375 32.4609375 C39.0742332 35.22235751 40.27811969 37.31892848 41.875 39.75 C46.9194795 47.94727919 48.40592263 54.39316447 48 64 C42.39 64 36.78 64 31 64 C30.7525 62.515 30.505 61.03 30.25 59.5 C29.25369758 54.43185289 27.50078467 50.50141241 25 46 C24.34 46 23.68 46 23 46 C19.65856499 52.01458303 18.1318426 57.20894441 17 64 C11.39 64 5.78 64 0 64 C-0.63838034 52.98793918 2.10467499 44.75772628 8.92578125 36.0703125 C10.21328239 34.02322941 10.21328239 34.02322941 9.84765625 31.5390625 C8.9257668 28.77764249 7.72188031 26.68107152 6.125 24.25 C1.0805205 16.05272081 -0.40592263 9.60683553 0 0 Z " fill="#28aa4a" transform="translate(216,176)"/>
<path d="M0 0 C15.84 0 31.68 0 48 0 C48 5.28 48 10.56 48 16 C42.72 16 37.44 16 32 16 C32 31.84 32 47.68 32 64 C26.72 64 21.44 64 16 64 C16 48.16 16 32.32 16 16 C10.72 16 5.44 16 0 16 C0 10.72 0 5.44 0 0 Z " fill="#28aa4a" transform="translate(104,176)"/>
<path d="M0 0 C5.28 0 10.56 0 16 0 C16 5.28 16 10.56 16 16 C10.72 16 5.44 16 0 16 C0 10.72 0 5.44 0 0 Z " fill="#28aa4a" transform="translate(216,80)"/>
<path d="M0 0 C5.28 0 10.56 0 16 0 C16 5.28 16 10.56 16 16 C10.72 16 5.44 16 0 16 C0 10.72 0 5.44 0 0 Z " fill="#28aa4a" transform="translate(136,80)"/>
</svg>
