<?xml version="1.0" standalone="no"?>
<!DOCTYPE svg PUBLIC "-//W3C//DTD SVG 20010904//EN"
 "http://www.w3.org/TR/2001/REC-SVG-20010904/DTD/svg10.dtd">
<svg version="1.0" xmlns="http://www.w3.org/2000/svg"
 width="100" height="100" viewBox="0 0 512.000000 512.000000"
 preserveAspectRatio="xMidYMid meet">

<g transform="translate(0.000000,512.000000) scale(0.100000,-0.100000)"
fill="#28aa4a" stroke="none">
<path d="M2547 5030 c-58 -15 -135 -57 -183 -102 -41 -38 -114 -162 -114 -194
0 -11 -41 -14 -219 -14 -257 0 -256 1 -275 -95 l-12 -60 -493 -5 -493 -5 -19
-24 c-19 -23 -19 -72 -19 -2213 l0 -2189 25 -24 24 -25 1791 0 1791 0 24 25
25 24 0 2189 c0 2141 0 2190 -19 2213 l-19 24 -413 5 -413 5 -12 60 c-19 96
-18 95 -275 95 -178 0 -219 3 -219 14 0 7 -16 45 -35 83 -66 132 -188 212
-333 219 -42 2 -94 -1 -115 -6z m167 -162 c85 -25 166 -136 166 -227 0 -21 9
-41 25 -56 l24 -25 224 0 223 0 18 -92 c10 -51 20 -105 23 -120 l6 -28 -783 0
-782 0 5 28 c3 15 13 69 23 120 l18 92 223 0 224 0 24 25 c16 15 25 35 25 56
0 62 23 113 75 164 70 71 145 90 239 63z m-1004 -475 c-1 -5 -7 -37 -15 -73
-20 -90 -19 -107 10 -135 l24 -25 911 0 911 0 24 25 c29 28 30 45 10 135 -8
36 -14 68 -15 73 0 4 151 7 335 7 l335 0 0 -2080 0 -2080 -1680 0 -1680 0 0
2080 0 2080 415 0 c228 0 415 -3 415 -7z"/>
<path d="M1635 3910 c-145 -27 -271 -94 -381 -204 -90 -90 -143 -175 -182
-294 -22 -67 -26 -94 -25 -212 0 -119 3 -144 26 -215 39 -117 91 -199 188
-297 72 -72 101 -94 180 -132 210 -102 429 -102 635 -1 260 127 419 402 401
691 -12 180 -79 326 -212 459 -139 140 -284 203 -475 210 -58 2 -127 0 -155
-5z m231 -161 c98 -17 210 -78 288 -155 175 -176 214 -434 98 -659 -24 -48
-100 -145 -113 -145 -5 0 -17 17 -28 38 -35 68 -98 129 -173 167 -39 19 -81
35 -94 35 -39 0 -36 16 6 29 25 7 54 29 82 60 91 101 91 221 1 321 -95 106
-236 108 -338 5 -71 -70 -91 -145 -63 -239 16 -52 102 -141 146 -151 35 -7 34
-25 -1 -25 -72 0 -222 -112 -266 -199 -12 -22 -25 -41 -30 -41 -13 0 -89 97
-113 145 -115 224 -77 483 97 657 134 134 314 191 501 157z m-51 -414 c50 -49
15 -135 -55 -135 -41 0 -80 39 -80 80 0 41 39 80 80 80 19 0 40 -9 55 -25z
m26 -470 c81 -29 177 -151 138 -176 -85 -55 -353 -55 -438 0 -21 14 3 73 50
120 66 66 161 87 250 56z"/>
<path d="M2745 3815 l-25 -24 0 -231 0 -231 25 -24 24 -25 551 0 551 0 24 25
25 24 0 231 0 231 -25 24 -24 25 -551 0 -551 0 -24 -25z m1015 -255 l0 -120
-440 0 -440 0 0 120 0 120 440 0 440 0 0 -120z"/>
<path d="M2745 3095 l-25 -24 0 -231 0 -231 25 -24 24 -25 551 0 551 0 24 25
25 24 0 231 0 231 -25 24 -24 25 -551 0 -551 0 -24 -25z m1015 -255 l0 -120
-440 0 -440 0 0 120 0 120 440 0 440 0 0 -120z"/>
<path d="M1225 2215 c-16 -15 -25 -36 -25 -55 0 -19 9 -40 25 -55 l24 -25
1151 0 1151 0 24 25 c16 15 25 36 25 55 0 19 -9 40 -25 55 l-24 25 -1151 0
-1151 0 -24 -25z"/>
<path d="M1225 1735 c-16 -15 -25 -36 -25 -55 0 -19 9 -40 25 -55 l24 -25 791
0 791 0 24 25 c16 15 25 36 25 55 0 19 -9 40 -25 55 l-24 25 -791 0 -791 0
-24 -25z"/>
<path d="M3301 1665 c-110 -24 -226 -89 -311 -175 -250 -250 -252 -649 -5
-895 122 -121 256 -183 419 -192 292 -16 560 170 649 452 31 99 31 271 0 370
-101 318 -428 510 -752 440z m254 -160 c172 -45 305 -179 350 -352 65 -249
-94 -511 -350 -578 -250 -65 -513 94 -580 350 -89 342 238 669 580 580z"/>
<path d="M3516 1134 l-218 -146 -62 66 c-68 73 -94 81 -140 45 -20 -15 -26
-29 -26 -58 0 -31 11 -50 71 -121 87 -105 104 -120 137 -120 30 0 537 332 553
361 26 50 -13 119 -68 119 -19 0 -95 -45 -247 -146z"/>
</g>
</svg>
