<?xml version="1.0" encoding="UTF-8"?>
<svg version="1.1" xmlns="http://www.w3.org/2000/svg" width="512" height="512">
<path d="M0 0 C1.53116694 -0.00935994 1.53116694 -0.00935994 3.09326655 -0.01890898 C6.52428898 -0.034903 9.95460728 -0.02220921 13.38563538 -0.00964355 C15.84113989 -0.01506183 18.29664115 -0.02218283 20.75213623 -0.03088379 C26.73580749 -0.04725686 32.71920096 -0.04482291 38.70286148 -0.03323323 C43.56591736 -0.02420365 48.42891698 -0.02297283 53.29197884 -0.02732849 C53.98383357 -0.02794142 54.67568831 -0.02855436 55.38850834 -0.02918586 C56.79396356 -0.03046475 58.19941877 -0.03176161 59.60487396 -0.03307623 C72.78831649 -0.04448623 85.97164781 -0.03136221 99.1550721 -0.00987476 C110.46765933 0.00799268 121.78008237 0.00489591 133.09266663 -0.0135498 C146.22702554 -0.03495596 159.36128692 -0.04338339 172.49566084 -0.03110075 C173.89628286 -0.02982655 175.29690489 -0.02856906 176.69752693 -0.02732849 C177.38667099 -0.02671139 178.07581504 -0.02609429 178.78584225 -0.02545848 C183.64268225 -0.02200451 188.4994604 -0.027835 193.35629082 -0.0372467 C199.89393081 -0.04963689 206.43130846 -0.04081502 212.96893501 -0.01766968 C215.37115589 -0.0123719 217.77340282 -0.01391452 220.1756134 -0.02272034 C223.44954342 -0.0336168 226.72247204 -0.01998243 229.99633789 0 C230.95178228 -0.00892289 231.90722667 -0.01784577 232.89162391 -0.02703905 C237.04289884 0.0222608 239.43746731 0.13772035 243.06574345 2.28968048 C246.27505796 5.85649909 247.30706731 8.34341419 247.34013367 13.12701416 C247.35687889 14.51097633 247.35687889 14.51097633 247.3739624 15.92289734 C247.37612259 16.92774673 247.37828278 17.93259613 247.38050842 18.96789551 C247.39055405 20.0316188 247.40059967 21.0953421 247.41094971 22.19129944 C247.44184766 25.7082973 247.45883542 29.22521882 247.47572327 32.74230957 C247.49442957 35.18040629 247.51400257 37.6184965 247.53440857 40.05657959 C247.58579244 46.47463142 247.62538479 52.89270425 247.66255188 59.31085205 C247.70255225 65.85967227 247.75366269 72.40840464 247.80384827 78.95715332 C247.90068166 91.80735097 247.98544001 104.65759897 248.06166077 117.50793457 C249.96293311 114.18254557 251.86388584 110.85697397 253.76478577 107.53137207 C254.56360168 106.13422974 254.56360168 106.13422974 255.3785553 104.7088623 C258.19112523 99.78794171 260.99763419 94.86391319 263.78111267 89.9264679 C269.20041154 80.49489147 274.71194826 74.54575681 285.26478577 71.16418457 C293.79248542 69.1632718 301.60508114 70.38416788 309.19056702 74.72668457 C315.92770032 79.32890087 321.47060378 86.39354396 323.06166077 94.50793457 C324.32548216 108.07426735 318.71243396 117.58192225 312.18666077 129.13293457 C311.5205904 130.32181339 310.85482447 131.51086283 310.18934631 132.70007324 C305.27328563 141.46141106 300.21689929 150.1386178 295.12269592 158.79748535 C290.78853742 166.18917786 286.66480459 173.67774838 282.59999084 181.22009277 C278.33929832 189.08810116 273.8333914 196.79966873 269.29457092 204.50964355 C263.77788279 213.91500636 258.54784039 223.46589793 253.39515686 233.07458496 C252.06166077 235.50793457 252.06166077 235.50793457 250.00747681 238.44404602 C247.1916458 243.40632557 247.5274187 248.38988387 247.59510803 253.96350098 C247.59164871 255.66473869 247.59164871 255.66473869 247.58811951 257.40034485 C247.58549562 259.85461658 247.5919068 262.30891112 247.60637093 264.76314163 C247.62827683 268.64669265 247.62453418 272.52946568 247.6138916 276.41305542 C247.59223552 286.0540598 247.60913421 295.69489371 247.63539124 305.33587646 C247.65708101 313.49105349 247.65878259 321.64562978 247.6324749 329.80082321 C247.62811669 333.6283689 247.65278282 337.45505313 247.67800903 341.28250122 C247.67273952 343.6253905 247.66601791 345.96827712 247.65760803 348.31115723 C247.67251785 349.37621994 247.68742767 350.44128265 247.70278931 351.53862 C247.63302222 358.73937396 247.63302222 358.73937396 244.71191406 362.66867065 C242.06166077 364.50793457 242.06166077 364.50793457 239.06166077 365.13293457 C234.95458457 364.2772937 233.64866831 362.78779383 231.06166077 359.50793457 C230.56394159 356.52723906 230.3691881 354.11399405 230.40223694 351.13757324 C230.39175323 350.30778961 230.38126953 349.47800598 230.37046814 348.62307739 C230.3417503 345.89030414 230.34800563 343.15880024 230.35462952 340.42590332 C230.34151247 338.52731236 230.32620822 336.62873536 230.30880737 334.73017883 C230.26894524 329.74065799 230.25876613 324.75150211 230.254776 319.76184082 C230.24544688 314.66732707 230.20803469 309.57302796 230.17298889 304.4786377 C230.10840065 294.48841336 230.07517068 284.49834942 230.06166077 274.50793457 C220.80988345 290.67665356 220.80988345 290.67665356 211.62416077 306.88293457 C210.53172702 308.81783841 209.43927867 310.75273399 208.34681702 312.68762207 C207.80428284 313.64894043 207.26174866 314.61025879 206.70277405 315.60070801 C205.07202363 318.4895768 203.44013647 321.37779991 201.80775452 324.26574707 C201.27158508 325.21433594 200.73541565 326.1629248 200.18299866 327.14025879 C199.10568449 329.04571463 198.02804989 330.95098934 196.9500885 332.8560791 C194.15782399 337.79224558 191.3732552 342.73252912 188.60072327 347.67980957 C188.02902405 348.69752441 187.45732483 349.71523926 186.86830139 350.76379395 C185.78895548 352.68555618 184.71192746 354.60862314 183.63783264 356.5333252 C172.50306255 376.33328602 161.8277178 386.25258222 140.06166077 393.50793457 C133.20538491 394.1755869 129.40790829 393.22997823 124.03041077 388.85559082 C121.42274364 385.74605125 121.06578812 383.17329133 120.37416077 379.19543457 C120.14341858 377.92055176 119.91267639 376.64566895 119.67494202 375.33215332 C117.90342782 364.28557753 117.90342782 364.28557753 117.81166077 358.69543457 C117.77298889 357.2935791 117.77298889 357.2935791 117.73353577 355.86340332 C118.65246036 346.4663054 122.75838459 338.87361193 127.43666077 330.82043457 C128.05661926 329.73391602 128.67657776 328.64739746 129.31532288 327.5279541 C130.59875789 325.27929379 131.88612764 323.03287479 133.17738342 320.78869629 C135.48233763 316.77548372 137.75708995 312.74575608 140.02894592 308.71374512 C141.63156138 305.86980171 143.23850878 303.02834949 144.84681702 300.18762207 C148.08773933 294.46255104 151.32496887 288.73539807 154.56166077 283.00793457 C155.64497801 281.09125881 156.72831134 279.17459214 157.81166077 277.25793457 C158.34791077 276.30918457 158.88416077 275.36043457 159.43666077 274.38293457 C174.87416077 247.07043457 174.87416077 247.07043457 190.31166077 219.75793457 C190.84766907 218.8095874 191.38367737 217.86124023 191.93592834 216.88415527 C193.02161731 214.96337111 194.10739235 213.0426356 195.19325256 211.12194824 C197.86624499 206.39367004 200.53784164 201.66461545 203.20619202 196.93371582 C210.07796017 184.75532127 216.99464582 172.6033695 223.94569397 160.47009277 C224.92348816 158.76212524 224.92348816 158.76212524 225.92103577 157.01965332 C226.50336975 156.00346924 227.08570374 154.98728516 227.6856842 153.94030762 C229.74279454 150.30386506 230.19246435 148.37081581 230.21987915 144.18026733 C230.22966797 143.05002136 230.23945679 141.91977539 230.24954224 140.75527954 C230.2552977 139.50947113 230.26105316 138.26366272 230.26698303 136.98010254 C230.27688263 135.67283203 230.28678223 134.36556152 230.29698181 133.01867676 C230.32406107 129.42802029 230.34505424 125.83735063 230.3649838 122.24664831 C230.38682475 118.49632701 230.41422267 114.74604648 230.44104004 110.99575806 C230.49099254 103.89140391 230.53592186 96.78702717 230.5790624 89.68262875 C230.62841295 81.59564769 230.68333916 73.50870755 230.73874199 65.42176604 C230.85260129 48.78385991 230.95943171 32.14591631 231.06166077 15.50793457 C229.82329845 15.51162174 228.58493614 15.51530891 227.3090477 15.51910782 C197.92605245 15.60570173 168.54308613 15.6716778 139.15999494 15.71219589 C135.54502265 15.71719883 131.93005063 15.72237611 128.31507874 15.72766113 C127.23554536 15.729235 127.23554536 15.729235 126.13420323 15.73084065 C114.4744832 15.74825541 102.81484191 15.77979895 91.15516862 15.81654575 C79.19510297 15.85392547 67.23507861 15.87616412 55.27495694 15.88428855 C48.55549632 15.889289 41.83620001 15.90133581 35.1167984 15.9308548 C28.79674526 15.95793426 22.47694501 15.96639462 16.15683937 15.9603653 C13.83319794 15.96146888 11.50954835 15.96946686 9.18595695 15.98475647 C6.0209808 16.00456702 2.85696783 15.99990597 -0.30802917 15.98895264 C-1.23409635 16.000604 -2.16016352 16.01225537 -3.11429334 16.02425981 C-9.28790206 15.96624212 -9.28790206 15.96624212 -12.50898361 13.69662094 C-14.61560343 10.4708806 -14.47600915 8.27162398 -13.93833923 4.50793457 C-10.50668754 -0.81439439 -5.72017437 -0.05329623 0 0 Z M282.09339905 91.75769043 C280.04733733 94.52732337 278.34979502 97.31483472 276.67884827 100.32434082 C276.0691217 101.41811035 275.45939514 102.51187988 274.83119202 103.63879395 C274.2059967 104.77123535 273.58080139 105.90367676 272.93666077 107.07043457 C272.30373108 108.20674316 271.67080139 109.34305176 271.01869202 110.51379395 C267.42708447 116.95117224 267.42708447 116.95117224 264.06166077 123.50793457 C267.66364213 125.49109801 271.26860707 127.46877446 274.87416077 129.44543457 C275.89832092 130.00939941 276.92248108 130.57336426 277.97767639 131.15441895 C278.96058655 131.69260254 279.9434967 132.23078613 280.95619202 132.78527832 C281.86216125 133.28277588 282.76813049 133.78027344 283.70155334 134.29284668 C286.11053156 135.60927894 286.11053156 135.60927894 289.06166077 136.50793457 C290.98466957 133.09540095 292.90512953 129.68144636 294.82337952 126.26623535 C295.79212941 124.54268378 296.76281292 122.82021948 297.73353577 121.09777832 C299.52383899 117.9088007 301.29911365 114.7123275 303.06166077 111.50793457 C303.5050177 110.70436523 303.94837463 109.9007959 304.40516663 109.07287598 C306.83762346 104.47865303 307.59870614 101.65830602 306.73744202 96.62121582 C305.31777866 92.18169051 302.70392987 89.43434278 298.62416077 87.13293457 C292.00636849 85.51883889 286.71304129 86.47736256 282.09339905 91.75769043 Z M256.06166077 137.50793457 C254.54196968 139.79061105 253.16507773 142.06499083 251.81166077 144.44543457 C251.38417542 145.18455078 250.95669006 145.92366699 250.51625061 146.68518066 C244.75788011 156.68869909 239.1381091 166.77443512 233.54701233 176.87219238 C232.27185524 179.13494647 230.93945919 181.34713363 229.58509827 183.56262207 C228.8309967 185.02055176 228.8309967 185.02055176 228.06166077 186.50793457 C229.76049534 191.60443829 234.92380086 193.21648188 239.43666077 195.75793457 C240.40861389 196.32512207 241.38056702 196.89230957 242.38197327 197.47668457 C243.31525452 198.00777832 244.24853577 198.53887207 245.21009827 199.08605957 C246.06780823 199.57493652 246.92551819 200.06381348 247.80921936 200.56750488 C250.16208111 201.83964221 250.16208111 201.83964221 253.06166077 200.50793457 C254.69173631 198.17698425 254.69173631 198.17698425 256.21400452 195.24230957 C256.82050842 194.13371582 257.42701233 193.02512207 258.05189514 191.88293457 C258.70123571 190.67473666 259.35031896 189.46640041 259.99916077 188.25793457 C261.33811957 185.79248747 262.68252768 183.33002384 264.02650452 180.86730957 C264.36354401 180.24739136 264.7005835 179.62747314 265.0478363 178.98876953 C267.22054022 175.00407761 269.45824359 171.06475946 271.75306702 167.14855957 C272.31324524 166.1911084 272.87342346 165.23365723 273.45057678 164.24719238 C274.5073384 162.45042539 275.57139807 160.65792658 276.64344788 158.87023926 C277.34546326 157.66996094 277.34546326 157.66996094 278.06166077 156.44543457 C278.68041077 155.40709473 278.68041077 155.40709473 279.31166077 154.34777832 C280.36532798 152.33402794 280.36532798 152.33402794 279.06166077 149.50793457 C277.00485504 147.97711553 277.00485504 147.97711553 274.44056702 146.58996582 C273.50535217 146.05822754 272.57013733 145.52648926 271.60658264 144.9786377 C270.62238342 144.43143066 269.6381842 143.88422363 268.62416077 143.32043457 C267.64382874 142.76162598 266.6634967 142.20281738 265.65345764 141.6270752 C261.11853067 138.70439606 261.11853067 138.70439606 256.06166077 137.50793457 Z M219.06166077 202.50793457 C217.63664004 204.44425839 217.63664004 204.44425839 216.22572327 206.98449707 C215.66240295 207.95387207 215.09908264 208.92324707 214.51869202 209.92199707 C213.61183655 211.51141113 213.61183655 211.51141113 212.68666077 213.13293457 C212.05888733 214.22090332 211.43111389 215.30887207 210.78431702 216.42980957 C206.26895926 224.29291741 201.90554752 232.23241515 197.60316467 240.21350098 C193.34015686 248.08789144 188.83043665 255.80501724 184.28797913 263.52062988 C179.74246499 271.26973921 175.39732629 279.1130306 171.13490295 287.02087402 C167.96167514 292.90045523 164.67147615 298.6710205 161.17103577 304.36340332 C159.8319273 306.54961821 159.8319273 306.54961821 160.06166077 309.50793457 C167.65166077 313.79793457 175.24166077 318.08793457 183.06166077 322.50793457 C185.73550076 319.16563458 187.66216876 316.68805702 189.58509827 313.05090332 C190.04142639 312.19818848 190.49775452 311.34547363 190.96791077 310.46691895 C191.45259827 309.5523291 191.93728577 308.63773926 192.43666077 307.69543457 C196.81979057 299.53430856 201.35702182 291.48788101 206.06166077 283.50793457 C211.05096647 275.03402359 215.84529291 266.48111156 220.50721741 257.82336426 C224.90146704 249.70436727 229.54179616 241.73841289 234.25502014 233.80090332 C237.78878161 227.81942582 241.04693447 221.76764915 244.06166077 215.50793457 C240.27391383 213.33436013 236.48084048 211.17025737 232.68666077 209.00793457 C231.60642639 208.38789551 230.52619202 207.76785645 229.41322327 207.12902832 C228.38197327 206.54250488 227.35072327 205.95598145 226.28822327 205.35168457 C225.33512268 204.80705566 224.38202209 204.26242676 223.40003967 203.70129395 C221.20230356 202.35641334 221.20230356 202.35641334 219.06166077 202.50793457 Z M151.06166077 322.50793457 C149.11815021 325.93754632 147.17946763 329.36983868 145.24501038 332.80456543 C144.26645266 334.53977208 143.28420629 336.27289688 142.30189514 338.00598145 C134.16785237 352.46181912 133.22686961 360.1319535 136.06166077 376.50793457 C140.25704186 375.81925881 143.99426494 374.52843158 147.93666077 372.94543457 C149.69623108 372.26287598 149.69623108 372.26287598 151.49134827 371.56652832 C160.08111517 367.25111763 164.55211336 357.74709216 168.99916077 349.69543457 C169.5876178 348.65967285 170.17607483 347.62391113 170.78236389 346.5567627 C173.98186948 341.33863884 173.98186948 341.33863884 175.06166077 335.50793457 C171.43697054 333.52820018 167.81185639 331.54924333 164.18666077 329.57043457 C163.1541217 329.00646973 162.12158264 328.44250488 161.05775452 327.8614502 C160.0716217 327.3232666 159.08548889 326.78508301 158.06947327 326.23059082 C157.15826721 325.73309326 156.24706116 325.2355957 155.3082428 324.72302246 C153.9039561 323.963499 152.48963753 323.22192295 151.06166077 322.50793457 Z " fill="#28aa4a" transform="translate(150.93833923339844,-0.5079345703125)"/>
<path d="M0 0 C0.658862 -0.00511093 1.317724 -0.01022186 1.99655151 -0.01548767 C4.17357474 -0.0293835 6.35028146 -0.02842719 8.52734375 -0.02612305 C10.04044716 -0.03000958 11.55354949 -0.03434417 13.06665039 -0.03910828 C16.23750344 -0.04657014 19.40824513 -0.04627919 22.57910156 -0.04101562 C26.64477409 -0.03521653 30.70999171 -0.05216235 34.77558899 -0.0753603 C37.89997019 -0.09008228 41.02424139 -0.09097154 44.14865112 -0.08785057 C45.64778546 -0.08836441 47.14692586 -0.09361399 48.64602661 -0.10366249 C50.74088242 -0.1159824 52.83484627 -0.10926348 54.9296875 -0.09765625 C56.12198975 -0.09828568 57.31429199 -0.0989151 58.54272461 -0.0995636 C61.46484375 0.2746582 61.46484375 0.2746582 63.31860352 1.61824036 C65.08155015 4.16585314 65.34184406 6.19966606 65.46484375 9.2746582 C64.32704503 11.60197377 63.29643661 13.44306534 61.46484375 15.2746582 C41.99484375 15.2746582 22.52484375 15.2746582 2.46484375 15.2746582 C2.46484375 174.3346582 2.46484375 333.3946582 2.46484375 497.2746582 C110.70484375 497.2746582 218.94484375 497.2746582 330.46484375 497.2746582 C330.46484375 461.9646582 330.46484375 426.6546582 330.46484375 390.2746582 C335.36067708 385.37882487 335.36067708 385.37882487 340.46484375 385.2746582 C345.03006114 387.40509299 345.03006114 387.40509299 346.46484375 390.2746582 C346.56547561 391.78143694 346.60424925 393.2925579 346.61201477 394.80267334 C346.61917007 395.75596527 346.62632538 396.7092572 346.63369751 397.69143677 C346.63638641 398.74080414 346.63907532 399.79017151 346.6418457 400.87133789 C346.6484169 401.97389923 346.6549881 403.07646057 346.66175842 404.21243286 C346.68152503 407.87380027 346.69316157 411.5351266 346.703125 415.1965332 C346.70720053 416.44492226 346.71127605 417.69331131 346.71547508 418.97953033 C346.734196 424.90515423 346.74875831 430.83076502 346.75708705 436.75641131 C346.76685431 443.59245873 346.79315915 450.4281819 346.83358794 457.2641151 C346.86741546 463.18757776 346.87923451 469.1109612 346.88329124 475.03452301 C346.88816789 477.55272876 346.89981232 480.07093079 346.91832924 482.58907318 C346.94263184 486.1131124 346.94177136 489.63630332 346.93481445 493.16040039 C346.95402954 494.72230606 346.95402954 494.72230606 346.97363281 496.31576538 C346.93066808 502.2840304 346.48121822 505.75164721 342.46484375 510.2746582 C339.02048636 512.57089646 337.76115882 512.52647166 333.70605659 512.53192711 C332.49791207 512.538376 331.28976755 512.54482489 330.04501259 512.55146921 C328.69741724 512.54852667 327.34982229 512.54539122 326.00222778 512.54208374 C324.5760187 512.54581827 323.14981166 512.55041899 321.7236079 512.55581439 C317.79507113 512.56808431 313.86661925 512.56777924 309.93806767 512.56542563 C305.70484294 512.56501847 301.4716458 512.57604695 297.23843384 512.58554077 C288.94128223 512.60217354 280.64415903 512.60765134 272.34699215 512.60876553 C265.60463407 512.60971491 258.86228538 512.61381971 252.11993027 512.62016678 C233.01619343 512.63778529 213.91247909 512.64700468 194.80873407 512.64550583 C193.26299811 512.64538596 193.26299811 512.64538596 191.68603516 512.64526367 C190.6542905 512.64518191 189.62254585 512.64510015 188.5595362 512.64501591 C171.83416213 512.6442028 155.10887807 512.66334506 138.38353004 512.69154041 C121.22190616 512.72024361 104.06032621 512.73408212 86.89867771 512.73235285 C77.25894234 512.73168807 67.61930134 512.73721894 57.97958755 512.75870895 C49.77270421 512.77688705 41.565958 512.78129592 33.35906328 512.76769011 C29.17007579 512.76114337 24.98135164 512.76110434 20.79238892 512.77839661 C16.95924244 512.7940576 13.12656963 512.79133586 9.2934352 512.77382834 C7.90515231 512.77074296 6.51683468 512.77444844 5.12859274 512.78554849 C3.2442137 512.79962023 1.35969064 512.78672022 -0.52468681 512.77243614 C-1.57222787 512.77287088 -2.61976892 512.77330561 -3.69905365 512.77375352 C-7.92598911 512.02990043 -10.29797838 509.93146816 -12.83157694 506.53851116 C-13.90752523 503.07651522 -13.8112565 499.64247055 -13.79242516 496.05301094 C-13.79593123 495.21275979 -13.7994373 494.37250865 -13.80304962 493.50679535 C-13.81240284 490.67244417 -13.80743023 487.83829671 -13.80258179 485.00393677 C-13.80631607 482.95885801 -13.81091669 480.91378068 -13.81631243 478.86870563 C-13.82858523 473.23412983 -13.82827694 467.59961322 -13.82592368 461.96502709 C-13.8255166 455.89402357 -13.83654425 449.8230393 -13.84603882 443.75204468 C-13.86267299 431.85252798 -13.86817532 419.95303043 -13.86926357 408.05350508 C-13.87018206 398.3845022 -13.87429563 388.71550576 -13.88066483 379.04650497 C-13.88245986 376.26499681 -13.88423949 373.48348864 -13.88601458 370.70198047 C-13.88645668 370.01052343 -13.88689877 369.31906638 -13.88735427 368.60665609 C-13.89966538 349.15307044 -13.90755511 329.69948701 -13.90666771 310.24589729 C-13.90663655 309.51221398 -13.90660539 308.77853066 -13.90657329 308.02261452 C-13.90640707 304.30385716 -13.90620899 300.5850998 -13.90600388 296.86634244 C-13.90596399 296.12776091 -13.9059241 295.38917938 -13.905883 294.62821659 C-13.90580212 293.13462447 -13.90571853 291.64103235 -13.90563221 290.14744023 C-13.90440649 266.90547876 -13.91942273 243.66357563 -13.94677734 220.42163086 C-13.97748484 194.32003206 -13.99471066 168.2184716 -13.9928509 142.11685359 C-13.99270163 139.33471672 -13.99260422 136.55257984 -13.99254227 133.77044296 C-13.99251896 133.08539086 -13.99249565 132.40033876 -13.99247163 131.69452751 C-13.99241004 120.66065084 -14.00519264 109.62682474 -14.0224068 98.59296311 C-14.03934362 87.50775798 -14.04100865 76.42261216 -14.02818815 65.33739723 C-14.02163825 59.32961866 -14.02161412 53.32202373 -14.03889465 47.31426239 C-14.05454106 41.81823901 -14.0518484 36.32254618 -14.03432639 30.82653128 C-14.03123784 28.83463119 -14.03495806 26.84270695 -14.04604654 24.85083534 C-14.0600927 22.14948205 -14.04964065 19.44930027 -14.03293419 16.74798775 C-14.04287055 15.96913788 -14.05280691 15.19028801 -14.06304437 14.38783664 C-13.99499527 9.20672019 -12.83682006 6.24852124 -9.53515625 2.2746582 C-5.93160511 -0.12770922 -4.28586073 0.01656177 0 0 Z " fill="#28aa4a" transform="translate(51.53515625,-0.274658203125)"/>
<path d="M0 0 C1.49032252 -0.00967334 1.49032252 -0.00967334 3.01075256 -0.0195421 C4.10003779 -0.01644489 5.18932302 -0.01334769 6.3116169 -0.01015663 C7.47053007 -0.01468774 8.62944325 -0.01921886 9.823475 -0.02388728 C13.04094374 -0.03436861 16.25827217 -0.03585522 19.47575259 -0.03349853 C22.94551178 -0.03309071 26.41523752 -0.04412615 29.88498116 -0.05361366 C36.6830445 -0.07023199 43.48107316 -0.07572358 50.27915512 -0.07683842 C55.80437613 -0.07778847 61.32958569 -0.08189661 66.85480309 -0.08823967 C82.51664039 -0.10585411 98.17845028 -0.11507819 113.84029756 -0.11357872 C114.68476636 -0.11349881 115.52923515 -0.1134189 116.3992939 -0.11333656 C117.24479263 -0.1132548 118.09029135 -0.11317304 118.96141125 -0.1130888 C132.66618687 -0.11227577 146.37085261 -0.13141714 160.07559644 -0.1596133 C174.14441428 -0.18833033 188.21317851 -0.20215425 202.28202641 -0.20042574 C210.18188944 -0.19976145 218.08163727 -0.20527105 225.98147392 -0.22678185 C232.70720062 -0.24497812 239.43275991 -0.24935384 246.15850054 -0.235763 C249.59019042 -0.22922546 253.02155899 -0.22914392 256.45321846 -0.2464695 C260.17339712 -0.26184046 263.89272684 -0.25266654 267.61288643 -0.23720741 C268.69771022 -0.24749454 269.78253401 -0.25778167 270.90023124 -0.26838052 C276.93932447 -0.21276666 280.49865584 0.20567643 285.08923531 4.25726891 C287.20345156 7.25963323 287.34534436 9.78286425 287.36389351 13.40546227 C287.37342552 14.43010078 287.38295753 15.4547393 287.3927784 16.51042747 C287.39141129 18.16208664 287.39141129 18.16208664 287.39001656 19.84711266 C287.39430168 20.98378883 287.39858681 22.12046501 287.40300179 23.29158592 C287.40874322 25.6947723 287.40924673 28.09797606 287.40490913 30.50116539 C287.40175029 34.17732972 287.42520786 37.85268851 287.45056343 41.52875328 C287.45283654 43.86403872 287.45353987 46.19932633 287.45251656 48.53461266 C287.4617263 49.63369453 287.47093605 50.73277641 287.48042488 51.8651638 C287.4710817 53.40684982 287.4710817 53.40684982 287.46154976 54.97968102 C287.46217918 55.88028755 287.46280861 56.78089409 287.46345711 57.70879173 C286.88399201 61.65499038 285.23310823 64.22506978 282.29018962 66.8806777 C279.67568169 68.51592683 278.21127575 68.63480712 275.14723587 68.64037895 C274.14672073 68.64943559 273.1462056 68.65849223 272.11537182 68.66782331 C270.46977113 68.65983143 270.46977113 68.65983143 268.79092598 68.65167809 C267.04030556 68.66081474 267.04030556 68.66081474 265.25431907 68.67013597 C262.01398792 68.68392012 258.7739778 68.68421262 255.53363204 68.67876101 C252.03931859 68.67609384 248.54507034 68.69061672 245.05078316 68.70285606 C238.20457954 68.72392591 231.35846059 68.72845002 224.51222838 68.72666818 C218.94790962 68.72536128 213.3836173 68.729161 207.81930351 68.73659325 C206.21736173 68.73869241 204.61541995 68.74079001 203.01347816 68.74288607 C201.81752829 68.74445136 201.81752829 68.74445136 200.59741782 68.74604827 C185.51307873 68.76495706 170.42878826 68.76389855 155.34444223 68.75707895 C141.5426396 68.75150354 127.7410226 68.7723276 113.93926336 68.80543941 C99.77099626 68.83916693 85.60281811 68.85434589 71.43451011 68.84972239 C63.47873431 68.84747667 55.52313007 68.85273562 47.56738853 68.87761497 C40.79405094 68.8986161 34.02097895 68.90223216 27.24763049 68.88331538 C23.79157672 68.87414978 20.33601831 68.87303869 16.88000298 68.89367104 C13.13338323 68.91176697 9.38809048 68.89918367 5.64151192 68.87872887 C4.00260339 68.89750564 4.00260339 68.89750564 2.3305856 68.91666174 C-5.87434709 68.82035165 -5.87434709 68.82035165 -9.57028198 65.90592766 C-12.72942574 62.33081312 -13.03735661 59.84213098 -13.08776665 55.23847008 C-13.10060188 54.21698372 -13.11343712 53.19549736 -13.1266613 52.14305687 C-13.13404823 51.03992653 -13.14143517 49.93679619 -13.14904594 48.80023766 C-13.15711769 47.6645182 -13.16518944 46.52879875 -13.17350578 45.35866356 C-13.18734262 42.95370573 -13.19806656 40.54872829 -13.20593071 38.14374352 C-13.22314825 34.46961778 -13.26704008 30.79639068 -13.31115532 27.12250328 C-13.32128193 24.78592135 -13.32979813 22.44933178 -13.33654594 20.11273766 C-13.35405403 19.01568001 -13.37156212 17.91862236 -13.38960075 16.78832054 C-13.37221248 10.6608542 -13.17303765 6.82750009 -8.91076469 2.25726891 C-5.8615696 0.37166355 -3.55935009 0.00584483 0 0 Z M3.08923531 16.25726891 C3.08923531 28.46726891 3.08923531 40.67726891 3.08923531 53.25726891 C91.52923531 53.25726891 179.96923531 53.25726891 271.08923531 53.25726891 C271.08923531 41.04726891 271.08923531 28.83726891 271.08923531 16.25726891 C182.64923531 16.25726891 94.20923531 16.25726891 3.08923531 16.25726891 Z " fill="#28aa4a" transform="translate(80.91076469421387,33.74273109436035)"/>
<path d="M0 0 C1.21204102 -0.00525696 2.42408203 -0.01051392 3.67285156 -0.01593018 C6.98490865 -0.02684814 10.29640125 -0.02432269 13.60842633 -0.01479292 C17.08009913 -0.00717693 20.55174846 -0.01424714 24.02342224 -0.01895142 C29.85143343 -0.02440262 35.67933039 -0.01723336 41.50732422 -0.00292969 C48.23982022 0.01340336 54.97204374 0.00810117 61.70453316 -0.0084089 C67.49239383 -0.02203282 73.2801726 -0.02393926 79.06804413 -0.0160929 C82.52168648 -0.01142231 85.97520084 -0.01077466 89.42883492 -0.02070236 C93.27818482 -0.03099565 97.1272306 -0.01671979 100.9765625 0 C102.688722 -0.00910904 102.688722 -0.00910904 104.43547058 -0.0184021 C105.4854422 -0.00994263 106.53541382 -0.00148315 107.61720276 0.00723267 C108.52659387 0.00836374 109.43598497 0.00949482 110.37293339 0.01066017 C114.70667546 0.6521001 118.14146394 3.04963954 120.92358398 6.38818359 C121.90312146 9.32679602 122.06105762 11.26705233 122.0847168 14.33105469 C122.09432434 15.33574799 122.10393188 16.34044128 122.11383057 17.37557983 C122.12020538 19.00217026 122.12020538 19.00217026 122.12670898 20.66162109 C122.13240906 21.77751617 122.13810913 22.89341125 122.14398193 24.04312134 C122.15343232 26.40520275 122.15996607 28.76729735 122.16381836 31.12939453 C122.17352687 34.7419331 122.20455181 38.3539035 122.23608398 41.96630859 C122.2426138 44.26057605 122.24786435 46.55484757 122.25170898 48.84912109 C122.26405579 49.92946625 122.27640259 51.0098114 122.28912354 52.12289429 C122.26140619 61.46019867 122.26140619 61.46019867 118.92358398 65.38818359 C115.08771946 68.74456505 111.90691658 69.51213472 106.88894653 69.52862549 C105.32856659 69.5371907 105.32856659 69.5371907 103.73666382 69.54592896 C102.02538803 69.54760574 102.02538803 69.54760574 100.27954102 69.54931641 C98.47676697 69.55676376 98.47676697 69.55676376 96.63757324 69.56436157 C93.33998343 69.5764701 90.04245704 69.58392819 86.74485254 69.58837223 C84.68425759 69.59130452 82.62366818 69.59540961 80.56307602 69.5998764 C74.11473146 69.61354778 67.66639959 69.62321644 61.21804154 69.62707829 C53.77645501 69.63155962 46.33505212 69.6491123 38.89352143 69.67807889 C33.13971109 69.69969797 27.38595241 69.70978268 21.63210189 69.71111941 C18.19627374 69.7121672 14.76061828 69.71806932 11.32483292 69.73593903 C7.49196703 69.75548658 3.65933058 69.75112982 -0.17358398 69.74462891 C-1.87878708 69.75845108 -1.87878708 69.75845108 -3.61843872 69.77255249 C-4.66433167 69.76698334 -5.71022461 69.76141418 -6.78781128 69.75567627 C-8.14668111 69.75787611 -8.14668111 69.75787611 -9.53300285 69.76012039 C-13.86416315 69.12675185 -17.29737744 66.72302989 -20.07641602 63.38818359 C-21.05450703 60.45391054 -21.21384829 58.52007157 -21.23754883 55.46118164 C-21.24715637 54.45971603 -21.25676392 53.45825043 -21.2666626 52.42643738 C-21.27091248 51.34518082 -21.27516235 50.26392426 -21.27954102 49.14990234 C-21.28524109 48.03637894 -21.29094116 46.92285553 -21.29681396 45.77558899 C-21.30626511 43.41770376 -21.3127984 41.05980532 -21.31665039 38.7019043 C-21.32634959 35.10035051 -21.35737001 31.49936889 -21.38891602 27.89794922 C-21.3954468 25.60693698 -21.40069697 23.31592066 -21.40454102 21.02490234 C-21.41688782 19.94971848 -21.42923462 18.87453461 -21.44195557 17.76676941 C-21.41240837 7.81377534 -21.41240837 7.81377534 -18.07641602 3.38818359 C-12.41352632 -0.51998211 -6.61148776 -0.03523696 0 0 Z M-5.07641602 16.38818359 C-5.07641602 28.59818359 -5.07641602 40.80818359 -5.07641602 53.38818359 C31.55358398 53.38818359 68.18358398 53.38818359 105.92358398 53.38818359 C105.92358398 41.17818359 105.92358398 28.96818359 105.92358398 16.38818359 C69.29358398 16.38818359 32.66358398 16.38818359 -5.07641602 16.38818359 Z " fill="#28aa4a" transform="translate(89.076416015625,404.61181640625)"/>
<path d="M0 0 C0.98969788 -0.00708481 1.97939575 -0.01416962 2.99908447 -0.02146912 C4.07866425 -0.0189917 5.15824402 -0.01651428 6.27053833 -0.01396179 C7.41240601 -0.01907272 8.55427368 -0.02418365 9.73074341 -0.02944946 C13.51115132 -0.04336679 17.29137735 -0.04238696 21.07180786 -0.04008484 C23.69730701 -0.04397076 26.32280552 -0.04830522 28.94830322 -0.05307007 C34.45449438 -0.0612823 39.96063423 -0.06037577 45.46682739 -0.05497742 C51.82435058 -0.04894005 58.18165232 -0.06124314 64.53913772 -0.08254749 C70.66232798 -0.10230962 76.78541493 -0.10533453 82.90863419 -0.10181236 C85.51055547 -0.10232599 88.11248026 -0.10757151 90.71438217 -0.11762428 C94.35306615 -0.1299563 97.99123759 -0.12321566 101.62991333 -0.11161804 C102.70544464 -0.11926178 103.78097595 -0.12690552 104.88909912 -0.13478088 C110.34934416 -0.09630161 114.409423 0.0873922 119.07962036 3.26069641 C123.05357995 8.55458953 122.51405833 14.49033394 122.47805786 20.82710266 C122.48236313 22.49457802 122.48236313 22.49457802 122.48675537 24.19573975 C122.48879223 26.53990693 122.48328892 28.88409126 122.47073364 31.22822571 C122.45466021 34.81430546 122.47060384 38.39926073 122.48977661 41.98530579 C122.48779441 44.26590723 122.48395122 46.54650797 122.47805786 48.82710266 C122.48413055 49.89803665 122.49020325 50.96897064 122.49645996 52.07235718 C122.40914348 61.31800051 122.40914348 61.31800051 119.07962036 65.26069641 C115.35269892 68.52175267 112.24099571 69.38393683 107.35542297 69.40113831 C106.38392807 69.40684845 105.41243317 69.41255859 104.41149902 69.41844177 C102.81478867 69.42011856 102.81478867 69.42011856 101.18582153 69.42182922 C99.50249977 69.42927658 99.50249977 69.42927658 97.78517151 69.43687439 C94.06430452 69.45150648 90.34348017 69.45829976 86.62258911 69.46382141 C84.0405019 69.46957196 81.4584147 69.4753297 78.87632751 69.48109436 C74.1511151 69.49026304 69.42591977 69.49656216 64.70069999 69.49959111 C57.75209215 69.50407007 50.80368121 69.52161156 43.85513324 69.55059171 C37.83180271 69.57483864 31.80856512 69.58253668 25.78518105 69.58426666 C23.22512045 69.58729527 20.66506073 69.59533077 18.10503197 69.60845184 C14.52373701 69.62549704 10.9429218 69.6236355 7.36160278 69.61714172 C6.3032019 69.62635651 5.24480103 69.63557129 4.15432739 69.64506531 C-2.27782496 69.60851091 -7.00239545 69.17675493 -11.77012634 64.41217041 C-13.20510376 61.72813845 -13.30720435 59.8761964 -13.32443237 56.83711243 C-13.34345863 55.21006126 -13.34345863 55.21006126 -13.36286926 53.55014038 C-13.35993362 52.38341293 -13.35699799 51.21668549 -13.35397339 50.01460266 C-13.35921524 48.81133835 -13.36445709 47.60807404 -13.36985779 46.36834717 C-13.37628072 43.82392651 -13.37493753 41.27947617 -13.36642456 38.73506165 C-13.35791935 34.84137586 -13.38666763 30.94915893 -13.41842651 27.05561829 C-13.4200387 24.58361352 -13.41946066 22.11160615 -13.41647339 19.63960266 C-13.42770737 18.47489944 -13.43894135 17.31019623 -13.45051575 16.11019897 C-13.38122913 8.07544293 -13.38122913 8.07544293 -11.13937378 4.11201477 C-7.47060433 1.05114133 -4.7804192 0.01142851 0 0 Z M3.07962036 16.26069641 C3.07962036 28.47069641 3.07962036 40.68069641 3.07962036 53.26069641 C37.06962036 53.26069641 71.05962036 53.26069641 106.07962036 53.26069641 C106.07962036 41.05069641 106.07962036 28.84069641 106.07962036 16.26069641 C72.08962036 16.26069641 38.09962036 16.26069641 3.07962036 16.26069641 Z " fill="#28aa4a" transform="translate(245.92037963867188,404.7393035888672)"/>
<path d="M0 0 C1.23820952 -0.00807831 1.23820952 -0.00807831 2.50143337 -0.01631981 C5.27137027 -0.03064359 8.04083226 -0.02348485 10.81079102 -0.01637268 C12.79501735 -0.0220739 14.7792404 -0.02903719 16.76345825 -0.03717041 C22.1559271 -0.05514325 27.54823359 -0.05392581 32.94072342 -0.04822803 C37.43900321 -0.04514249 41.93725153 -0.05122145 46.43552685 -0.05726677 C57.0446909 -0.07132361 67.65377445 -0.06974073 78.26293945 -0.05836487 C89.21706562 -0.04687886 100.17094709 -0.06096488 111.12504101 -0.08776134 C120.52300081 -0.10989247 129.92088366 -0.11656167 139.31886768 -0.11068493 C144.9349586 -0.10730839 150.5508926 -0.10977676 156.16696167 -0.12693596 C161.44638334 -0.14236206 166.7254414 -0.1384978 172.00484848 -0.11963081 C173.94468998 -0.11593307 175.88455816 -0.11908771 177.82437515 -0.1295166 C180.46813866 -0.14264722 183.11068425 -0.13125019 185.75439453 -0.11352539 C186.9117821 -0.1279329 186.9117821 -0.1279329 188.09255123 -0.14263147 C191.55469698 -0.09471661 193.52746937 0.13210608 196.35752869 2.20025539 C198.5689239 5.38335761 198.35026029 7.60317585 197.87719727 11.38768005 C196.11704596 14.57271575 195.3782881 15.22064977 191.87719727 16.38768005 C189.23885301 16.48560242 186.62699245 16.52674906 183.98854065 16.52139282 C183.17617272 16.52365838 182.36380479 16.52592394 181.52681965 16.52825814 C178.79537196 16.53460564 176.06397379 16.5337683 173.33251953 16.53294373 C171.37800024 16.53593473 169.42348154 16.53933712 167.46896362 16.54312134 C162.15292338 16.55197101 156.83689922 16.55429984 151.52085233 16.55493712 C147.08725149 16.55588545 142.65365443 16.55956281 138.22005504 16.56310922 C127.76291237 16.57125727 117.3057783 16.57369311 106.84863281 16.57298279 C96.05080922 16.57238173 85.25303553 16.58293835 74.45522457 16.59872645 C65.19318009 16.61178791 55.93115195 16.61716728 46.66909832 16.61652738 C41.13351783 16.616272 35.59798169 16.61914503 30.06241035 16.62970543 C24.85779062 16.6393631 19.65325785 16.63948165 14.4486351 16.6321888 C12.53620591 16.63114008 10.62377138 16.63352275 8.71135139 16.63954926 C6.10507677 16.64723166 3.49910531 16.64264938 0.89283752 16.63491821 C-0.24806395 16.64263356 -0.24806395 16.64263356 -1.41201395 16.65050477 C-5.1253182 16.62608537 -8.01103763 16.53300555 -11.12280273 14.38768005 C-13.20439293 11.7113498 -13.11867864 10.27014338 -12.99780273 6.82518005 C-12.12280273 3.38768005 -12.12280273 3.38768005 -10.57579041 1.69706631 C-7.10616572 -0.15499309 -3.83712805 -0.02988798 0 0 Z " fill="#28aa4a" transform="translate(103.122802734375,179.61231994628906)"/>
<path d="M0 0 C1.22673935 -0.00852997 2.4534787 -0.01705994 3.71739197 -0.02584839 C5.07392896 -0.02514939 6.43046586 -0.02422635 7.78700256 -0.02310181 C9.2178889 -0.02908718 10.64877201 -0.03589275 12.07965088 -0.04345703 C15.96394065 -0.06112183 19.84814231 -0.06581256 23.73246837 -0.0670886 C26.97556061 -0.0689884 30.21863236 -0.07634672 33.46171671 -0.08343279 C41.11279913 -0.0997156 48.76383449 -0.10460179 56.41493225 -0.10317993 C64.30733966 -0.10197799 72.19947383 -0.12309048 80.09181207 -0.15466726 C86.86899793 -0.18081606 93.64609445 -0.19154784 100.42333037 -0.19026911 C104.47062096 -0.18975913 108.51766864 -0.1954621 112.56490898 -0.21662521 C116.37106793 -0.2359847 120.17675164 -0.23614819 123.98292732 -0.22159195 C125.37892475 -0.21949998 126.77495175 -0.22422795 128.17089844 -0.23631287 C130.07814638 -0.25175351 131.98555622 -0.24006358 133.89282227 -0.22705078 C135.49309721 -0.22868508 135.49309721 -0.22868508 137.12570095 -0.2303524 C140.72692198 0.39117424 142.41315689 1.74639585 145.00990295 4.26742554 C145.6388092 6.26742554 145.6388092 6.26742554 145.57240295 8.26742554 C145.57369202 8.92742554 145.57498108 9.58742554 145.5763092 10.26742554 C144.74983494 13.18573465 143.3498556 14.36451094 141.00990295 16.26742554 C138.21751404 16.76799679 138.21751404 16.76799679 134.93714905 16.76863098 C133.06962982 16.78338219 133.06962982 16.78338219 131.16438293 16.7984314 C129.78736604 16.78905967 128.41035187 16.77928037 127.03334045 16.76913452 C125.58112566 16.77291812 124.12891446 16.77841849 122.67671204 16.7855072 C118.73450395 16.79947408 114.7927317 16.78828368 110.85054779 16.77179599 C106.72576552 16.75794988 102.60100867 16.76440506 98.47621155 16.76792908 C91.54921949 16.77063155 84.62240067 16.75715246 77.69544983 16.73397827 C69.68603411 16.70736823 61.67690807 16.70562126 53.6674633 16.71736664 C45.96380277 16.72814456 38.26024706 16.72195726 30.55659485 16.70781136 C27.27755761 16.70205165 23.99859708 16.7021341 20.71955872 16.70687675 C16.85843784 16.7116479 12.9976343 16.70153947 9.13657379 16.6799221 C7.71921102 16.67435588 6.30181774 16.67388745 4.88445282 16.67887497 C2.95051376 16.68482697 1.01654388 16.67049053 -0.91734314 16.65510559 C-2.54112381 16.65146075 -2.54112381 16.65146075 -4.19770813 16.64774227 C-7.37646712 16.21480285 -8.7440294 15.53424023 -10.99009705 13.26742554 C-11.86290853 9.83852327 -12.31932533 7.37482977 -11.30259705 3.95492554 C-8.30175734 0.09670306 -4.63438468 0.01456485 0 0 Z " fill="#28aa4a" transform="translate(101.99009704589844,207.73257446289063)"/>
<path d="M0 0 C1.5876844 -0.01279495 1.5876844 -0.01279495 3.20744324 -0.02584839 C4.36339996 -0.02494202 5.51935669 -0.02403564 6.71034241 -0.02310181 C7.93184494 -0.02981903 9.15334747 -0.03653625 10.41186523 -0.04345703 C13.75904084 -0.05920054 17.10596833 -0.06581203 20.45316386 -0.0670886 C22.54509655 -0.06851099 24.63700328 -0.0727822 26.72892952 -0.07808304 C34.0290657 -0.0965797 41.32912888 -0.10475396 48.62928772 -0.10317993 C55.43108196 -0.10197808 62.2325591 -0.12308966 69.03427309 -0.15466726 C74.87728616 -0.1808261 80.72019563 -0.19154743 86.56326681 -0.19026911 C90.05165959 -0.18975943 93.53977041 -0.19544589 97.02810478 -0.21662521 C100.91840365 -0.23960099 104.80826797 -0.23048904 108.69862366 -0.21841431 C109.85255615 -0.22965332 111.00648865 -0.24089233 112.19538879 -0.25247192 C119.9959535 -0.19081148 119.9959535 -0.19081148 123.98428345 2.17279053 C125.91152595 4.43447283 126.42903067 5.33546144 126.3316803 8.26742554 C126.33296936 8.92742554 126.33425842 9.58742554 126.33558655 10.26742554 C125.51651299 13.15960251 124.06482404 14.3619702 121.7691803 16.26742554 C119.28913879 16.76799679 119.28913879 16.76799679 116.45570374 16.76863098 C115.378974 16.77846512 114.30224426 16.78829926 113.19288635 16.7984314 C111.42854248 16.78392944 111.42854248 16.78392944 109.6285553 16.76913452 C108.38593933 16.77453751 107.14332336 16.77994049 105.86305237 16.7855072 C102.45781838 16.79587269 99.05355576 16.78829106 95.64840698 16.77179599 C92.08416857 16.75794113 88.51995936 16.76440606 84.95570374 16.76792908 C78.97026941 16.77063087 72.98503565 16.75715844 66.99964905 16.73397827 C60.08085112 16.70736857 53.16238854 16.70562146 46.24355698 16.71736664 C39.58640505 16.72814797 32.92937436 16.7219546 26.27223206 16.70781136 C23.43976473 16.70205459 20.60738622 16.70213176 17.7749176 16.70687675 C13.81975121 16.71253754 9.86492002 16.69332327 5.9098053 16.67147827 C4.14546143 16.67823074 4.14546143 16.67823074 2.34547424 16.68511963 C0.73037964 16.67026268 0.73037964 16.67026268 -0.91734314 16.65510559 C-2.31989349 16.65146075 -2.31989349 16.65146075 -3.7507782 16.64774227 C-6.73029595 16.19083038 -8.08928559 15.36920022 -10.2308197 13.26742554 C-11.10363119 9.83852327 -11.56004799 7.37482977 -10.5433197 3.95492554 C-7.73795503 0.3480281 -4.36029253 0.01590268 0 0 Z " fill="#28aa4a" transform="translate(101.23081970214844,150.73257446289063)"/>
<path d="M0 0 C0.87168823 -0.0065712 1.74337646 -0.0131424 2.64147949 -0.01991272 C5.53328532 -0.03966415 8.42503921 -0.05131143 11.31689453 -0.0612793 C12.30299839 -0.06535482 13.28910225 -0.06943035 14.30508804 -0.07362938 C19.52272585 -0.09449641 24.74033729 -0.10879629 29.95800781 -0.11816406 C35.35424986 -0.12923943 40.75008079 -0.16365056 46.14617729 -0.20333576 C50.28969098 -0.22944454 54.43310577 -0.23785071 58.57669449 -0.24144554 C60.56625271 -0.24632513 62.55580613 -0.25797791 64.54528427 -0.27648354 C67.32739895 -0.30075662 70.10843749 -0.2999319 72.890625 -0.29296875 C74.12668991 -0.31218384 74.12668991 -0.31218384 75.38772583 -0.33178711 C79.03702115 -0.29843978 81.13133697 -0.1597442 84.08206177 2.08137512 C85.68777948 4.3357521 86.14255841 5.4370965 86.13720703 8.17700195 C86.15912109 8.83700195 86.18103516 9.49700195 86.20361328 10.17700195 C85.19002156 13.40034955 83.39585184 14.38598435 80.57470703 16.17700195 C77.55826133 16.55944702 74.91239226 16.71474954 71.90063477 16.67871094 C70.60707565 16.68681541 70.60707565 16.68681541 69.28738403 16.69508362 C66.4440045 16.70756546 63.60163848 16.69108498 60.75830078 16.6730957 C58.77962694 16.67325069 56.8009528 16.67473961 54.82228088 16.67750549 C50.67882846 16.67888919 46.53572231 16.666335 42.39233398 16.64355469 C37.08026164 16.61515169 31.76876381 16.61791285 26.45664883 16.6306448 C22.37228992 16.63759767 18.28806393 16.62981746 14.203722 16.61738777 C12.24489921 16.61287077 10.28606217 16.61253864 8.32723808 16.61645317 C5.59098902 16.619362 2.85553357 16.60287485 0.11938477 16.58105469 C-0.69059464 16.58555634 -1.50057404 16.59005798 -2.33509827 16.59469604 C-5.58361349 16.55163093 -8.00446635 16.40043583 -10.90074158 14.86268616 C-13.35648815 12.14738694 -13.36358102 9.75629488 -13.42529297 6.17700195 C-10.36895762 -0.51782786 -6.73722682 0.02187651 0 0 Z " fill="#28aa4a" transform="translate(103.42529296875,272.822998046875)"/>
<path d="M0 0 C1.30797043 -0.01029488 1.30797043 -0.01029488 2.6423645 -0.02079773 C5.52346091 -0.03909282 8.40401425 -0.03522475 11.28515625 -0.02954102 C13.28768084 -0.03410117 15.29020387 -0.03940625 17.29272461 -0.04542542 C21.48915974 -0.05436159 25.68540461 -0.05192719 29.88183594 -0.04199219 C35.26238816 -0.03049572 40.64228477 -0.05072195 46.02275085 -0.07990932 C50.15771665 -0.09824423 54.29252451 -0.09798438 58.42752075 -0.0922718 C60.41147787 -0.09211829 62.39544549 -0.09818736 64.37936401 -0.11056328 C67.15176702 -0.12542212 69.92294804 -0.11483444 72.6953125 -0.09765625 C73.51621368 -0.10732422 74.33711487 -0.11699219 75.18289185 -0.12695312 C78.82285625 -0.07966608 80.91242621 0.07288273 83.85302734 2.31040955 C85.46173429 4.56385073 85.91550934 5.663269 85.91015625 8.40405273 C85.93207031 9.06405273 85.95398438 9.72405273 85.9765625 10.40405273 C84.96389277 13.62446829 83.16429559 14.6134045 80.34765625 16.40405273 C77.35969668 16.78142405 74.74766095 16.93186315 71.76538086 16.88989258 C70.91276169 16.89368927 70.06014252 16.89748596 69.1816864 16.90139771 C66.37074693 16.90879142 63.56084718 16.88743918 60.75 16.86499023 C58.79374818 16.8626052 56.83749405 16.86170061 54.88124084 16.86221313 C50.78485744 16.85908725 46.68882454 16.84253691 42.5925293 16.81567383 C37.34107259 16.78167196 32.09000051 16.77404603 26.83844662 16.77556419 C22.80042345 16.77502046 18.7624844 16.76405313 14.72448921 16.74956131 C12.78799641 16.74319648 10.85149408 16.73925515 8.91499138 16.7377739 C6.21000796 16.73343884 3.50543282 16.71593405 0.80053711 16.69458008 C-0.00009155 16.69548645 -0.80072021 16.69639282 -1.62561035 16.69732666 C-8.48858205 16.61808005 -8.48858205 16.61808005 -11.65234375 14.40405273 C-13.73393395 11.72772248 -13.64821966 10.28651606 -13.52734375 6.84155273 C-12.65234375 3.40405273 -12.65234375 3.40405273 -11.13842773 1.71446228 C-7.51411967 -0.19590274 -4.00016202 -0.02193604 0 0 Z " fill="#28aa4a" transform="translate(103.65234375,305.595947265625)"/>
</svg>
