<?xml version="1.0" encoding="UTF-8"?>
<svg version="1.1" xmlns="http://www.w3.org/2000/svg" width="512" height="512">
<path d="M0 0 C6.38243957 0.20729453 12.76547313 0.21294351 19.15076089 0.24324298 C29.83529124 0.32077218 40.50899505 0.52219601 51.18913674 0.82040668 C62.14767872 1.12609162 73.10281754 1.34462909 84.06511331 1.45614886 C84.74437773 1.46308257 85.42364216 1.47001628 86.12349036 1.4771601 C88.85511383 1.50475059 91.58674134 1.53187736 94.31837581 1.55835793 C115.18576355 1.76257364 136.05598623 2.04041807 156.91738725 2.58781505 C159.08924315 2.64255622 161.26126826 2.691006 163.4334147 2.73265338 C166.40075608 2.79133477 169.36643808 2.87425663 172.33298135 2.96397662 C173.61626597 2.98231086 173.61626597 2.98231086 174.92547554 3.00101548 C181.52842692 3.24414364 186.69001673 5.11511627 191.85539651 9.28598285 C198.39136842 17.09444487 199.37077904 24.70050955 198.86711526 34.6805141 C199.54516213 34.64570941 200.22320901 34.61090472 200.92180276 34.57504535 C209.30236945 34.33128925 216.94328941 35.0591437 223.74211526 40.3680141 C228.50725958 44.87467182 231.58196898 51.09513923 231.99131376 57.67772293 C231.99093404 58.38704051 231.99055431 59.09635808 231.99016309 59.82717013 C231.99215414 60.65024889 231.99414518 61.47332765 231.99619657 62.32134819 C231.99328373 63.22017873 231.99037089 64.11900926 231.98736978 65.04507709 C231.98865141 66.48353051 231.98865141 66.48353051 231.98995894 67.95104361 C231.99160934 71.17240939 231.98609952 74.3937234 231.98064065 77.61508441 C231.98035866 79.92106381 231.98051675 82.2270433 231.98108315 84.53302264 C231.98137066 90.80118875 231.97548149 97.0693358 231.9685092 103.33749747 C231.96226787 109.88516464 231.96167124 116.43283221 231.96048379 122.98050189 C231.95789307 133.97295724 231.95147564 144.96540591 231.94255471 155.95785785 C231.93337568 167.28012312 231.92629725 178.60238648 231.9220469 189.92465472 C231.92165281 190.97151383 231.92165281 190.97151383 231.92125077 192.0395216 C231.91994573 195.54071173 231.91868202 199.04190187 231.91743886 202.54309201 C231.90707218 231.58890393 231.88938468 260.63470892 231.86711526 289.6805141 C232.86452737 289.67004046 233.86193948 289.65956683 234.8895762 289.64877582 C238.64686282 289.61213693 242.40413421 289.5894567 246.16154885 289.57065082 C247.7771359 289.56069194 249.39270541 289.54711992 251.00822854 289.52963519 C263.4843594 289.39814466 275.73904674 289.28423746 287.05461526 295.2430141 C287.73314553 295.59380023 288.41167581 295.94458636 289.1107676 296.30600238 C300.84602116 302.6578031 308.40307612 312.90879978 312.32414651 325.57504535 C314.1374702 332.60656671 314.16140915 339.44631216 314.24211526 346.6805141 C314.27949807 347.95152972 314.31688088 349.22254535 314.35539651 350.5320766 C314.45400953 360.94122912 314.45400953 360.94122912 311.53117776 364.0164516 C308.22562827 366.08120832 306.69150025 366.47726097 302.86711526 365.6805141 C300.34572043 364.01817857 299.29648268 363.24751411 297.86711526 360.6805141 C297.16545194 356.45671586 297.21344813 352.26680538 297.24211526 347.9930141 C297.24211526 335.20920473 296.2143079 325.08163285 286.86711526 315.6805141 C278.9575182 309.35554521 271.35362909 306.56460569 261.19491982 306.54680133 C260.08900994 306.54253634 258.98310006 306.53827136 257.84367776 306.53387713 C256.64509133 306.53433032 255.44650491 306.53478351 254.21159768 306.53525043 C252.93770684 306.53189181 251.663816 306.5285332 250.35132241 306.52507281 C246.86770861 306.51626508 243.38411939 306.51389605 239.90049553 306.51325703 C237.72041898 306.51254464 235.54034861 306.51040674 233.3602736 306.50775981 C225.7443047 306.49851674 218.12835326 306.49442358 210.51237893 306.49521136 C203.43011276 306.49581173 196.34792285 306.48526532 189.26567596 306.4694677 C183.17119362 306.45636122 177.0767361 306.45102877 170.98223978 306.45166677 C167.34851788 306.45192087 163.71486379 306.44911889 160.08115602 306.43848872 C156.02432373 306.42694404 151.9676607 306.43157353 147.91081643 306.43759418 C146.7183027 306.43197467 145.52578897 306.42635516 144.29713845 306.42056537 C133.06865053 306.46282942 123.32491504 307.98986429 114.66399026 315.62192035 C105.73782345 324.86215598 104.26827973 335.04103178 104.34953713 347.51449847 C104.34410323 348.86772162 104.33697352 350.22093884 104.3282969 351.57414508 C104.31021074 355.2168284 104.3170693 358.85905369 104.32981324 362.50174403 C104.34001798 366.33360309 104.330527 370.16542578 104.32426858 373.99728656 C104.31701374 380.42936421 104.32652271 386.86125748 104.34563088 393.29330707 C104.36739558 400.70464981 104.36034267 408.11555223 104.33832526 415.52688432 C104.32010922 421.9170721 104.31764308 428.30712818 104.32807994 434.69733357 C104.33428097 438.50211837 104.33524496 442.30669695 104.32193398 446.11146808 C104.31028509 449.69043797 104.3185634 453.26884623 104.34151101 456.84775615 C104.34922776 458.7694843 104.33751978 460.69126057 104.325001 462.61296344 C104.43154547 473.65339588 106.81853221 482.68230498 114.60149026 490.73910785 C124.60650004 499.31236623 136.86137342 499.98436173 149.48601174 499.93930316 C150.70850625 499.9428078 151.93100076 499.94631244 153.19054055 499.94992328 C156.5150499 499.95717284 159.83930739 499.95553624 163.16380215 499.94916511 C166.66200135 499.94406216 170.16019061 499.9488085 173.65839028 499.95193744 C179.53145146 499.95556514 185.40446216 499.95081 191.27751565 499.94125628 C198.04173399 499.93037911 204.80583167 499.93389677 211.57004708 499.9449091 C217.40392842 499.95402226 223.2377737 499.9552475 229.07165986 499.95003176 C232.54441167 499.94693345 236.017107 499.9464431 239.48985505 499.95310473 C243.36622479 499.96002256 247.24246239 499.95039998 251.11882424 499.93930316 C252.81725221 499.94537585 252.81725221 499.94537585 254.54999185 499.95157123 C264.55219971 499.89881647 274.26225123 499.1729805 282.86711526 493.6805141 C283.47297463 493.29379535 284.07883401 492.9070766 284.70305276 492.5086391 C291.14775515 487.72436222 295.39510615 479.52429502 296.86711526 471.6805141 C296.95958385 469.03767255 297.00054458 466.42097947 296.99309182 463.77841449 C296.99495996 462.98606906 296.99682809 462.19372363 296.99875283 461.37736773 C297.00275074 459.65969996 297.00483111 457.94202689 297.00521493 456.22435451 C297.00863609 452.57172661 297.03000234 448.91927584 297.0504458 445.26671004 C297.08845046 438.4685038 297.11972735 431.67048917 297.11760354 424.87216449 C297.11681684 420.14052586 297.14015875 415.40953919 297.17948556 410.67807078 C297.18995038 408.8764 297.19146603 407.07465402 297.18383431 405.27296901 C297.17421869 402.75192978 297.19537926 400.23286877 297.22356057 397.71200824 C297.20826554 396.59825824 297.20826554 396.59825824 297.19266152 395.46200824 C297.27116117 391.54305133 297.75242881 389.82494473 300.21983743 386.71760821 C302.86711526 384.6805141 302.86711526 384.6805141 305.86711526 384.0555141 C309.96572733 384.90939161 311.27991377 386.41487581 313.86711526 389.6805141 C314.35231759 392.5819354 314.53350553 394.89100538 314.48234963 397.784518 C314.48789865 398.58687884 314.49344766 399.38923968 314.49916482 400.21591449 C314.51095583 402.86358009 314.48668005 405.50953102 314.46086526 408.1570766 C314.45915292 410.00687846 314.45922109 411.85668275 314.46098733 413.70648456 C314.45933402 417.58527079 314.44064418 421.46347918 314.40910745 425.34213519 C314.36959642 430.28810494 314.36504299 435.23331229 314.37257028 440.17940974 C314.3756578 444.00243232 314.36345373 447.82528701 314.3464396 451.64826846 C314.33945656 453.47011899 314.3362793 455.29198855 314.33713174 457.11385226 C314.324199 475.31587399 311.54013448 489.58028053 298.53508401 503.20004535 C287.35467464 513.59471585 274.03351353 516.28957866 259.18523049 516.19809222 C257.75304353 516.20352667 256.32086218 516.21065669 254.88869119 516.21933246 C251.03533813 516.23741032 247.18241829 516.23056392 243.32905865 516.21781611 C239.27565765 516.20760901 235.22229096 516.21710282 231.16888833 516.22336078 C224.36616328 516.2306141 217.5636126 516.22110977 210.76091409 516.20199847 C202.92069065 516.18022534 195.08088331 516.1872935 187.24066991 516.20930409 C180.48104033 516.22751397 173.72153529 516.22998951 166.96188909 516.21954942 C162.93691124 516.21334617 158.91212836 516.21239086 154.8871634 516.22569537 C151.10217663 516.23733548 147.31772133 516.22908138 143.53279138 516.20611835 C141.49895079 516.19839358 139.46506472 516.21011644 137.43124795 516.22262836 C123.70568795 516.09723783 111.80578847 511.44169772 101.67961526 502.0555141 C91.85251244 491.61173074 87.63617249 479.90260151 87.80070901 465.81723285 C87.80789956 464.64033893 87.80789956 464.64033893 87.81523538 463.43966937 C87.82765862 461.51991325 87.84671149 459.60020198 87.86711526 457.6805141 C86.97443004 457.68512306 86.08174481 457.68973203 85.16200852 457.69448066 C63.41930918 457.80500643 41.6766584 457.88769338 19.93373704 457.93957496 C9.41891399 457.96533279 -1.09572129 458.00043709 -11.6104238 458.05771136 C-20.77736139 458.10762038 -29.94416295 458.1398227 -39.11123264 458.15095657 C-43.96309233 458.15746262 -48.81456295 458.17270319 -53.66629767 458.20916438 C-58.23819433 458.2432424 -62.80954371 458.25354333 -67.38155532 458.2460525 C-69.05444482 458.24742179 -70.72735368 458.25728387 -72.40013289 458.27654147 C-82.24233751 458.38423742 -90.94906582 458.13162625 -98.72951674 451.27306342 C-105.87703058 443.45027316 -105.51008774 435.75323131 -105.13288474 425.6805141 C-106.1344863 425.71531878 -107.13608787 425.75012347 -108.16804099 425.78598285 C-118.00454944 426.03065982 -124.94962059 425.53172954 -132.45713449 418.52876323 C-138.34167298 412.03848036 -138.7109062 404.31796797 -138.64081931 395.95729327 C-138.64705927 394.8049475 -138.65329924 393.65260172 -138.65972829 392.46533638 C-138.6756334 388.61912714 -138.66306314 384.77355378 -138.65046287 380.92734027 C-138.65368527 378.16405189 -138.66286368 375.40079018 -138.6717031 372.63751483 C-138.68945265 365.9216359 -138.68566516 359.20593618 -138.67405254 352.49005034 C-138.66500816 347.033095 -138.66379853 341.57618977 -138.6681478 336.11922908 C-138.6690672 334.95297577 -138.6690672 334.95297577 -138.67000517 333.76316178 C-138.6712841 332.1836015 -138.67258095 330.60404123 -138.67389554 329.02448098 C-138.6852899 314.22867604 -138.67220365 299.43297039 -138.65069407 284.63718174 C-138.63280646 271.93941805 -138.63594306 259.24180057 -138.65436912 246.54403949 C-138.67576567 231.792367 -138.68420994 217.0407813 -138.67192006 202.28909546 C-138.67064587 200.71697042 -138.66938839 199.14484536 -138.6681478 197.57272029 C-138.6675307 196.79922304 -138.6669136 196.02572579 -138.6662778 195.22878924 C-138.66282256 189.7753054 -138.6686566 184.3218766 -138.67806602 178.86840129 C-138.68927312 172.2272604 -138.68627255 165.58630866 -138.66494304 158.9451895 C-138.65441776 155.55625455 -138.65033572 152.16763523 -138.66353965 148.7787025 C-138.67441364 145.10842218 -138.66082904 141.4390393 -138.64081931 137.76881671 C-138.6497422 136.69325068 -138.65866508 135.61768465 -138.66785836 134.50952572 C-138.59142741 127.31962992 -138.59142741 127.31962992 -136.22613883 124.02289557 C-133.98565236 122.58609555 -132.77717996 122.11284946 -130.13288474 122.1180141 C-129.47288474 122.09610003 -128.81288474 122.07418597 -128.13288474 122.05160785 C-124.81516401 123.0948755 -123.92732939 124.71088047 -122.13288474 127.6805141 C-121.53638148 131.37448114 -121.60388011 135.03605256 -121.64081931 138.77086139 C-121.63614032 139.90345525 -121.63146133 141.03604912 -121.62664056 142.20296401 C-121.61568864 146.00633889 -121.63321587 149.80905504 -121.65046287 153.61239886 C-121.65051952 156.33568539 -121.64448833 159.05894985 -121.63860679 161.78222919 C-121.62892688 167.6502636 -121.63339112 173.51814951 -121.64702964 179.38617396 C-121.66638871 187.87469229 -121.65995575 196.36304354 -121.64645582 204.85156619 C-121.6248732 218.6294366 -121.61816144 232.40726761 -121.6236074 246.18515277 C-121.62392803 247.00967631 -121.62424866 247.83419985 -121.62457901 248.68370896 C-121.62695237 254.53681088 -121.62985701 260.38991248 -121.63288474 266.2430141 C-121.63634395 272.93075811 -121.63956237 279.61850211 -121.64216208 286.30624652 C-121.6424876 287.13006906 -121.64281311 287.95389161 -121.64314848 288.80267847 C-121.64808755 302.53027068 -121.63742692 316.25780812 -121.61559033 329.98538321 C-121.60287894 338.45468555 -121.6043652 346.9237626 -121.6240412 355.39305281 C-121.63662949 361.193109 -121.63520439 366.99305076 -121.62266767 372.79310674 C-121.61594166 376.14160061 -121.61807712 379.48948659 -121.63324904 382.83799434 C-121.64875948 386.46467127 -121.63995335 390.09049066 -121.62495017 393.71715045 C-121.63543907 394.77988116 -121.64592796 395.84261188 -121.6567347 396.93754655 C-121.62847446 402.38271948 -121.62847446 402.38271948 -119.61860633 407.33328795 C-116.07754555 409.2524931 -112.79709823 409.23827698 -108.8692739 409.19949603 C-107.608455 409.21074791 -107.608455 409.21074791 -106.32216501 409.2222271 C-103.50133505 409.24255168 -100.68130524 409.23439232 -97.8604238 409.22641253 C-95.84014693 409.23514495 -93.81987698 409.24562957 -91.79961753 409.25773883 C-86.31030527 409.28565991 -80.82121801 409.28900216 -75.33184505 409.28801894 C-69.5969146 409.29114279 -63.86208628 409.31674997 -58.12720847 409.33999896 C-47.26526589 409.38060298 -36.4033834 409.40091003 -25.54137659 409.41397285 C-13.17628972 409.42982798 -0.81130535 409.46823734 11.55372214 409.50856614 C36.99148547 409.59102536 62.42924604 409.64507985 87.86711526 409.6805141 C87.85823281 408.73219211 87.84935037 407.78387012 87.84019876 406.80681109 C87.75870572 397.81936475 87.69895602 388.83199449 87.65986657 379.84426093 C87.63909386 375.22482333 87.61096764 370.60568673 87.56535745 365.9864223 C87.52152795 361.51895686 87.49790083 357.05177884 87.48760629 352.58411479 C87.48028086 350.88945952 87.46597833 349.19481792 87.44419503 347.50028682 C87.23755125 330.74129098 90.23530681 316.50385638 102.11711526 303.9305141 C114.87827473 291.8319944 129.17691694 289.49601465 146.14836526 289.58285785 C147.72950112 289.58498027 147.72950112 289.58498027 149.34257913 289.58714557 C152.68412097 289.59270902 156.02559393 289.60525469 159.36711526 289.6180141 C161.64315595 289.62303382 163.9191977 289.6275959 166.19524026 289.63168597 C171.75255513 289.64266646 177.30983027 289.65936787 182.86711526 289.6805141 C182.78538709 256.11652281 182.69323677 222.55257863 182.58706365 188.98865606 C182.57454443 185.02819491 182.56211171 181.0677335 182.54973245 177.10727191 C182.54603346 175.92456232 182.54603346 175.92456232 182.54225974 174.71795961 C182.50251114 161.94281716 182.46977311 149.16766585 182.43961544 136.39249757 C182.40852664 123.28882776 182.36992831 110.18519566 182.3243252 97.08156824 C182.29641214 88.99270922 182.27439135 80.90387787 182.25985275 72.81498358 C182.24808718 66.61759009 182.22588522 60.42027444 182.19973207 54.2229259 C182.1906353 51.67677559 182.1849612 49.13061049 182.18290162 46.58444476 C182.17959392 43.11752228 182.16415677 39.65086243 182.14558816 36.1839931 C182.14849026 34.66065462 182.14849026 34.66065462 182.15145099 33.10654163 C182.1439855 32.17896101 182.13652001 31.25138038 182.12882829 30.29569125 C182.12654997 29.4952408 182.12427164 28.69479034 182.12192428 27.87008381 C181.83340696 25.39085921 181.18279605 23.79334941 179.86711526 21.6805141 C175.58576309 19.14588006 171.01231153 19.39055748 166.17953897 19.4020412 C165.30547019 19.39624879 164.43140141 19.39045639 163.5308457 19.38448846 C160.6027777 19.36748678 157.6748673 19.3646118 154.74675393 19.36166644 C152.64751701 19.35236839 150.54828378 19.3421999 148.44905496 19.33122516 C142.74912746 19.30389728 137.04922471 19.28876744 131.34924889 19.27579713 C125.39279851 19.26017883 119.43639877 19.23338445 113.47998452 19.20776629 C102.20018448 19.1609555 90.92037493 19.12422249 79.64052731 19.09109342 C66.79902825 19.05288832 53.95758002 19.00347392 41.1161238 18.95310926 C14.69982528 18.84975517 -11.71650588 18.76050605 -38.13288474 18.6805141 C-38.12400229 19.48738162 -38.11511985 20.29424914 -38.10596824 21.1255672 C-38.02554389 28.7604089 -37.96477987 36.3950428 -37.92563605 44.03019881 C-37.90483463 47.95475656 -37.87665523 51.87896187 -37.83112693 55.80331683 C-37.78740056 59.5964482 -37.76369175 63.38924234 -37.75337577 67.18260646 C-37.74603206 68.6237958 -37.7316923 70.06496842 -37.70996451 71.50601268 C-37.57582011 80.77858808 -37.91125332 88.65316375 -44.09772849 96.02035785 C-45.07419333 96.81119769 -45.07419333 96.81119769 -46.07038474 97.6180141 C-46.71878318 98.16328753 -47.36718162 98.70856097 -48.03522849 99.27035785 C-52.83797577 102.49902035 -57.21204735 102.9782434 -62.88898826 102.97104144 C-63.65382529 102.97775867 -64.41866233 102.98447589 -65.20667624 102.99139667 C-67.72511455 103.0103355 -70.243286 103.01429813 -72.76179099 103.0164516 C-74.51626292 103.0228802 -76.27073378 103.02960861 -78.02520347 103.03662372 C-81.6977599 103.04858458 -85.37022232 103.05230555 -89.04279685 103.05111957 C-93.74959813 103.05091594 -98.45579857 103.07826807 -103.16245723 103.11266398 C-106.78356299 103.13488934 -110.40452284 103.13895853 -114.02568984 103.13790011 C-115.76125202 103.14026073 -117.49681794 103.14911018 -119.23231292 103.16456485 C-121.65736472 103.18414602 -124.08110314 103.17841978 -126.50617576 103.16635394 C-127.22264777 103.17759295 -127.93911979 103.18883197 -128.67730308 103.20041156 C-132.04714854 103.15777213 -133.83841557 102.90326402 -136.5587728 100.84546161 C-138.13288474 98.6805141 -138.13288474 98.6805141 -138.94538474 95.5555141 C-136.63401133 84.53204093 -121.28932324 73.68620903 -113.51252341 65.92978168 C-111.06906552 63.49169778 -108.63101667 61.04829621 -106.19343162 58.60434222 C-104.62018453 57.03175577 -103.04662737 55.45947945 -101.47272849 53.88754535 C-100.75479621 53.16758883 -100.03686393 52.44763232 -99.29717612 51.70585895 C-98.60608253 51.01791751 -97.91498893 50.32997607 -97.2029531 49.62118793 C-96.31101501 48.73044322 -96.31101501 48.73044322 -95.40105796 47.82170367 C-94.09608627 46.5897908 -92.76992991 45.37798416 -91.39141238 44.2289629 C-87.15368963 40.67753344 -83.62806026 37.02426414 -80.26538718 32.64252961 C-57.22840933 2.71452189 -36.48064491 -1.39870559 0 0 Z M-58.74767661 35.1597774 C-59.25837195 35.67249698 -59.7690673 36.18521655 -60.29523826 36.71347308 C-61.10012687 37.51573321 -61.10012687 37.51573321 -61.92127585 38.33420062 C-63.70398149 40.11248532 -65.48298143 41.89442652 -67.26179099 43.67660785 C-68.4933287 44.90747258 -69.72501487 46.13818879 -70.95684409 47.36876178 C-73.54181447 49.95225485 -76.1249596 52.53755591 -78.70685935 55.12411761 C-82.02492528 58.44788084 -85.34745906 61.76713579 -88.67136836 65.08505416 C-91.2166751 67.62675616 -93.75960599 70.17082436 -96.30181289 72.71562648 C-97.52635202 73.94083512 -98.75164108 75.16529469 -99.97767425 76.38900828 C-101.687516 78.09632494 -103.3941434 79.8067895 -105.09992576 81.51816058 C-105.61264533 82.02885592 -106.1253649 82.53955127 -106.65362144 83.06572223 C-109.07308426 85.03431616 -109.07308426 85.03431616 -110.13288474 87.6805141 C-103.38853269 87.73126115 -96.64422997 87.76626749 -89.89973044 87.79037738 C-87.60576641 87.80042938 -85.31181518 87.814073 -83.01789451 87.831393 C-79.71895286 87.85567619 -76.42018077 87.86700532 -73.12116599 87.8758266 C-72.09703101 87.88614917 -71.07289603 87.89647174 -70.01772666 87.90710711 C-68.576799 87.90733371 -68.576799 87.90733371 -67.10676169 87.90756488 C-65.84434402 87.91422671 -65.84434402 87.91422671 -64.55642295 87.92102313 C-60.72035121 87.54033596 -58.07693001 86.63433042 -55.34167075 83.87076068 C-53.89482523 81.24916478 -53.76970292 79.62051429 -53.79230857 76.63656878 C-53.79253516 75.63583331 -53.79276175 74.63509784 -53.79299521 73.60403705 C-53.80847907 72.53099322 -53.82396293 71.4579494 -53.83991599 70.3523891 C-53.84628325 68.69617541 -53.84628325 68.69617541 -53.85277915 67.00650287 C-53.86956806 63.48092494 -53.90722165 59.95591918 -53.94538474 56.4305141 C-53.96043126 54.03989735 -53.97411972 51.64927165 -53.98640037 49.2586391 C-54.01947231 43.39906897 -54.06967428 37.53983241 -54.13288474 31.6805141 C-56.17846181 31.6805141 -57.37970355 33.80011506 -58.74767661 35.1597774 Z M198.86711526 50.6805141 C198.86711526 129.5505141 198.86711526 208.4205141 198.86711526 289.6805141 C204.47711526 289.6805141 210.08711526 289.6805141 215.86711526 289.6805141 C215.93553898 260.21021374 215.98863702 230.73991714 216.02031125 201.26955404 C216.02406341 197.79106208 216.02794637 194.31257028 216.03191018 190.83407855 C216.03309058 189.79531194 216.03309058 189.79531194 216.03429482 188.73556014 C216.04735214 177.51949009 216.07100776 166.30346612 216.09857365 155.08742342 C216.12661881 143.58048336 216.14306504 132.07357574 216.14938074 120.56660217 C216.15329717 114.1025616 216.1625238 107.63862559 216.18430543 101.17461848 C216.2046315 95.09343574 216.21095688 89.01240088 216.2064383 82.93118739 C216.20726524 80.69666244 216.21325384 78.46213267 216.22473168 76.22763705 C216.23961486 73.18137635 216.23608391 70.13567704 216.22787881 67.08940387 C216.2409866 65.75720017 216.2409866 65.75720017 216.25435919 64.39808327 C216.22009385 59.70498252 216.03525766 56.41626412 212.86711526 52.6805141 C208.12175927 49.9351581 208.12175927 49.9351581 198.86711526 50.6805141 Z M-89.13288474 425.6805141 C-90.1343801 435.77166581 -90.1343801 435.77166581 -87.07857585 439.83043456 C-83.43601708 442.11819088 -81.29247598 442.29743456 -77.001827 442.28178668 C-76.29518387 442.2860588 -75.58854074 442.29033093 -74.86048418 442.29473251 C-72.49840462 442.30295261 -70.13811052 442.27549704 -67.77619529 442.24814105 C-66.08089847 442.24673035 -64.3855986 442.24752298 -62.69030356 442.25035357 C-58.09130496 442.2517883 -53.49295825 442.22238957 -48.89411116 442.18748379 C-44.08683919 442.1562296 -39.27955232 442.15329029 -34.47219443 442.14735675 C-25.3703132 442.13181555 -16.26873221 442.09078332 -7.16698319 442.0406093 C3.19565012 441.98472446 13.55829775 441.95723149 23.92104423 441.93213212 C45.23657335 441.87986773 66.55181482 441.79091301 87.86711526 441.6805141 C87.86711526 436.4005141 87.86711526 431.1205141 87.86711526 425.6805141 C29.45711526 425.6805141 -28.95288474 425.6805141 -89.13288474 425.6805141 Z " fill="#28aa4a" transform="translate(168.13288474082947,-3.680514097213745)"/>
<path d="M0 0 C1.5960759 -0.00856522 1.5960759 -0.00856522 3.22439575 -0.01730347 C4.39172745 -0.01842133 5.55905914 -0.01953918 6.76176453 -0.02069092 C7.99126831 -0.02565582 9.22077209 -0.03062073 10.48753357 -0.03573608 C13.861634 -0.04784606 17.23567244 -0.05530327 20.60978723 -0.05974674 C22.71863271 -0.06267914 24.82747278 -0.06678428 26.93631554 -0.07125092 C33.53683392 -0.08492377 40.1373399 -0.0945913 46.73787147 -0.09845281 C54.35263778 -0.10293235 61.96722448 -0.12047615 69.58193618 -0.1494534 C75.47079278 -0.17108371 81.3595989 -0.18115781 87.2484948 -0.18249393 C90.7642779 -0.18354105 94.27989211 -0.18942886 97.79563332 -0.20731354 C101.71929824 -0.22688511 105.64273947 -0.22249984 109.56645203 -0.21600342 C110.72771103 -0.2252182 111.88897003 -0.23443298 113.0854187 -0.243927 C119.91590681 -0.20845877 124.73872028 0.23751136 129.94023132 5.07794189 C130.51128601 5.75856689 131.0823407 6.43919189 131.67070007 7.14044189 C132.25464539 7.82106689 132.8385907 8.50169189 133.44023132 9.20294189 C135.85446734 12.5017327 135.98708084 15.31791715 136.00537109 19.2755127 C136.01610405 20.86942085 136.01610405 20.86942085 136.02705383 22.49552917 C136.02974274 23.66128983 136.03243164 24.82705048 136.03520203 26.02813721 C136.04177322 27.2560347 136.04834442 28.48393219 136.05511475 29.7490387 C136.07486411 33.82221723 136.08651577 37.89535638 136.09648132 41.96856689 C136.10052976 43.37225107 136.10464671 44.77593506 136.10883141 46.17961884 C136.12787928 52.77533044 136.14211067 59.37103088 136.15044338 65.96676469 C136.16021216 73.57308413 136.18652367 81.17911228 136.22694427 88.7853291 C136.25713535 94.66910458 136.2719151 100.55279671 136.27522439 106.43664813 C136.27757165 109.94861199 136.28648916 113.46026452 136.31168556 116.97214508 C136.33936369 120.89324699 136.33512595 124.81396772 136.32817078 128.73516846 C136.34738586 130.47166405 136.34738586 130.47166405 136.36698914 132.24324036 C136.31777585 139.85424171 135.32549672 144.39725283 130.04179382 150.10137939 C129.46558289 150.56802002 128.88937195 151.03466064 128.29570007 151.51544189 C127.42751648 152.23860596 127.42751648 152.23860596 126.54179382 152.97637939 C123.33837598 155.19127154 120.48328722 155.2687829 116.71640015 155.28088379 C115.12032425 155.28944901 115.12032425 155.28944901 113.49200439 155.29818726 C112.3246727 155.29930511 111.157341 155.30042297 109.95463562 155.30157471 C108.72513184 155.30653961 107.49562805 155.31150452 106.22886658 155.31661987 C102.85476615 155.32872985 99.48072771 155.33618706 96.10661292 155.34063053 C93.99776743 155.34356293 91.88892737 155.34766807 89.78008461 155.3521347 C83.17956622 155.36580756 76.57906024 155.37547509 69.97852868 155.3793366 C62.36376237 155.38381613 54.74917567 155.40135994 47.13446397 155.43033719 C41.24560736 155.4519675 35.35680124 155.4620416 29.46790534 155.46337771 C25.95212225 155.46442484 22.43650804 155.47031264 18.92076683 155.48819733 C14.9971019 155.5077689 11.07366068 155.50338363 7.14994812 155.49688721 C5.98868912 155.50610199 4.82743011 155.51531677 3.63098145 155.52481079 C-3.65258482 155.48698989 -8.16697178 154.70017774 -13.82929993 149.82794189 C-18.45421522 144.45304034 -20.25819334 139.17245079 -20.28224182 132.20228577 C-20.28795197 131.20850922 -20.29366211 130.21473267 -20.29954529 129.19084167 C-20.30066315 128.1066243 -20.30178101 127.02240692 -20.30293274 125.90533447 C-20.30789764 124.7585321 -20.31286255 123.61172974 -20.31797791 122.43017578 C-20.33259649 118.63176882 -20.33940156 114.83340363 -20.34492493 111.03497314 C-20.35067724 108.39424132 -20.35643496 105.75350951 -20.36219788 103.11277771 C-20.3717657 98.2802652 -20.37766443 93.44776169 -20.38069463 88.61524087 C-20.38516952 81.51895342 -20.40269306 74.42285915 -20.43169522 67.32663041 C-20.45598848 61.16715632 -20.46364249 55.00776145 -20.46537018 48.84824181 C-20.46839267 46.23483924 -20.47640753 43.62143741 -20.48955536 41.00806618 C-20.50666155 37.34607051 -20.50472392 33.68454169 -20.49824524 30.02252197 C-20.50746002 28.94842575 -20.5166748 27.87432953 -20.52616882 26.76768494 C-20.48382834 19.10512875 -19.79103895 12.26518536 -14.70429993 6.26544189 C-9.70104456 2.11640086 -6.64460905 0.02134538 0 0 Z M-2.28791809 16.9875946 C-5.04944933 21.68405697 -4.82465354 25.84260082 -4.7570343 31.20123291 C-4.76258331 32.31719849 -4.76813232 33.43316406 -4.77384949 34.58294678 C-4.78565721 38.27051774 -4.7613586 41.95686318 -4.73554993 45.64434814 C-4.73383921 48.20594731 -4.73390411 50.76754822 -4.735672 53.32914734 C-4.73401814 58.69668669 -4.71588808 64.06379825 -4.68379211 69.43121338 C-4.64688221 75.63375862 -4.63811952 81.83584247 -4.64508963 88.0384832 C-4.65139745 94.01060691 -4.64042302 99.98259374 -4.62112427 105.95469475 C-4.61408506 108.49406092 -4.61097084 111.03344106 -4.61181641 113.57281685 C-4.61002228 117.11848411 -4.58867285 120.66349191 -4.5617218 124.20904541 C-4.5646524 125.26214401 -4.56758301 126.31524261 -4.57060242 127.4002533 C-4.55925262 128.36615387 -4.54790283 129.33205444 -4.53620911 130.32722473 C-4.53248039 131.16509301 -4.52875168 132.00296129 -4.52490997 132.86621952 C-4.04791613 135.69775601 -3.10142183 137.06435806 -1.14179993 139.14044189 C2.28052979 140.28121847 4.94493225 140.23859306 8.54570007 140.20294189 C9.72519226 140.19391846 10.90468445 140.18489502 12.11991882 140.17559814 C13.02355164 140.16399658 13.92718445 140.15239502 14.85820007 140.14044189 C14.87278259 139.43548584 14.88736511 138.73052979 14.90238953 138.00421143 C14.97764205 134.75745076 15.07404382 131.51163313 15.17070007 128.26544189 C15.19325867 127.15684814 15.21581726 126.04825439 15.23905945 124.90606689 C15.62378805 113.01445542 17.87975419 103.80168569 26.66288757 95.41778564 C29.61120402 92.8427539 32.68100046 90.42802562 35.85820007 88.14044189 C35.53512878 87.42348145 35.2120575 86.706521 34.87919617 85.96783447 C33.20324966 81.326721 33.4893854 76.71744141 33.48320007 71.82794189 C33.45870789 70.82053955 33.4342157 69.81313721 33.40898132 68.77520752 C33.38634518 62.98412694 33.92794304 58.79437029 36.89872742 53.77252197 C38.02552299 51.9854368 38.02552299 51.9854368 38.85820007 49.14044189 C40.71366882 48.08575439 40.71366882 48.08575439 42.85820007 47.14044189 C43.95132507 46.43919189 45.04445007 45.73794189 46.17070007 45.01544189 C52.83379284 41.69014607 61.25296545 41.98913324 68.35820007 43.76544189 C74.4584182 46.43428733 79.31617224 51.73470493 82.03788757 57.74591064 C83.16063421 62.39194316 83.14824377 66.8160789 83.10820007 71.57794189 C83.11980164 72.95176025 83.11980164 72.95176025 83.13163757 74.35333252 C83.11636202 79.6730434 82.60215231 84.1092781 80.85820007 89.14044189 C81.72831726 89.66831299 81.72831726 89.66831299 82.61601257 90.20684814 C91.78156747 95.99959984 97.24861899 102.41005336 100.3860321 112.90631104 C100.96051911 115.6245792 101.07543248 118.22294935 101.17460632 120.99981689 C101.21650085 122.11485596 101.25839539 123.22989502 101.30155945 124.37872314 C101.34087585 125.53759033 101.38019226 126.69645752 101.42070007 127.89044189 C101.48547546 129.6519458 101.48547546 129.6519458 101.55155945 131.44903564 C101.65754801 134.3460564 101.75961645 137.24316124 101.85820007 140.14044189 C103.9200364 140.22194933 105.98281356 140.2798613 108.04570007 140.32794189 C109.7685321 140.38014893 109.7685321 140.38014893 111.52616882 140.43341064 C115.47208836 140.08646578 116.95043681 139.86187789 119.85820007 137.14044189 C120.65171138 133.42027963 120.54014041 129.7145065 120.50517273 125.92364502 C120.51393433 124.76735092 120.52269592 123.61105682 120.53172302 122.41972351 C120.55378099 118.5866678 120.53914005 114.75475991 120.52226257 110.92169189 C120.52562884 108.26514237 120.5304717 105.60862811 120.53675842 102.9520874 C120.5458571 97.38014218 120.53386182 91.80852823 120.51005554 86.2366333 C120.48284325 79.79311403 120.4916573 73.35038572 120.51918757 66.90688562 C120.54187189 61.37639418 120.54508224 55.84614097 120.53199422 50.31561804 C120.52419568 47.0116745 120.52512904 43.70818472 120.53967667 40.4042511 C120.5523329 36.72136461 120.53307823 33.04001069 120.50517273 29.35723877 C120.51529388 28.25999985 120.52541504 27.16276093 120.5358429 26.03227234 C120.59706262 20.54089089 120.59706262 20.54089089 118.00233459 15.96563721 C113.28642031 14.72791969 108.76347564 14.7068316 103.90507507 14.72052002 C102.80046936 14.71205048 101.69586365 14.70358093 100.55778503 14.69485474 C96.90780617 14.67146231 93.25824821 14.67046305 89.60820007 14.67169189 C87.0714145 14.66459245 84.53463053 14.65689377 81.99784851 14.64862061 C76.68171599 14.63517113 71.36573894 14.63342838 66.04960632 14.63946533 C59.90944641 14.64610975 53.76988667 14.62322223 47.62984848 14.5861516 C41.71542035 14.55174247 35.80117727 14.54511853 29.88664246 14.54924011 C27.37319652 14.54754502 24.85974295 14.53786535 22.34635925 14.52009583 C18.83419455 14.49799507 15.32348422 14.50756411 11.81132507 14.52520752 C10.77117249 14.51194427 9.7310199 14.49868103 8.65934753 14.48501587 C4.24732297 14.53659113 1.56471608 14.72563136 -2.28791809 16.9875946 Z M52.85820007 59.14044189 C50.5986688 60.65797946 50.5986688 60.65797946 48.85820007 63.14044189 C48.43013933 66.11324999 48.25268889 68.61523066 48.29570007 71.57794189 C48.27185242 72.3288208 48.24800476 73.07969971 48.22343445 73.85333252 C48.23445763 78.03111957 48.53193063 79.71210868 51.14335632 83.14044189 C54.47486699 85.59473464 55.95257242 85.82181848 59.92460632 85.57403564 C62.96438653 84.89238796 64.72516051 83.33811902 66.85820007 81.14044189 C68.35172836 78.15338532 68.1238787 75.10231679 68.17070007 71.82794189 C68.20808289 70.51180908 68.2454657 69.19567627 68.28398132 67.83966064 C67.79818322 63.61901108 66.8651971 62.07144982 63.85820007 59.14044189 C59.50398609 57.00965633 57.08518311 56.69324119 52.85820007 59.14044189 Z M35.58476257 107.99591064 C27.67158903 117.8247167 30.85820007 127.03326602 30.85820007 140.14044189 C49.00820007 140.14044189 67.15820007 140.14044189 85.85820007 140.14044189 C87.44267581 121.29470681 87.44267581 121.29470681 80.25273132 107.11700439 C68.60159906 97.16319757 46.86564713 98.08451619 35.58476257 107.99591064 Z " fill="#28aa4a" transform="translate(179.1417999267578,41.85955810546875)"/>
<path d="M0 0 C0.69351563 0.07347656 1.38703125 0.14695312 2.1015625 0.22265625 C8.68741326 2.293465 13.38385664 7.61057008 18.125 12.375 C18.79660156 13.03048828 19.46820313 13.68597656 20.16015625 14.36132812 C25.13953004 19.33571256 27.63502712 23.03624933 27.8125 30.25 C27.85246094 31.13300781 27.89242187 32.01601563 27.93359375 32.92578125 C26.56993358 40.27810284 20.91586232 45.83713865 15.76806641 50.93261719 C15.12509109 51.58084946 14.48211578 52.22908173 13.81965637 52.8969574 C11.71272435 55.01698912 9.5951332 57.12597878 7.4765625 59.234375 C5.99788326 60.71507759 4.5196494 62.19622508 3.0418396 63.67779541 C-0.04831083 66.77235542 -3.14378799 69.86145822 -6.24316406 72.94677734 C-10.20649967 76.89300723 -14.15619335 80.8525739 -18.10199547 84.81632614 C-21.14896627 87.87415875 -24.20307261 90.92478397 -27.25935745 93.97330475 C-28.71833858 95.4302913 -30.17511291 96.88949127 -31.62958908 98.35097504 C-33.66562788 100.39466918 -35.71110143 102.4284401 -37.75927734 104.45996094 C-38.35275467 105.05951096 -38.94623199 105.65906097 -39.55769348 106.27677917 C-46.00286097 112.62564147 -52.16975672 116.02292533 -61.3125 116.25 C-62.28574219 116.28738281 -63.25898438 116.32476562 -64.26171875 116.36328125 C-73.76164333 115.16061949 -79.68086558 109.61539576 -86.18359375 103.0078125 C-87.05395767 102.13986053 -87.92432159 101.27190857 -88.82106018 100.37765503 C-90.64809131 98.54964879 -92.4689616 96.71546631 -94.28393555 94.87548828 C-97.06251028 92.0624896 -99.86442 89.27439761 -102.66992188 86.48828125 C-104.44675084 84.70455662 -106.22219069 82.91944695 -107.99609375 81.1328125 C-108.83248886 80.30137726 -109.66888397 79.46994202 -110.53062439 78.61331177 C-115.59421941 73.44579543 -118.26815354 69.86281101 -118.9375 62.5 C-117.89897416 50.66080543 -108.06305702 42.99355068 -99.66796875 35.53125 C-95.70855405 32.4424523 -92.85453265 31.62722442 -87.8125 31.5625 C-86.81605469 31.53414063 -85.81960938 31.50578125 -84.79296875 31.4765625 C-77.11849191 32.59319415 -72.32984999 37.83292604 -67.1875 43.1875 C-66.23327148 44.16203125 -66.23327148 44.16203125 -65.25976562 45.15625 C-63.70769593 46.74332878 -62.16454034 48.33829431 -60.625 49.9375 C-54.79873796 45.12059625 -49.53035082 39.89636269 -44.25390625 34.48828125 C-42.4452672 32.65239784 -40.63600342 30.81712972 -38.82617188 28.98242188 C-35.997607 26.11204036 -33.17330048 23.23772619 -30.36108398 20.35131836 C-27.63081608 17.54994319 -24.88018769 14.76902562 -22.12890625 11.98828125 C-21.29533096 11.12576248 -20.46175568 10.26324371 -19.60292053 9.37458801 C-14.07919962 3.82590019 -8.40398297 -1.1173835 0 0 Z M-4.70591736 17.90489197 C-5.62143875 18.82565018 -6.53696014 19.74640839 -7.48022461 20.69506836 C-8.23640327 21.45343742 -8.23640327 21.45343742 -9.00785828 22.22712708 C-10.10627336 23.32935856 -11.2035314 24.43274397 -12.29978752 25.53712273 C-14.03294538 27.28298645 -15.76915791 29.02575762 -17.50624084 30.76771545 C-21.82127758 35.09616164 -26.1309096 39.42997671 -30.44073486 43.76361084 C-34.07847574 47.42104533 -37.71822775 51.07645534 -41.36071968 54.7291584 C-43.07446981 56.44941147 -44.78518924 58.17264084 -46.49583435 59.89598083 C-47.54386868 60.94764694 -48.59204324 61.99917333 -49.64038086 63.05053711 C-50.55669785 63.97209091 -51.47301483 64.89364471 -52.417099 65.84312439 C-55.46394545 68.73330873 -57.96026203 69.68646214 -62.24023438 69.63330078 C-67.81207827 68.00760923 -71.57854702 62.5564173 -75.375 58.375 C-77.2087878 56.37896089 -79.0598496 54.40381432 -80.921875 52.43359375 C-81.72979492 51.54857178 -82.53771484 50.6635498 -83.37011719 49.75170898 C-85.41438546 47.71081842 -85.41438546 47.71081842 -87.71679688 47.97265625 C-89.84071222 49.04657046 -91.20203991 50.17185111 -92.859375 51.87890625 C-93.43300781 52.46220703 -94.00664062 53.04550781 -94.59765625 53.64648438 C-95.18417969 54.25814453 -95.77070313 54.86980469 -96.375 55.5 C-96.97699219 56.11552734 -97.57898438 56.73105469 -98.19921875 57.36523438 C-99.68134381 58.88264813 -101.1540967 60.40920596 -102.625 61.9375 C-98.46253684 66.90019233 -94.1331276 71.57718338 -89.546875 76.1484375 C-88.89422668 76.80204254 -88.24157837 77.45564758 -87.56915283 78.12905884 C-86.20227739 79.49660975 -84.83415851 80.86291889 -83.46484375 82.22802734 C-81.36341112 84.32405909 -79.26742612 86.42543358 -77.171875 88.52734375 C-75.83886257 89.85969614 -74.50554037 91.1917387 -73.171875 92.5234375 C-72.54480652 93.15253021 -71.91773804 93.78162292 -71.27166748 94.42977905 C-67.07745658 98.63675343 -67.07745658 98.63675343 -61.625 100.5625 C-57.75253817 100.47539825 -56.02188749 98.84023192 -53.24487305 96.2512207 C-51.92161514 95.01923447 -51.92161514 95.01923447 -50.57162476 93.76235962 C-44.88729729 88.33623773 -39.28539482 82.82772293 -33.70703125 77.29296875 C-33.06403265 76.65529383 -32.42103405 76.0176189 -31.75855064 75.3606205 C-28.37193643 72.0004859 -24.98883338 68.63685724 -21.6081543 65.27075195 C-18.81488781 62.49093909 -16.01447857 59.71862523 -13.20776367 56.95239258 C-9.80062091 53.59435638 -6.40571998 50.22440619 -3.01947594 46.84530067 C-1.73064271 45.56319469 -0.43754703 44.28535895 0.85982323 43.01189232 C2.66213444 41.24097938 4.44826345 39.45518135 6.23120117 37.66479492 C6.77077957 37.14162186 7.31035797 36.61844879 7.86628723 36.079422 C9.50374094 34.47262326 9.50374094 34.47262326 11.375 31.9375 C11.22659482 28.69784146 9.9575412 27.14871988 7.6875 24.921875 C7.15382813 24.39335937 6.62015625 23.86484375 6.0703125 23.3203125 C5.51085937 22.78148437 4.95140625 22.24265625 4.375 21.6875 C3.81554687 21.13320313 3.25609375 20.57890625 2.6796875 20.0078125 C-0.80425585 15.68070317 -0.80425585 15.68070317 -4.70591736 17.90489197 Z " fill="#28aa4a" transform="translate(415.625,348.0625)"/>
<path d="M0 0 C1.36071609 -0.00807831 1.36071609 -0.00807831 2.74892139 -0.01631981 C5.79523511 -0.03065229 8.84111752 -0.02348261 11.88745117 -0.01637268 C14.06871898 -0.02207343 16.2499838 -0.02903654 18.4312439 -0.03717041 C24.36088141 -0.05514835 30.29037132 -0.05392484 36.22002792 -0.04822803 C41.16566572 -0.04514322 46.11127488 -0.05122064 51.05690861 -0.05726677 C63.38810542 -0.07212957 75.71922131 -0.06848561 88.05041802 -0.05640347 C98.09608924 -0.04708648 108.14160742 -0.05644161 118.18725586 -0.07887268 C129.85117235 -0.10482217 141.5149851 -0.11731986 153.17893124 -0.11068493 C159.3539303 -0.10730773 165.52878666 -0.10978115 171.70376587 -0.12693596 C177.50847269 -0.14235767 183.31284874 -0.13850259 189.11754227 -0.11963081 C191.25089071 -0.11593185 193.3842634 -0.11909118 195.51758957 -0.1295166 C198.42405897 -0.14263864 201.32941904 -0.13125718 204.23583984 -0.11352539 C205.50995586 -0.1279329 205.50995586 -0.1279329 206.80981159 -0.14263147 C210.43376153 -0.0969638 212.65927335 0.05880278 215.64570618 2.20025539 C217.79317281 5.39097514 217.58770688 7.62938441 217.11791992 11.38768005 C215.35776862 14.57271575 214.61901076 15.22064977 211.11791992 16.38768005 C208.22728466 16.48609671 205.36077945 16.52671809 202.46998596 16.52139282 C201.57594698 16.52365838 200.68190801 16.52592394 199.76077694 16.52825814 C196.75293987 16.53460865 193.74514774 16.53376811 190.73730469 16.53294373 C188.58574363 16.53593454 186.4341831 16.53933689 184.28262329 16.54312134 C178.42941038 16.55197292 172.57621209 16.55429992 166.72299314 16.55493712 C161.84203338 16.55588527 156.96107704 16.55956243 152.0801186 16.56310922 C140.56822184 16.571258 129.0563329 16.57369305 117.54443359 16.57298279 C105.65598043 16.57238171 93.76757259 16.58293855 81.8791309 16.59872645 C71.68291178 16.61178623 61.4867075 16.61716735 51.29048008 16.61652738 C45.19598768 16.61627195 39.10153556 16.6191477 33.00705147 16.62970543 C27.27713776 16.63936028 21.54730306 16.6394836 15.81738663 16.6321888 C13.71145068 16.63113973 11.60550988 16.63352482 9.49958229 16.63954926 C6.63057337 16.64722666 3.76184019 16.64265266 0.89283752 16.63491821 C0.05441757 16.64006178 -0.78400238 16.64520534 -1.647829 16.65050477 C-8.75822586 16.60798174 -8.75822586 16.60798174 -11.88208008 14.38768005 C-13.96367028 11.7113498 -13.87795598 10.27014338 -13.75708008 6.82518005 C-12.88208008 3.38768005 -12.88208008 3.38768005 -11.38252258 1.69706631 C-7.68754564 -0.23785201 -4.07302464 -0.02881888 0 0 Z " fill="#28aa4a" transform="translate(95.882080078125,239.61231994628906)"/>
<path d="M0 0 C1.58572815 -0.01073296 1.58572815 -0.01073296 3.20349121 -0.02168274 C4.9505687 -0.02571609 4.9505687 -0.02571609 6.73294067 -0.02983093 C7.95575745 -0.03640213 9.17857422 -0.04297333 10.43844604 -0.04974365 C13.79800588 -0.06609853 17.1575027 -0.07770533 20.51708746 -0.08594918 C22.61535864 -0.09109848 24.7136254 -0.0971742 26.81189346 -0.10346031 C33.37503219 -0.12251151 39.93815966 -0.13674355 46.50132072 -0.14507228 C54.08108019 -0.15484961 61.66054802 -0.18118198 69.24020469 -0.22157317 C75.09673719 -0.25171282 80.95318598 -0.26653903 86.80979455 -0.26985329 C90.30882267 -0.272206 93.80753919 -0.28119453 97.30648422 -0.30631447 C101.20914855 -0.3338804 105.11142758 -0.32977062 109.01419067 -0.32279968 C110.17486053 -0.33560974 111.3355304 -0.3484198 112.53137207 -0.36161804 C113.59416382 -0.35467422 114.65695557 -0.34773041 115.75195312 -0.34057617 C117.1362769 -0.3441587 117.1362769 -0.3441587 118.54856682 -0.34781361 C121.76352951 0.30055724 122.96417268 1.63677199 125.00296021 4.14717102 C125.71178324 7.05501983 125.34267809 9.08971002 125.00296021 12.14717102 C123.19132754 14.82148591 122.12534944 15.10637461 119.00296021 16.14717102 C117.33956966 16.24526018 115.67254791 16.28641059 114.00628662 16.29434204 C112.97444748 16.30149734 111.94260834 16.30865265 110.87950134 16.31602478 C109.18225166 16.32005814 109.18225166 16.32005814 107.45071411 16.32417297 C105.66257042 16.33402977 105.66257042 16.33402977 103.83830261 16.34408569 C99.88538249 16.36383006 95.93247564 16.37548402 91.97952271 16.38545227 C90.61789301 16.38950051 89.25626352 16.39361745 87.89463425 16.39780235 C81.49861894 16.41684638 75.10261514 16.43108033 68.70657694 16.43941432 C61.32549575 16.44919104 53.9447141 16.47552482 46.56373847 16.51591522 C40.85663811 16.54607357 35.14962366 16.56088282 29.44244516 16.56419533 C26.03449923 16.56654574 22.62687361 16.57550449 19.21901321 16.60065651 C15.4170956 16.62491408 11.6159661 16.62410712 7.81399536 16.61714172 C6.12281837 16.63635681 6.12281837 16.63635681 4.3974762 16.65596008 C-3.2092552 16.60504844 -3.2092552 16.60504844 -7.17272949 14.3013916 C-9.54044843 11.50549177 -9.99703979 9.80314074 -9.99703979 6.14717102 C-7.51205472 0.82220301 -5.6622361 0.02624088 0 0 Z " fill="#28aa4a" transform="translate(91.99703979492188,277.8528289794922)"/>
<path d="M0 0 C1.60041138 -0.01485695 1.60041138 -0.01485695 3.2331543 -0.03001404 C4.40362808 -0.02551239 5.57410187 -0.02101074 6.78004456 -0.01637268 C8.62911911 -0.02666756 8.62911911 -0.02666756 10.51554871 -0.03717041 C13.89794876 -0.05235314 17.27979855 -0.05392767 20.66219211 -0.04822803 C23.48531755 -0.0451405 26.30839294 -0.05122378 29.13151127 -0.05726677 C35.79157893 -0.07132095 42.45151835 -0.06974354 49.11158752 -0.05836487 C55.98326417 -0.04688411 62.85455052 -0.0609562 69.72617573 -0.08776134 C75.62521631 -0.10991132 81.52413432 -0.1165573 87.42321354 -0.11068493 C90.94678246 -0.10731223 94.47010121 -0.10975068 97.99363518 -0.12693596 C101.9225942 -0.14526166 105.85107255 -0.13122513 109.78004456 -0.11402893 C110.94849411 -0.1236969 112.11694366 -0.13336487 113.32080078 -0.14332581 C114.92544189 -0.1285746 114.92544189 -0.1285746 116.5625 -0.11352539 C117.49145804 -0.11331611 118.42041609 -0.11310682 119.37752438 -0.1128912 C122.63365749 0.54774236 123.83001107 1.79101361 125.84474182 4.38768005 C126.30991603 8.1090737 126.3532914 10.42143585 124.59474182 13.76268005 C121.46479456 16.66905966 117.92308496 16.51423071 113.80374146 16.52812195 C112.78735596 16.53383209 111.77097046 16.53954224 110.7237854 16.54542542 C109.61458237 16.54654327 108.50537933 16.54766113 107.36256409 16.54881287 C105.60346207 16.55626022 105.60346207 16.55626022 103.80882263 16.56385803 C100.59601042 16.575952 97.38323456 16.58342057 94.17040372 16.58786869 C92.16223385 16.59080347 90.15406964 16.59490896 88.14590263 16.59937286 C81.85987804 16.61303764 75.57386644 16.62271015 69.28782803 16.62657475 C62.03642121 16.63105777 54.78520268 16.64862103 47.53385311 16.67757535 C41.924395 16.6991951 36.31498986 16.70927913 30.70549053 16.71061587 C27.35686587 16.7116634 24.00841845 16.71756011 20.65983772 16.73543549 C16.92518377 16.75245319 13.19099088 16.75062614 9.45631409 16.74412537 C7.79554588 16.75794754 7.79554588 16.75794754 6.10122681 16.77204895 C-3.35412877 16.72038289 -3.35412877 16.72038289 -7.15525818 13.38768005 C-9.15525818 10.38768005 -9.15525818 10.38768005 -8.96775818 6.88768005 C-7.65344384 1.22601828 -5.6978498 0.01491004 0 0 Z " fill="#28aa4a" transform="translate(91.15525817871094,353.61231994628906)"/>
<path d="M0 0 C0.98588356 -0.01270432 0.98588356 -0.01270432 1.99168396 -0.02566528 C4.16400511 -0.04906136 6.33561904 -0.0500569 8.50805664 -0.04882812 C10.01876611 -0.0559283 11.52947288 -0.06362709 13.04017639 -0.07189941 C16.20687353 -0.08535024 19.37332134 -0.08691046 22.54003906 -0.08105469 C26.59694437 -0.07515847 30.65265295 -0.10574214 34.70932674 -0.14617157 C37.82949765 -0.17203024 40.94937973 -0.17492773 44.06964302 -0.17127991 C45.56518117 -0.17297298 47.0607324 -0.18263367 48.5561657 -0.20042419 C50.64893362 -0.22258048 52.73927116 -0.21293406 54.83203125 -0.1953125 C56.6171537 -0.19839417 56.6171537 -0.19839417 58.43833923 -0.20153809 C61.48071289 0.41992188 61.48071289 0.41992188 63.90016174 2.73181152 C65.48071289 5.41992188 65.48071289 5.41992188 65.41821289 9.04492188 C64.16325257 13.56277902 64.16325257 13.56277902 61.48071289 15.41992188 C58.26259509 16.49262781 55.91256648 16.55965085 52.52807617 16.58105469 C51.3031546 16.59066223 50.07823303 16.60026978 48.81619263 16.61016846 C47.47780544 16.61501643 46.1394161 16.61929526 44.80102539 16.62304688 C43.42723591 16.62880105 42.05344644 16.63455875 40.67965698 16.64031982 C37.79969916 16.65081994 34.91976918 16.65666911 32.03979492 16.66015625 C28.35547533 16.66563978 24.67152552 16.68966847 20.98732185 16.7181282 C18.14939306 16.73678213 15.31155288 16.74196163 12.47356796 16.74349213 C11.11562961 16.74651285 9.7576926 16.75452185 8.39981461 16.76767731 C6.49733075 16.78479381 4.59469387 16.78100464 2.69213867 16.77636719 C1.610867 16.78001282 0.52959534 16.78365845 -0.58444214 16.78741455 C-3.96246295 16.3644287 -5.80178041 15.44302673 -8.51928711 13.41992188 C-10.51928711 10.41992188 -10.51928711 10.41992188 -10.33178711 6.91992188 C-8.84104876 0.49827974 -6.32464677 0.04477342 0 0 Z " fill="#28aa4a" transform="translate(92.519287109375,315.580078125)"/>
<path d="M0 0 C3.21142855 2.37366458 4.71584605 3.93442268 5.75 7.8125 C3.75495922 16.29142333 -6.33717127 23.48824543 -12.3125 29.4375 C-13.21806641 30.34693359 -14.12363281 31.25636719 -15.05664062 32.19335938 C-15.92095703 33.05638672 -16.78527344 33.91941406 -17.67578125 34.80859375 C-18.45864502 35.59032959 -19.24150879 36.37206543 -20.0480957 37.17749023 C-23.2039083 40.1240995 -25.69526105 40.41073343 -30.01953125 40.33984375 C-32 40 -32 40 -34.5625 37.9375 C-36.47885549 34.02146921 -36.08425215 32.20530021 -35 28 C-33.30372751 25.51355156 -31.24113145 23.51553396 -29.06640625 21.4453125 C-28.47327133 20.85829559 -27.88013641 20.27127869 -27.26902771 19.66647339 C-25.38050227 17.80477946 -23.47187402 15.96527929 -21.5625 14.125 C-20.28188621 12.86592137 -19.00257415 11.60551729 -17.72460938 10.34375 C-6.42195252 -0.75552383 -6.42195252 -0.75552383 0 0 Z " fill="#28aa4a" transform="translate(118,157)"/>
<path d="M0 0 C1.04269043 -0.00574036 1.04269043 -0.00574036 2.10644531 -0.01159668 C3.57228041 -0.0143118 5.03816428 -0.00697835 6.50390625 0.00976562 C8.74328975 0.03118581 10.97946587 0.00995557 13.21875 -0.015625 C14.64584039 -0.01298165 16.07292879 -0.0078565 17.5 0 C19.44132812 0.00676758 19.44132812 0.00676758 21.421875 0.01367188 C24.75 0.53125 24.75 0.53125 27.17578125 2.34570312 C29.46107289 5.51845914 29.22680363 7.71682094 28.75 11.53125 C26.98984869 14.7162857 26.25109084 15.36421972 22.75 16.53125 C18.12916564 16.79420488 13.50250217 16.76272146 8.875 16.78125 C6.95494141 16.8121875 6.95494141 16.8121875 4.99609375 16.84375 C3.76246094 16.84890625 2.52882812 16.8540625 1.2578125 16.859375 C0.13004395 16.8687207 -0.99772461 16.87806641 -2.15966797 16.88769531 C-5.61225164 16.48946714 -7.47932854 15.59340774 -10.25 13.53125 C-11.79586876 10.43951248 -11.54359521 7.93695448 -11.25 4.53125 C-8.07869482 0.0906319 -5.2658092 0.0183569 0 0 Z " fill="#28aa4a" transform="translate(188.25,315.46875)"/>
</svg>
