<?xml version="1.0" standalone="no"?>
<!DOCTYPE svg PUBLIC "-//W3C//DTD SVG 20010904//EN"
 "http://www.w3.org/TR/2001/REC-SVG-20010904/DTD/svg10.dtd">
<svg version="1.0" xmlns="http://www.w3.org/2000/svg"
 width="100" height="100" viewBox="0 0 512.000000 512.000000"
 preserveAspectRatio="xMidYMid meet">

<g transform="translate(0.000000,512.000000) scale(0.100000,-0.100000)"
fill="#28aa4a" stroke="none">
<path d="M52 5094 c-55 -39 -52 103 -52 -2139 0 -2277 -5 -2106 62 -2141 55
-29 95 -14 163 60 l60 66 185 -197 c102 -107 199 -204 215 -214 17 -11 45 -19
63 -19 39 0 61 19 310 264 l162 161 213 -218 c197 -203 214 -218 247 -217 19
0 47 8 62 18 15 9 109 105 209 212 100 107 185 196 190 198 4 2 70 -57 146
-130 269 -258 291 -278 307 -278 14 0 16 18 16 141 l0 142 -162 157 c-249 240
-262 250 -308 250 -50 0 -66 -14 -287 -252 l-166 -179 -211 216 c-278 284
-226 284 -514 4 l-217 -211 -205 211 c-113 116 -216 215 -230 220 -14 4 -40 6
-58 4 l-32 -5 2 1828 3 1829 1928 3 1927 2 0 -845 0 -845 110 0 110 0 0 926 0
926 -34 34 -34 34 -2079 0 c-1867 0 -2081 -2 -2101 -16z"/>
<path d="M680 4325 l0 -125 150 0 150 0 0 -380 0 -381 148 3 147 3 3 378 2
377 150 0 150 0 0 125 0 125 -450 0 -450 0 0 -125z"/>
<path d="M1715 3958 c-98 -271 -180 -499 -183 -506 -3 -10 28 -12 149 -10
l152 3 8 25 c4 14 15 51 24 83 l16 57 169 0 169 0 26 -85 26 -85 154 0 c85 0
155 2 155 4 0 2 -81 228 -180 502 -99 273 -180 499 -180 501 0 1 -73 3 -163 3
l-164 0 -178 -492z m388 53 c26 -88 47 -164 47 -170 0 -7 -36 -11 -101 -11
-92 0 -101 2 -97 18 31 114 94 322 99 322 3 0 27 -72 52 -159z"/>
<path d="M2620 4440 c0 -6 65 -114 145 -241 83 -130 143 -235 139 -242 -4 -7
-76 -121 -160 -254 -85 -133 -154 -246 -154 -252 0 -7 52 -11 160 -11 l159 0
87 148 c48 81 92 153 99 160 9 10 31 -19 106 -145 l94 -158 163 -3 c103 -2
162 1 162 8 0 5 -72 122 -160 260 l-160 251 145 234 c80 129 145 239 145 245
0 7 -49 10 -157 8 l-158 -3 -80 -147 c-44 -82 -82 -148 -86 -148 -4 0 -44 68
-90 150 l-82 150 -159 0 c-103 0 -158 -4 -158 -10z"/>
<path d="M804 3050 c-31 -12 -54 -49 -54 -85 1 -34 15 -56 47 -73 31 -17 1565
-17 1596 0 54 28 65 98 21 139 l-26 24 -781 2 c-430 1 -792 -2 -803 -7z"/>
<path d="M3069 2858 c-20 -11 -46 -38 -58 -58 l-21 -38 0 -1319 0 -1320 23
-34 c12 -18 38 -44 56 -56 l34 -23 958 2 c949 3 958 3 986 24 15 11 38 40 51
64 l22 45 -2 1316 -3 1316 -28 36 c-54 72 17 67 -1034 67 -946 0 -948 0 -984
-22z m1921 -108 c20 -20 20 -33 20 -1303 0 -1092 -2 -1286 -14 -1303 -14 -19
-37 -19 -932 -22 -811 -2 -920 -1 -941 13 l-23 15 0 1295 c0 1163 2 1295 16
1309 14 14 112 16 935 16 906 0 919 0 939 -20z"/>
<path d="M3279 2541 l-29 -29 0 -252 c0 -262 5 -298 45 -314 9 -3 353 -6 764
-6 l748 0 21 23 c21 23 22 30 22 291 l0 267 -25 24 -24 25 -746 0 -747 0 -29
-29z m1481 -286 l0 -225 -710 0 -710 0 0 218 c0 120 3 222 7 225 3 4 323 7
710 7 l703 0 0 -225z"/>
<path d="M4590 2256 l0 -146 25 0 26 0 -3 143 c-3 139 -4 142 -25 145 -23 3
-23 3 -23 -142z"/>
<path d="M3341 1656 c-8 -9 -11 -57 -9 -147 l3 -134 149 -3 c101 -2 153 1 162
9 17 14 20 239 4 270 -10 17 -23 19 -154 19 -110 0 -146 -3 -155 -14z"/>
<path d="M3901 1656 c-8 -9 -11 -57 -9 -147 l3 -134 149 -3 c101 -2 153 1 162
9 19 15 20 259 2 277 -18 18 -292 17 -307 -2z"/>
<path d="M4461 1656 c-8 -9 -11 -57 -9 -147 l3 -134 154 -3 c117 -2 156 1 163
10 13 21 10 262 -4 276 -18 18 -292 17 -307 -2z"/>
<path d="M3334 1127 c-2 -7 -3 -74 -2 -148 l3 -134 149 -3 c101 -2 153 1 162
9 19 15 20 259 2 277 -18 18 -307 17 -314 -1z"/>
<path d="M3897 1133 c-4 -3 -7 -68 -7 -144 0 -116 2 -138 16 -143 31 -12 289
-7 302 6 17 17 17 259 0 276 -13 13 -299 18 -311 5z"/>
<path d="M4462 1128 c-17 -17 -17 -259 0 -276 17 -17 289 -17 306 0 17 17 17
259 0 276 -17 17 -289 17 -306 0z"/>
<path d="M3337 603 c-13 -12 -8 -268 5 -281 8 -8 56 -12 149 -12 112 0 141 3
153 16 13 12 16 40 16 138 0 81 -4 126 -12 134 -13 13 -299 18 -311 5z"/>
<path d="M3897 603 c-13 -12 -8 -268 5 -281 17 -17 289 -17 306 0 17 17 17
259 0 276 -13 13 -299 18 -311 5z"/>
<path d="M4457 603 c-13 -12 -8 -268 5 -281 17 -17 289 -17 306 0 13 13 18
242 6 272 -5 14 -29 16 -158 16 -84 0 -156 -3 -159 -7z"/>
<path d="M804 2480 c-47 -19 -70 -93 -41 -131 30 -39 33 -39 837 -39 l782 0
30 30 c26 27 30 36 25 67 -4 20 -16 46 -27 57 -20 21 -28 21 -803 23 -431 1
-792 -2 -803 -7z"/>
<path d="M834 1913 c-31 -6 -54 -35 -60 -75 -5 -27 -1 -41 19 -64 l25 -29 547
-3 546 -3 30 30 c36 37 38 79 5 118 l-24 28 -534 1 c-293 1 -543 0 -554 -3z"/>
</g>
</svg>
