<?xml version="1.0" standalone="no"?>
<!DOCTYPE svg PUBLIC "-//W3C//DTD SVG 20010904//EN"
 "http://www.w3.org/TR/2001/REC-SVG-20010904/DTD/svg10.dtd">
<svg version="1.0" xmlns="http://www.w3.org/2000/svg"
 width="100" height="100" viewBox="0 0 512.000000 512.000000"
 preserveAspectRatio="xMidYMid meet">

<g transform="translate(0.000000,512.000000) scale(0.100000,-0.100000)"
fill="#28aa4a" stroke="none">
<path d="M1389 5067 c-102 -29 -171 -88 -218 -187 l-26 -55 -3 -1262 -2 -1263
-43 0 c-164 -1 -383 -65 -538 -157 -105 -62 -128 -83 -135 -120 -5 -26 -1 -37
19 -57 36 -36 68 -33 135 13 347 235 805 223 1142 -30 184 -139 314 -346 367
-583 19 -87 21 -288 4 -371 -48 -233 -172 -442 -346 -582 -88 -71 -261 -161
-360 -187 -473 -123 -971 118 -1154 559 -132 315 -100 643 89 936 22 34 40 72
40 83 0 50 -54 85 -103 67 -14 -6 -46 -43 -76 -91 -92 -142 -141 -274 -166
-440 -97 -636 353 -1219 997 -1290 249 -28 535 40 728 174 l45 31 1550 5 1550
5 49 24 c66 33 122 91 155 160 l26 56 3 1390 c3 1515 4 1482 -54 1666 -34 110
-104 245 -175 339 -89 117 -898 917 -989 977 -97 65 -180 106 -276 139 -178
60 -133 57 -1204 60 -767 2 -995 0 -1031 -9z m1790 -148 c182 -29 347 -167
414 -346 20 -54 22 -80 27 -398 l5 -340 26 -56 c36 -76 86 -129 156 -165 l58
-29 345 -5 c344 -6 345 -6 413 -33 168 -66 291 -207 332 -379 21 -90 23 -2601
1 -2651 -15 -37 -76 -94 -109 -102 -12 -3 -664 -4 -1449 -3 l-1428 3 60 80
c72 95 152 253 178 350 l19 70 732 5 733 5 19 24 c22 28 25 69 5 97 -14 18
-36 19 -737 24 l-723 5 -2 100 c-1 55 -5 126 -9 158 l-7 57 1085 0 c775 0
1093 3 1110 11 25 11 47 47 47 75 0 8 -11 26 -25 39 l-24 25 -1121 0 c-828 0
-1120 3 -1120 11 0 20 -86 192 -124 248 -20 29 -36 55 -36 57 0 2 540 4 1199
4 1127 0 1200 1 1220 18 11 9 24 31 27 49 5 26 1 37 -19 57 l-26 26 -1272 0
-1271 0 -79 60 c-131 98 -305 174 -491 214 l-28 6 0 1238 c0 830 4 1249 11
1275 12 46 68 103 112 116 46 13 1684 14 1766 0z m523 -100 c35 -17 90 -50
123 -72 65 -43 845 -812 925 -912 57 -72 111 -162 140 -234 22 -57 21 -57 -49
-3 -56 42 -129 79 -206 105 -54 18 -96 21 -400 26 -383 7 -382 7 -433 83 l-27
41 -6 341 c-5 290 -8 349 -23 396 -25 75 -72 167 -110 215 -49 61 -51 67 -22
56 13 -6 53 -24 88 -42z"/>
<path d="M1613 4480 c-45 -18 -55 -72 -23 -113 18 -23 29 -26 88 -29 l67 -3 3
-297 2 -297 26 -20 c46 -36 93 -22 114 33 6 17 10 138 10 307 l0 279 63 0 c53
0 67 4 85 23 29 31 28 72 -3 102 -24 25 -25 25 -217 24 -106 0 -203 -4 -215
-9z"/>
<path d="M2299 4476 c-31 -18 -25 -4 -170 -384 -109 -288 -119 -318 -108 -344
21 -50 68 -62 111 -28 14 10 35 46 47 80 l22 61 141 -3 140 -3 22 -59 c33 -87
81 -117 133 -81 44 31 39 49 -92 397 -69 183 -133 341 -143 350 -24 24 -72 31
-103 14z m115 -443 c7 -23 6 -23 -73 -23 -45 0 -81 1 -81 3 0 2 32 87 72 187
9 23 12 18 42 -60 18 -47 36 -95 40 -107z"/>
<path d="M2802 4480 c-31 -13 -48 -54 -36 -88 6 -15 50 -82 98 -150 52 -74 84
-127 80 -135 -4 -6 -54 -78 -111 -158 -68 -97 -103 -156 -103 -173 0 -32 41
-76 70 -76 38 0 55 17 144 144 48 69 91 128 96 131 5 3 50 -53 100 -125 92
-131 111 -150 150 -150 28 0 70 43 70 73 0 15 -43 86 -111 182 -61 86 -108
162 -106 168 3 7 46 70 96 141 50 71 91 135 91 142 0 52 -61 96 -104 76 -12
-5 -56 -57 -96 -114 -40 -56 -76 -107 -80 -111 -4 -5 -44 43 -88 106 -88 124
-107 138 -160 117z"/>
<path d="M2336 2929 c-33 -26 -36 -79 -6 -109 20 -20 33 -20 1064 -20 l1045 0
20 26 c12 15 21 33 21 40 0 26 -23 62 -47 73 -17 8 -319 11 -1047 11 -1020 0
-1023 0 -1050 -21z"/>
<path d="M1823 2468 c-46 -22 -45 -114 2 -132 9 -3 465 -6 1014 -6 l998 0 21
23 c31 33 29 80 -4 106 -27 21 -30 21 -1018 20 -677 0 -998 -4 -1013 -11z"/>
<path d="M4074 2470 c-48 -19 -52 -105 -5 -129 12 -7 89 -11 191 -11 170 0
171 0 197 26 20 20 24 31 19 57 -12 62 -29 67 -215 66 -91 0 -175 -4 -187 -9z"/>
<path d="M1507 1698 c-12 -13 -127 -231 -255 -486 -128 -254 -236 -462 -240
-462 -4 0 -93 86 -197 190 -207 207 -220 215 -270 165 -51 -50 -45 -59 212
-316 130 -131 247 -240 260 -244 58 -14 62 -8 344 550 148 292 269 540 269
553 0 31 -43 72 -75 72 -14 0 -36 -10 -48 -22z"/>
</g>
</svg>
