<?xml version="1.0" standalone="no"?>
<!DOCTYPE svg PUBLIC "-//W3C//DTD SVG 20010904//EN"
 "http://www.w3.org/TR/2001/REC-SVG-20010904/DTD/svg10.dtd">
<svg version="1.0" xmlns="http://www.w3.org/2000/svg"
 width="100" height="100" viewBox="0 0 512.000000 512.000000"
 preserveAspectRatio="xMidYMid meet">

<g transform="translate(0.000000,512.000000) scale(0.100000,-0.100000)"
fill="#28aa4a" stroke="none">
<path d="M910 4656 c-90 -24 -163 -87 -204 -175 -20 -44 -21 -62 -24 -530 -2
-312 1 -502 8 -533 35 -164 170 -291 337 -318 32 -6 259 -10 505 -10 l448 0 2
-1198 3 -1197 33 -67 c35 -72 77 -113 152 -150 l45 -23 1175 0 1175 0 57 28
c65 32 121 89 152 156 20 45 21 60 24 527 3 476 3 481 -18 507 -28 35 -87 38
-116 6 -18 -20 -19 -47 -24 -494 -5 -459 -6 -474 -26 -501 -11 -15 -33 -37
-48 -48 -27 -21 -32 -21 -1176 -21 l-1149 0 -28 21 c-15 12 -37 36 -48 55 -20
34 -20 57 -25 1605 l-5 1570 -36 72 -35 72 1230 0 c1180 0 1233 -1 1266 -19
19 -10 45 -36 57 -57 l23 -39 0 -987 0 -987 23 -27 c33 -38 81 -37 114 0 l23
28 -2 1011 -3 1012 -27 51 c-36 68 -113 136 -178 157 -46 15 -112 17 -565 17
l-513 0 -4 133 c-3 106 -8 141 -25 178 -30 66 -86 124 -151 156 l-57 28 -359
3 c-198 2 -370 1 -383 -3 -57 -14 -80 -81 -44 -126 l19 -24 370 -5 c355 -5
372 -6 398 -26 61 -45 69 -66 72 -194 l4 -120 -859 -2 -858 -3 -65 -31 c-95
-46 -153 -101 -197 -192 l-38 -76 -5 -210 c-5 -185 -8 -217 -26 -256 -23 -50
-80 -105 -130 -126 -47 -20 -141 -17 -189 5 -61 27 -122 102 -135 164 -8 35
-10 198 -8 509 3 443 4 457 24 484 11 15 33 37 48 48 27 21 40 21 690 26 521
4 666 8 678 18 39 32 28 110 -18 131 -37 16 -1292 14 -1354 -3z m937 -674 c46
-24 99 -81 119 -128 11 -26 14 -99 14 -319 l0 -285 -286 0 c-157 0 -284 3
-282 8 65 127 78 197 78 418 0 160 6 187 60 248 32 36 70 61 120 77 40 13 133
3 177 -19z"/>
<path d="M2431 3754 c-28 -35 -26 -67 3 -101 l24 -28 904 -3 c496 -1 918 0
936 3 68 12 96 89 49 133 l-23 22 -936 0 -937 0 -20 -26z"/>
<path d="M2431 3304 c-28 -35 -26 -67 3 -101 l24 -28 914 -3 c502 -1 923 0
936 3 61 15 83 92 39 133 l-23 22 -936 0 -937 0 -20 -26z"/>
<path d="M895 2969 c-118 -14 -280 -56 -364 -96 -93 -44 -184 -130 -200 -188
-15 -55 -15 -1395 0 -1449 14 -52 88 -129 163 -171 76 -42 189 -79 309 -102
129 -24 438 -24 562 0 238 47 387 124 453 235 l27 47 0 715 0 715 -28 47
c-108 184 -512 292 -922 247z m351 -160 c212 -23 394 -95 435 -171 16 -29 -16
-75 -74 -108 -278 -161 -906 -141 -1092 34 -43 41 -44 65 -2 107 107 108 442
171 733 138z m-606 -488 c111 -36 209 -51 376 -58 236 -9 454 25 603 92 29 14
57 25 62 25 5 0 9 -47 9 -105 0 -102 -1 -105 -31 -139 -67 -77 -228 -129 -456
-148 -312 -26 -592 34 -693 148 -30 34 -30 36 -30 145 l0 109 48 -23 c26 -14
76 -34 112 -46z m61 -455 c311 -79 707 -53 931 60 26 13 50 24 53 24 3 0 5
-46 5 -102 0 -85 -4 -109 -20 -136 -132 -216 -973 -229 -1158 -17 -32 35 -32
37 -32 145 l0 109 63 -30 c35 -16 106 -40 158 -53z m-150 -385 c157 -71 316
-101 529 -101 244 1 369 27 598 127 9 4 12 -21 12 -108 l0 -112 -44 -42 c-79
-77 -275 -131 -506 -142 -259 -12 -534 52 -627 146 l-33 33 0 114 c0 63 2 114
4 114 2 0 32 -13 67 -29z"/>
<path d="M2441 2863 c-34 -29 -37 -74 -8 -109 l25 -29 507 0 507 0 19 24 c26
32 25 82 -4 109 -23 22 -24 22 -524 22 -462 0 -502 -1 -522 -17z"/>
<path d="M3702 2860 c-28 -26 -29 -79 -3 -111 l19 -24 284 -3 c155 -2 293 0
306 3 61 15 83 92 39 133 -23 22 -29 22 -323 22 -288 0 -301 -1 -322 -20z"/>
<path d="M2435 2405 c-39 -38 -27 -102 22 -124 17 -8 291 -11 944 -11 l920 0
24 25 c33 32 34 83 2 113 l-23 22 -933 0 -932 0 -24 -25z"/>
<path d="M2939 2082 c-39 -20 -62 -41 -84 -77 -30 -48 -30 -50 -33 -209 -3
-161 -3 -161 25 -216 39 -75 112 -120 193 -120 103 0 193 66 220 161 13 45 13
284 -1 332 -6 21 -27 57 -47 79 -74 82 -176 101 -273 50z m151 -152 c18 -18
20 -33 20 -143 0 -141 -10 -167 -62 -167 -60 0 -68 18 -68 159 0 98 3 132 16
149 19 28 67 29 94 2z"/>
<path d="M3606 1918 c-14 -13 -145 -198 -291 -413 -192 -282 -265 -397 -265
-418 0 -61 82 -100 128 -59 11 9 139 193 286 409 291 428 295 438 240 482 -34
27 -67 27 -98 -1z"/>
<path d="M3645 1471 c-22 -10 -52 -31 -67 -47 -50 -54 -58 -89 -58 -261 0
-138 2 -162 21 -200 79 -163 319 -163 398 0 19 38 21 61 21 206 0 178 -7 207
-67 263 -61 58 -170 75 -248 39z m139 -157 c24 -23 23 -269 -1 -296 -20 -22
-61 -23 -85 -1 -16 14 -18 33 -18 149 0 146 6 164 60 164 16 0 36 -7 44 -16z"/>
</g>
</svg>
