<?xml version="1.0" standalone="no"?>
<!DOCTYPE svg PUBLIC "-//W3C//DTD SVG 20010904//EN"
 "http://www.w3.org/TR/2001/REC-SVG-20010904/DTD/svg10.dtd">
<svg version="1.0" xmlns="http://www.w3.org/2000/svg"
 width="100" height="100" viewBox="0 0 512.000000 512.000000"
 preserveAspectRatio="xMidYMid meet">

<g transform="translate(0.000000,512.000000) scale(0.100000,-0.100000)"
fill="#28aa4a" stroke="none">
<path d="M1970 5098 c-26 -14 -53 -37 -65 -58 -19 -34 -20 -55 -25 -830 l-5
-795 -850 -5 -850 -5 -48 -28 c-56 -33 -99 -89 -116 -149 -9 -32 -11 -415 -9
-1543 l3 -1500 22 -40 c25 -47 74 -95 123 -121 34 -18 81 -19 1130 -19 1049 0
1096 1 1130 19 49 26 98 74 123 121 19 35 22 59 25 202 l4 162 882 3 881 3 65
32 c56 28 106 74 367 335 258 259 306 312 330 363 l28 60 0 1851 0 1850 -25
37 c-14 21 -43 46 -66 57 -40 20 -64 20 -1525 20 l-1485 0 -44 -22z m2980
-1938 l0 -1790 -252 0 c-139 0 -271 -5 -292 -10 -45 -10 -81 -34 -110 -74 -20
-26 -21 -44 -26 -314 l-5 -287 -852 -3 -853 -2 0 1258 c0 1383 3 1307 -60
1384 -17 20 -53 48 -82 62 -49 25 -60 26 -210 26 l-158 0 0 770 0 770 1450 0
1450 0 0 -1790z m-2605 74 c47 -18 45 34 45 -1534 l0 -1472 -29 -29 -29 -29
-1052 0 -1052 0 -29 29 -29 29 0 1472 c0 1279 2 1475 15 1500 8 15 20 30 27
33 19 8 2113 8 2133 1z m2475 -2047 c0 -1 -85 -88 -190 -192 l-190 -190 0 193
0 192 190 0 c105 0 190 -1 190 -3z"/>
<path d="M2419 4581 c-34 -35 -38 -77 -10 -112 17 -22 29 -24 128 -29 l108 -5
3 -315 c2 -306 3 -315 24 -337 23 -25 74 -31 108 -13 35 19 40 64 40 371 l0
299 100 0 c94 0 103 2 125 25 37 36 34 86 -6 119 l-31 26 -280 0 -280 0 -29
-29z"/>
<path d="M3357 4600 c-40 -12 -94 -56 -112 -89 -8 -16 -51 -174 -95 -352 -72
-287 -80 -326 -69 -352 22 -53 98 -67 135 -26 10 11 30 66 44 122 l27 102 126
3 126 3 10 -38 c5 -21 18 -69 27 -107 21 -83 40 -106 92 -106 48 0 82 32 82
78 0 57 -149 634 -175 679 -41 70 -138 107 -218 83z m105 -275 c40 -153 43
-145 -53 -145 -72 0 -80 2 -75 18 3 9 17 66 32 125 24 97 29 108 48 105 18 -3
25 -19 48 -103z"/>
<path d="M3975 4598 c-32 -17 -45 -39 -45 -77 0 -28 20 -61 115 -188 l115
-153 -115 -153 c-95 -128 -115 -160 -115 -189 0 -45 34 -78 81 -78 19 0 39 4
46 8 7 4 57 67 111 139 l99 132 91 -123 c100 -134 117 -153 147 -157 59 -9
114 44 101 97 -4 13 -54 87 -112 165 -58 77 -108 147 -110 154 -3 8 41 76 99
152 57 76 109 148 116 161 34 64 -39 141 -107 112 -16 -6 -65 -63 -122 -140
-52 -71 -98 -129 -101 -130 -4 0 -51 59 -105 131 -108 145 -137 166 -189 137z"/>
<path d="M2759 3301 c-16 -16 -29 -39 -29 -51 0 -29 26 -76 45 -84 9 -3 433
-6 941 -6 l925 0 24 25 c42 41 31 105 -22 133 -16 9 -261 12 -938 12 l-917 0
-29 -29z"/>
<path d="M2783 2980 c-36 -15 -56 -55 -49 -95 12 -61 26 -65 254 -65 202 0
203 0 227 25 34 33 34 83 -1 116 -25 23 -30 24 -217 26 -106 1 -202 -2 -214
-7z"/>
<path d="M3459 2975 c-51 -28 -59 -86 -16 -132 l20 -23 593 0 593 0 20 26 c29
37 27 85 -5 115 l-26 24 -576 2 c-480 2 -581 0 -603 -12z"/>
<path d="M2780 2633 c-41 -21 -58 -60 -44 -100 5 -16 24 -35 44 -46 33 -16 93
-17 947 -15 l911 3 26 24 c36 34 36 88 0 122 l-26 24 -911 3 c-854 2 -914 1
-947 -15z"/>
<path d="M2930 2280 c-11 -11 -23 -33 -26 -49 -4 -17 -16 -33 -29 -39 -38 -18
-95 -73 -116 -114 -60 -117 -16 -268 97 -334 24 -14 71 -29 106 -34 49 -7 68
-15 86 -35 47 -55 10 -135 -62 -135 -28 0 -44 8 -75 40 -48 48 -89 53 -126 15
-53 -52 -21 -137 70 -191 29 -17 45 -33 45 -46 0 -26 53 -78 80 -78 49 0 90
36 90 81 0 11 14 26 38 38 143 74 177 279 65 395 -48 49 -99 74 -165 82 -30 3
-61 11 -69 18 -21 15 -39 50 -39 75 0 29 40 70 77 77 27 5 37 0 76 -35 34 -32
52 -41 80 -41 52 0 82 29 82 79 0 35 -7 47 -44 85 -24 25 -57 50 -73 57 -20 8
-28 18 -28 36 0 61 -96 97 -140 53z"/>
<path d="M3447 2286 c-9 -7 -22 -27 -28 -44 -13 -39 8 -84 48 -101 21 -8 182
-11 600 -9 l571 3 26 24 c32 30 34 78 5 115 l-20 26 -592 0 c-477 -1 -595 -3
-610 -14z"/>
<path d="M3440 1935 c-32 -34 -32 -87 -2 -118 22 -22 26 -22 375 -25 193 -2
367 0 385 3 23 4 39 16 53 38 22 37 18 71 -13 105 l-21 22 -377 0 -377 0 -23
-25z"/>
<path d="M4465 1935 c-17 -16 -25 -35 -25 -57 1 -61 40 -88 125 -88 85 0 124
27 125 88 0 22 -8 41 -25 57 -21 22 -33 25 -100 25 -67 0 -79 -3 -100 -25z"/>
<path d="M3444 1596 c-39 -33 -39 -89 0 -122 l27 -24 280 0 c182 0 287 4 301
11 29 15 50 72 39 103 -21 54 -31 56 -338 56 l-282 0 -27 -24z"/>
<path d="M423 3045 c-27 -16 -49 -40 -62 -68 -20 -42 -21 -57 -21 -502 0 -445
1 -460 21 -502 14 -29 35 -52 63 -68 l43 -25 813 0 813 0 43 25 c28 16 49 39
63 68 20 42 21 57 21 502 0 445 -1 460 -21 502 -14 29 -35 52 -63 68 l-43 25
-814 0 -814 0 -42 -25z m1627 -570 l0 -425 -770 0 -770 0 0 425 0 425 770 0
770 0 0 -425z"/>
<path d="M944 2554 c-260 -208 -252 -201 -260 -241 -5 -27 -1 -37 24 -63 56
-55 66 -50 316 149 123 98 231 189 240 202 24 35 20 67 -13 100 -53 53 -64 47
-307 -147z"/>
<path d="M1533 2547 c-125 -101 -234 -195 -242 -208 -28 -51 15 -119 75 -119
26 0 71 32 263 186 137 109 236 195 241 210 13 34 3 70 -27 94 -52 40 -66 33
-310 -163z"/>
<path d="M457 1696 c-96 -35 -117 -84 -117 -281 0 -173 8 -209 52 -252 48 -46
76 -53 209 -53 136 0 179 14 221 72 22 31 23 43 26 212 2 117 -1 188 -8 206
-16 38 -68 85 -109 99 -47 15 -227 13 -274 -3z m223 -286 l0 -130 -85 0 -85 0
0 123 c0 68 3 127 7 130 3 4 42 7 85 7 l78 0 0 -130z"/>
<path d="M1149 1701 c-43 -14 -77 -41 -101 -80 -21 -32 -23 -51 -26 -186 -5
-171 4 -219 49 -270 42 -48 83 -57 230 -53 120 3 127 4 162 31 67 51 72 70 72
267 0 165 -1 177 -23 212 -42 68 -80 83 -217 85 -66 1 -132 -1 -146 -6z m219
-293 l3 -128 -91 0 -90 0 0 123 c0 68 3 127 7 131 4 4 43 5 88 4 l80 -3 3
-127z"/>
<path d="M1825 1698 c-38 -13 -90 -62 -105 -98 -7 -18 -10 -89 -8 -206 3 -169
4 -181 26 -212 42 -58 85 -72 221 -72 133 0 161 7 209 53 44 43 52 79 52 252
0 197 -21 246 -117 281 -45 16 -234 17 -278 2z m223 -290 l3 -128 -86 0 -85 0
0 130 0 131 83 -3 82 -3 3 -127z"/>
<path d="M445 921 c-89 -40 -105 -85 -105 -283 0 -127 4 -160 19 -193 38 -83
89 -105 244 -105 100 0 119 3 158 23 27 15 52 38 66 63 21 36 23 51 23 214 0
163 -2 178 -23 214 -14 25 -39 48 -66 63 -39 20 -58 23 -160 23 -91 0 -125 -4
-156 -19z m235 -281 l0 -130 -85 0 -85 0 0 130 0 130 85 0 85 0 0 -130z"/>
<path d="M1125 921 c-87 -40 -104 -86 -104 -281 0 -195 17 -241 104 -281 31
-15 65 -19 155 -19 101 0 122 3 160 22 84 44 100 88 99 288 0 184 -18 232
-104 271 -57 27 -253 27 -310 0z m240 -281 l0 -125 -85 0 -85 0 -3 114 c-1 63
0 121 2 128 4 10 26 13 88 11 l83 -3 0 -125z"/>
<path d="M1799 917 c-27 -15 -52 -38 -66 -63 -21 -36 -23 -51 -23 -214 0 -163
2 -178 23 -214 14 -25 39 -48 66 -63 39 -20 58 -23 158 -23 155 0 206 22 244
105 25 54 28 325 4 382 -38 89 -88 112 -246 113 -102 0 -121 -3 -160 -23z
m251 -277 l0 -130 -85 0 -85 0 0 130 0 130 85 0 85 0 0 -130z"/>
</g>
</svg>
