<?xml version="1.0" encoding="UTF-8"?>
<svg version="1.1" xmlns="http://www.w3.org/2000/svg" width="512" height="512">
<path d="M0 0 C0.66 -0.0103125 1.32 -0.020625 2 -0.03125 C4 0.5 4 0.5 8 4.5 C8 11.1 8 17.7 8 24.5 C23.84 24.5 39.68 24.5 56 24.5 C56 17.9 56 11.3 56 4.5 C60 0.5 60 0.5 62 -0.03125 C62.99 -0.01578125 62.99 -0.01578125 64 0 C64.66 -0.0103125 65.32 -0.020625 66 -0.03125 C68 0.5 68 0.5 72 4.5 C72 11.1 72 17.7 72 24.5 C93.12 24.5 114.24 24.5 136 24.5 C136 17.9 136 11.3 136 4.5 C140 0.5 140 0.5 142 -0.03125 C142.99 -0.01578125 142.99 -0.01578125 144 0 C144.66 -0.0103125 145.32 -0.020625 146 -0.03125 C148 0.5 148 0.5 152 4.5 C152 11.1 152 17.7 152 24.5 C167.84 24.5 183.68 24.5 200 24.5 C200 17.9 200 11.3 200 4.5 C204 0.5 204 0.5 206 -0.03125 C206.99 -0.01578125 206.99 -0.01578125 208 0 C208.99 -0.01546875 208.99 -0.01546875 210 -0.03125 C213.15312765 0.80629953 214.15596991 1.77475199 216 4.5 C216.48952097 7.92968726 216.37582359 11.29469075 216.25 14.75 C216.23195313 15.68585937 216.21390625 16.62171875 216.1953125 17.5859375 C216.14825673 19.89167015 216.08253713 22.19530945 216 24.5 C217.13953125 24.47905273 218.2790625 24.45810547 219.453125 24.43652344 C223.70966869 24.36373386 227.96615814 24.31805958 232.22314453 24.28027344 C234.06015293 24.26024627 235.89709829 24.23301618 237.73388672 24.19824219 C240.38525002 24.14932935 243.03576541 24.12694237 245.6875 24.109375 C246.49928711 24.08872986 247.31107422 24.06808472 248.14746094 24.04681396 C254.94284794 24.04418254 260.10990436 25.96739006 265.2421875 30.46484375 C265.78101563 31.11582031 266.31984375 31.76679687 266.875 32.4375 C267.42929687 33.08589844 267.98359375 33.73429687 268.5546875 34.40234375 C271.6292197 38.86457022 272.25071491 42.68941313 272.25726891 48.05872822 C272.26077498 48.70705942 272.26428105 49.35539061 272.26789337 50.02336821 C272.27720762 52.1988766 272.27228409 54.37411731 272.26742554 56.54963684 C272.27116179 58.12392653 272.27576321 59.69821437 272.28115618 61.27249926 C272.29340471 65.60118004 272.29312354 69.92978364 272.29076743 74.25847781 C272.29035973 78.92594703 272.30139392 83.59339135 272.31088257 88.260849 C272.32750368 97.4063016 272.33299262 106.55172842 272.33410732 115.69719485 C272.33505727 123.13026852 272.33916488 130.56333367 272.34550858 137.99640465 C272.36312399 159.06527877 272.37234697 180.13413251 272.37084763 201.20301405 C272.37076772 202.33911756 272.3706878 203.47522107 272.37060547 204.64575195 C272.37052371 205.7832408 272.37044195 206.92072966 272.37035771 208.09268787 C272.36954471 226.52953402 272.38868496 244.9662985 272.4168822 263.40312103 C272.44559892 282.32877147 272.45942317 301.25438206 272.45769465 320.18005484 C272.45703033 330.80745275 272.46254098 341.43476503 272.48405075 352.06214333 C272.50224659 361.11027198 272.50662302 370.1582762 272.4930319 379.20641521 C272.4864942 383.82311065 272.48641398 388.43956725 272.5037384 393.05624008 C272.51943874 397.28358842 272.51663674 401.51050793 272.49917014 405.73784562 C272.49609353 407.26609409 272.49975754 408.79437431 272.51089029 410.32258532 C272.57331237 419.50011709 272.35577628 426.52939247 266.03515625 433.7421875 C265.38417969 434.28101563 264.73320312 434.81984375 264.0625 435.375 C263.41410156 435.92929687 262.76570313 436.48359375 262.09765625 437.0546875 C258.08716256 439.81796993 254.52821057 440.74978909 249.69066143 440.75726891 C248.63365431 440.7637178 247.5766472 440.77016669 246.48760957 440.776811 C245.33256435 440.7737138 244.17751912 440.7706166 242.98747253 440.76742554 C241.75561212 440.77195665 240.52375171 440.77648776 239.2545622 440.78115618 C235.83795881 440.79162934 232.42156588 440.79312554 229.00496137 440.79076743 C225.31909322 440.79035931 221.63325647 440.80139799 217.94740295 440.81088257 C210.72702673 440.82749458 203.50668315 440.83299221 196.28628942 440.83410732 C190.41690685 440.83505772 184.54753506 440.83916758 178.6781559 440.84550858 C162.0362829 440.86312166 145.39443569 440.87234736 128.75255331 440.87084763 C127.85540945 440.87076772 126.95826559 440.8706878 126.03393555 440.87060547 C124.68657604 440.87048283 124.68657604 440.87048283 123.31199715 440.87035771 C108.7550575 440.86954482 94.19822133 440.88868292 79.64131161 440.9168822 C64.69330327 440.94561054 49.74534539 440.95942252 34.79730874 440.95769465 C26.40555566 440.95703072 18.01391106 440.96252415 9.62218285 440.98405075 C2.47712977 441.00226192 -4.66776568 441.00661047 -11.81283192 440.9930319 C-15.45742269 440.98650182 -19.10171103 440.98638613 -22.74627304 441.0037384 C-26.69982926 441.02236801 -30.65294389 441.00991549 -34.60652161 440.99447632 C-35.75487466 441.00476344 -36.90322772 441.01505057 -38.08637935 441.02564943 C-45.85553945 440.95854244 -51.23695273 439.79758323 -57.2421875 434.53515625 C-57.78101563 433.88417969 -58.31984375 433.23320312 -58.875 432.5625 C-59.42929687 431.91410156 -59.98359375 431.26570313 -60.5546875 430.59765625 C-63.6292197 426.13542978 -64.25071491 422.31058687 -64.25726891 416.94127178 C-64.26077498 416.29294058 -64.26428105 415.64460939 -64.26789337 414.97663179 C-64.27720762 412.8011234 -64.27228409 410.62588269 -64.26742554 408.45036316 C-64.27116179 406.87607347 -64.27576321 405.30178563 -64.28115618 403.72750074 C-64.29340471 399.39881996 -64.29312354 395.07021636 -64.29076743 390.74152219 C-64.29035973 386.07405297 -64.30139392 381.40660865 -64.31088257 376.739151 C-64.32750368 367.5936984 -64.33299262 358.44827158 -64.33410732 349.30280515 C-64.33505727 341.86973148 -64.33916488 334.43666633 -64.34550858 327.00359535 C-64.36312399 305.93472123 -64.37234697 284.86586749 -64.37084763 263.79698595 C-64.37076772 262.66088244 -64.3706878 261.52477893 -64.37060547 260.35424805 C-64.37052371 259.2167592 -64.37044195 258.07927034 -64.37035771 256.90731213 C-64.36954471 238.47046598 -64.38868496 220.0337015 -64.4168822 201.59687897 C-64.44559892 182.67122853 -64.45942317 163.74561794 -64.45769465 144.81994516 C-64.45703033 134.19254725 -64.46254098 123.56523497 -64.48405075 112.93785667 C-64.50224659 103.88972802 -64.50662302 94.8417238 -64.4930319 85.79358479 C-64.4864942 81.17688935 -64.48641398 76.56043275 -64.5037384 71.94375992 C-64.51943874 67.71641158 -64.51663674 63.48949207 -64.49917014 59.26215438 C-64.49609353 57.73390591 -64.49975754 56.20562569 -64.51089029 54.67741468 C-64.57331237 45.49988291 -64.35577628 38.47060753 -58.03515625 31.2578125 C-57.38417969 30.71898438 -56.73320313 30.18015625 -56.0625 29.625 C-55.41410156 29.07070313 -54.76570313 28.51640625 -54.09765625 27.9453125 C-48.82931994 24.31536011 -44.16814921 24.22747849 -37.98046875 24.3046875 C-36.69261223 24.30893234 -36.69261223 24.30893234 -35.3787384 24.31326294 C-32.64818125 24.3244193 -29.9179573 24.34951541 -27.1875 24.375 C-25.33138496 24.38503568 -23.47526476 24.3941605 -21.61914062 24.40234375 C-17.07929954 24.42434374 -12.53970619 24.45884219 -8 24.5 C-8.02094727 23.91508789 -8.04189453 23.33017578 -8.06347656 22.72753906 C-8.14680115 20.06853535 -8.19870897 17.40980645 -8.25 14.75 C-8.28351563 13.82960938 -8.31703125 12.90921875 -8.3515625 11.9609375 C-8.45005258 5.16512196 -8.45005258 5.16512196 -6.234375 1.890625 C-3.90397303 0.44023496 -2.71714866 -0.04245545 0 0 Z M-46 43.5 C-47.99021302 47.3349943 -48.25114001 50.56353204 -48.25447559 54.84567165 C-48.26030779 56.13381628 -48.26613998 57.4219609 -48.27214891 58.7491402 C-48.2685158 60.1766276 -48.26469143 61.60411452 -48.26069641 63.03160095 C-48.26371677 64.54956852 -48.26760567 66.06753457 -48.27228898 67.58549792 C-48.28259262 71.75842282 -48.28038115 75.93126204 -48.27610838 80.10419405 C-48.27364546 84.60393162 -48.2826499 89.10364832 -48.29014587 93.6033783 C-48.3029068 102.41929596 -48.30468485 111.23518319 -48.30234561 120.05110853 C-48.30056392 127.21532034 -48.30230889 134.3795229 -48.30657005 141.5437336 C-48.30716524 142.56265675 -48.30776043 143.5815799 -48.30837366 144.6313795 C-48.30958538 146.70119345 -48.31079952 148.77100739 -48.31201603 150.84082133 C-48.32289685 170.25916002 -48.32072646 189.67748136 -48.31463119 209.09582103 C-48.30946104 226.86795287 -48.3207191 244.64002991 -48.33972941 262.41215091 C-48.3590918 280.65300354 -48.36736665 298.89383023 -48.36360615 317.13469321 C-48.36169174 327.37859593 -48.36420503 337.622452 -48.37832069 347.86634636 C-48.39021507 356.58660266 -48.39166123 365.30678359 -48.37953053 374.02704089 C-48.37362828 378.47737854 -48.37257948 382.92757821 -48.38453293 387.3779068 C-48.39534585 391.45089076 -48.39234341 395.52362076 -48.37827124 399.59659261 C-48.37561161 401.07096801 -48.37803038 402.54536302 -48.38600711 404.01971924 C-48.3960923 406.02262003 -48.3859127 408.02559224 -48.37473011 410.02848721 C-48.37478513 411.14139517 -48.37484014 412.25430314 -48.37489682 413.40093559 C-47.93045314 417.07490538 -47.0334001 419.40794775 -45 422.5 C-41.63901605 424.4282108 -38.73425924 424.75065803 -34.90371799 424.75447559 C-33.38950853 424.76322388 -33.38950853 424.76322388 -31.84470898 424.77214891 C-30.7427728 424.76836958 -29.64083661 424.76459026 -28.50550842 424.76069641 C-27.32940661 424.76452196 -26.1533048 424.76834751 -24.94156355 424.77228898 C-21.68074411 424.78082283 -18.42006844 424.78038508 -15.15924513 424.77610838 C-11.64110922 424.77364268 -8.12299986 424.78265337 -4.60487366 424.79014587 C2.2859687 424.80289906 9.1767721 424.80468581 16.06762426 424.80234561 C21.66814494 424.80056305 27.26865379 424.80231076 32.86917305 424.80657005 C34.06451443 424.80746284 34.06451443 424.80746284 35.28400411 424.80837366 C36.90285806 424.8095854 38.521712 424.81079953 40.14056594 424.81201603 C55.32409628 424.82289388 70.50760442 424.82072787 85.69113601 424.81463119 C99.58335809 424.80946134 113.47551006 424.82071883 127.36771827 424.83972941 C141.6309287 424.85909813 155.89410595 424.86736554 170.15732962 424.86360615 C178.16558327 424.8616927 186.17377725 424.86419572 194.18202019 424.87832069 C200.9991977 424.89022314 207.81627879 424.89165217 214.63345759 424.87953053 C218.11168102 424.87363391 221.58972799 424.87256384 225.06793976 424.88453293 C228.83829964 424.89494207 232.60818239 424.88694606 236.37852478 424.8742218 C237.47823024 424.88159609 238.5779357 424.88897037 239.71096557 424.89656812 C247.30680746 424.85928393 247.30680746 424.85928393 254 421.5 C255.97000413 417.65172945 256.25113535 414.4424387 256.25447559 410.15432835 C256.26030779 408.86618372 256.26613998 407.5780391 256.27214891 406.2508598 C256.2685158 404.8233724 256.26469143 403.39588548 256.26069641 401.96839905 C256.26371677 400.45043148 256.26760567 398.93246543 256.27228898 397.41450208 C256.28259262 393.24157718 256.28038115 389.06873796 256.27610838 384.89580595 C256.27364546 380.39606838 256.2826499 375.89635168 256.29014587 371.3966217 C256.3029068 362.58070404 256.30468485 353.76481681 256.30234561 344.94889147 C256.30056392 337.78467966 256.30230889 330.6204771 256.30657005 323.4562664 C256.30746284 321.92788168 256.30746284 321.92788168 256.30837366 320.3686205 C256.30958538 318.29880655 256.31079952 316.22899261 256.31201603 314.15917867 C256.32289685 294.74083998 256.32072646 275.32251864 256.31463119 255.90417897 C256.30946104 238.13204713 256.3207191 220.35997009 256.33972941 202.58784909 C256.3590918 184.34699646 256.36736665 166.10616977 256.36360615 147.86530679 C256.36169174 137.62140407 256.36420503 127.377548 256.37832069 117.13365364 C256.39021507 108.41339734 256.39166123 99.69321641 256.37953053 90.97295911 C256.37362828 86.52262146 256.37257948 82.07242179 256.38453293 77.6220932 C256.39534585 73.54910924 256.39234341 69.47637924 256.37827124 65.40340739 C256.37561161 63.92903199 256.37803038 62.45463698 256.38600711 60.98028076 C256.3960923 58.97737997 256.3859127 56.97440776 256.37473011 54.97151279 C256.37481263 53.30215084 256.37481263 53.30215084 256.37489682 51.59906441 C255.93964193 48.00105323 254.86360925 45.59279754 253 42.5 C249.01840023 40.05524256 245.09551044 40.26816326 240.51171875 40.3046875 C239.80852005 40.3075174 239.10532135 40.31034729 238.3808136 40.31326294 C236.14953108 40.32439849 233.91865983 40.34949003 231.6875 40.375 C230.16862562 40.3850384 228.6497449 40.39416274 227.13085938 40.40234375 C223.42044079 40.42431587 219.71026058 40.45879953 216 40.5 C215.98541748 41.09014893 215.97083496 41.68029785 215.95581055 42.28833008 C215.88131156 44.96371229 215.78466005 47.63784892 215.6875 50.3125 C215.66494141 51.24126953 215.64238281 52.17003906 215.61914062 53.12695312 C215.58369141 54.01962891 215.54824219 54.91230469 215.51171875 55.83203125 C215.48553467 56.65421143 215.45935059 57.4763916 215.43237305 58.32348633 C214.90891645 60.95850359 214.0996762 61.87064611 212 63.5 C210.0625 63.8984375 210.0625 63.8984375 208 63.875 C207.319375 63.88273437 206.63875 63.89046875 205.9375 63.8984375 C204 63.5 204 63.5 201 60.5 C200.67 53.9 200.34 47.3 200 40.5 C184.16 40.5 168.32 40.5 152 40.5 C151.67 47.1 151.34 53.7 151 60.5 C148 63.5 148 63.5 146.0625 63.8984375 C145.381875 63.89070313 144.70125 63.88296875 144 63.875 C143.319375 63.88273437 142.63875 63.89046875 141.9375 63.8984375 C140 63.5 140 63.5 137 60.5 C136.67 53.9 136.34 47.3 136 40.5 C114.88 40.5 93.76 40.5 72 40.5 C71.67 47.1 71.34 53.7 71 60.5 C68 63.5 68 63.5 66.0625 63.8984375 C65.381875 63.89070313 64.70125 63.88296875 64 63.875 C63.319375 63.88273437 62.63875 63.89046875 61.9375 63.8984375 C60 63.5 60 63.5 57 60.5 C56.67 53.9 56.34 47.3 56 40.5 C40.16 40.5 24.32 40.5 8 40.5 C7.67 47.1 7.34 53.7 7 60.5 C4 63.5 4 63.5 2.0625 63.8984375 C1.381875 63.89070313 0.70125 63.88296875 0 63.875 C-0.680625 63.88273437 -1.36125 63.89046875 -2.0625 63.8984375 C-4.60918601 63.37472384 -5.38616188 62.52099783 -7 60.5 C-7.43237305 58.32348633 -7.43237305 58.32348633 -7.51171875 55.83203125 C-7.54716797 54.93935547 -7.58261719 54.04667969 -7.61914062 53.12695312 C-7.65297852 51.73379883 -7.65297852 51.73379883 -7.6875 50.3125 C-7.72166016 49.37212891 -7.75582031 48.43175781 -7.79101562 47.46289062 C-7.87348218 45.14204607 -7.94263403 42.82157852 -8 40.5 C-12.44739413 40.42550749 -16.8944519 40.37123743 -21.34228516 40.33520508 C-22.85341727 40.32017457 -24.36450618 40.29974436 -25.87548828 40.27368164 C-28.05512187 40.23704311 -30.23417575 40.22021662 -32.4140625 40.20703125 C-33.7232666 40.1913208 -35.0324707 40.17561035 -36.38134766 40.15942383 C-40.35653789 40.53355622 -42.69764005 41.26486984 -46 43.5 Z " fill="#28aa4a" transform="translate(88,15.5)"/>
<path d="M0 0 C1.18142578 -0.01891296 1.18142578 -0.01891296 2.38671875 -0.03820801 C3.22847656 -0.03011108 4.07023437 -0.02201416 4.9375 -0.01367188 C5.81019531 -0.01749878 6.68289063 -0.02132568 7.58203125 -0.02526855 C9.42449092 -0.02798678 11.26698924 -0.02063182 13.109375 -0.00390625 C15.92795934 0.01750565 18.74399485 -0.00370989 21.5625 -0.02929688 C23.35417229 -0.02665358 25.14584299 -0.02152857 26.9375 -0.01367188 C27.77925781 -0.0217688 28.62101562 -0.02986572 29.48828125 -0.03820801 C33.10164994 0.01963694 35.33422632 0.15709947 38.47558594 2.03417969 C40.55229272 5.56194545 40.43505831 8.81143928 40.328125 12.78320312 C40.32246521 13.57660095 40.31680542 14.36999878 40.31097412 15.18743896 C40.28863147 17.71477286 40.23844176 20.24067478 40.1875 22.76757812 C40.16743214 24.48370344 40.14918187 26.19985104 40.1328125 27.91601562 C40.08877395 32.11708593 40.01976326 36.31708947 39.9375 40.51757812 C40.52241211 40.49663086 41.10732422 40.47568359 41.70996094 40.45410156 C44.36896465 40.37077697 47.02769355 40.31886916 49.6875 40.26757812 C50.60789062 40.2340625 51.52828125 40.20054688 52.4765625 40.16601562 C53.36601562 40.153125 54.25546875 40.14023438 55.171875 40.12695312 C55.98881836 40.10600586 56.80576172 40.08505859 57.64746094 40.06347656 C60.81874213 40.69232337 61.89785099 42.0501421 63.9375 44.51757812 C64.44086456 46.87268066 64.44086456 46.87268066 64.44543457 49.52734375 C64.45671387 50.53676025 64.46799316 51.54617676 64.47961426 52.58618164 C64.47151733 53.68760498 64.46342041 54.78902832 64.45507812 55.92382812 C64.4620874 57.08841553 64.46909668 58.25300293 64.47631836 59.45288086 C64.49394432 63.30802146 64.48225841 67.16242987 64.46875 71.01757812 C64.47144357 73.69271765 64.47531853 76.36783482 64.48034668 79.04296875 C64.48762197 84.65177362 64.47803871 90.26036775 64.45898438 95.86914062 C64.43721557 102.35175719 64.44426705 108.83387054 64.46629 115.31647491 C64.48444759 120.88434402 64.48700066 126.45206172 64.47653532 132.01995087 C64.47030222 135.34453482 64.47103198 138.66883064 64.48268127 141.9934082 C64.49281748 145.6997297 64.47738485 149.4050792 64.45507812 153.11132812 C64.46317505 154.21275146 64.47127197 155.3141748 64.47961426 156.44897461 C64.46833496 157.45839111 64.45705566 158.46780762 64.44543457 159.5078125 C64.44392647 160.38385132 64.44241837 161.25989014 64.44086456 162.16247559 C63.77100282 165.29657204 62.37813755 166.51202943 59.9375 168.51757812 C57.9375 169.04882812 57.9375 169.04882812 55.9375 169.01757812 C54.9475 169.03304687 54.9475 169.03304687 53.9375 169.04882812 C50.82062023 168.22090694 49.85317712 167.14927681 47.9375 164.51757812 C47.34170766 161.06592961 47.43291716 157.64386363 47.48339844 154.14941406 C47.48281433 153.09544434 47.48223022 152.04147461 47.48162842 150.95556641 C47.48441586 147.47069401 47.51554032 143.98667616 47.546875 140.50195312 C47.55433501 138.08628812 47.56002907 135.67061707 47.56402588 133.25494385 C47.57930095 126.89586692 47.61859951 120.53715524 47.6628418 114.17822266 C47.70375376 107.68982891 47.72202822 101.20137617 47.7421875 94.71289062 C47.78509144 81.98096393 47.85259738 69.24929045 47.9375 56.51757812 C45.2975 56.51757812 42.6575 56.51757812 39.9375 56.51757812 C39.9431958 57.12046982 39.94889161 57.72336151 39.95476002 58.34452266 C40.29244281 94.29570129 40.54880085 130.24660146 40.70347994 166.19904349 C40.72223441 170.5422849 40.74164984 174.88552312 40.76147461 179.22875977 C40.76540927 180.09320592 40.76934392 180.95765208 40.77339781 181.84829358 C40.83818323 195.73759812 40.95617287 209.62594517 41.09479194 223.51468685 C41.23643475 237.82871121 41.3186653 252.14224391 41.34882742 266.45694 C41.36733715 274.47130301 41.41118689 282.48367522 41.52345085 290.49732018 C42.59332279 369.12212791 42.59332279 369.12212791 21.9375 399.51757812 C18.80807535 401.08229045 15.32667777 401.2145977 11.9375 400.51757812 C7.40960591 397.08304135 6.24696321 392.56360638 4.5546875 387.36914062 C4.25434601 386.47899261 3.95400452 385.5888446 3.64456177 384.67172241 C2.68937306 381.83227389 1.75075201 378.98766245 0.8125 376.14257812 C0.17426354 374.23596409 -0.46504807 372.3297096 -1.10546875 370.42382812 C-2.51936716 366.2086997 -3.92295504 361.99030469 -5.31741333 357.76870728 C-5.87410371 356.08677953 -6.47300035 354.41871513 -7.09298861 352.75907671 C-8.08248565 349.4507574 -8.31512278 346.84400655 -8.31976891 343.40247154 C-8.3262178 342.19122057 -8.33266669 340.9799696 -8.339311 339.73201406 C-8.33636906 338.39648673 -8.33323366 337.06095982 -8.32992554 335.72543335 C-8.33366342 334.30004722 -8.3382655 332.87466313 -8.34365618 331.44928229 C-8.35588373 327.53699431 -8.35562603 323.62479186 -8.35326743 319.71248913 C-8.35285922 315.49160635 -8.36389854 311.27075098 -8.37338257 307.04988098 C-8.38999035 298.78355546 -8.39549194 290.51725847 -8.39660732 282.25091766 C-8.39755756 275.53436644 -8.40166659 268.81782464 -8.40800858 262.1012764 C-8.42561753 243.06553586 -8.43484756 224.02981788 -8.43334763 204.99406914 C-8.43326772 203.96799898 -8.4331878 202.94192882 -8.43310547 201.88476562 C-8.43302371 200.85744578 -8.43294195 199.83012593 -8.43285771 198.77167518 C-8.43204409 182.10724817 -8.45120177 165.44291139 -8.4793822 148.7785105 C-8.50807851 131.67442708 -8.52192441 114.57038774 -8.52019465 97.46627963 C-8.5195298 87.86071436 -8.5250641 78.25524378 -8.54655075 68.64970016 C-8.56471942 60.47506685 -8.56914527 52.30057119 -8.5555319 44.12592648 C-8.54898137 39.95324379 -8.54895986 35.78082552 -8.5662384 31.60816765 C-8.58188195 27.79122937 -8.57919589 23.97476709 -8.56167014 20.15784104 C-8.55858095 18.77437622 -8.56230429 17.39087663 -8.57339029 16.00745277 C-8.58742815 14.13201677 -8.57458057 12.25643643 -8.56027794 10.38100243 C-8.56071267 9.33774563 -8.56114741 8.29448884 -8.56159532 7.2196182 C-7.68423968 2.46972374 -4.77669685 0.022042 0 0 Z M7.9375 16.51757812 C7.9375 24.43757813 7.9375 32.35757813 7.9375 40.51757812 C13.2175 40.51757812 18.4975 40.51757812 23.9375 40.51757812 C23.9375 32.59757812 23.9375 24.67757812 23.9375 16.51757812 C18.6575 16.51757812 13.3775 16.51757812 7.9375 16.51757812 Z M7.9375 56.51757812 C7.9375 148.91757813 7.9375 241.31757813 7.9375 336.51757812 C13.2175 336.51757812 18.4975 336.51757812 23.9375 336.51757812 C23.9375 244.11757813 23.9375 151.71757812 23.9375 56.51757812 C18.6575 56.51757812 13.3775 56.51757812 7.9375 56.51757812 Z M11.9375 352.51757812 C12.9275 356.14757812 13.9175 359.77757812 14.9375 363.51757812 C15.5975 363.51757812 16.2575 363.51757812 16.9375 363.51757812 C17.9275 359.88757813 18.9175 356.25757813 19.9375 352.51757812 C17.2975 352.51757812 14.6575 352.51757812 11.9375 352.51757812 Z " fill="#28aa4a" transform="translate(424.0625,63.482421875)"/>
<path d="M0 0 C6.07436431 2.65753438 10.93651545 7.63852343 13.82425272 13.58837432 C14.91981785 16.88617492 15.0031139 19.58303967 15.00726891 23.05866718 C15.01077498 23.72050537 15.01428105 24.38234356 15.01789337 25.06423745 C15.02720969 27.28569126 15.02228354 29.50688305 15.01742554 31.72834778 C15.02116168 33.33563583 15.02576306 34.94292206 15.03115618 36.55020541 C15.043406 40.97009834 15.04312338 45.38991569 15.04076743 49.80982172 C15.04035977 54.57545112 15.0513936 59.34105613 15.06088257 64.10667419 C15.07750438 73.44463445 15.08299265 82.78256947 15.08410732 92.12054328 C15.08505723 99.70998608 15.08916467 107.29942054 15.09550858 114.8888607 C15.11312417 136.40043497 15.12234694 157.91198926 15.12084763 179.42357079 C15.12076772 180.58357026 15.1206878 181.74356973 15.12060547 182.9387207 C15.12052371 184.10013447 15.12044195 185.26154824 15.12035771 186.45815637 C15.11954471 205.28299339 15.13868512 224.10775042 15.1668822 242.9325643 C15.19559802 262.25597898 15.20942322 281.57935463 15.20769465 300.9027912 C15.2070303 311.7537538 15.21254228 322.60463254 15.23405075 333.45557594 C15.2522454 342.69401239 15.25662399 351.93232696 15.2430319 361.17077354 C15.23649361 365.88467998 15.23641612 370.59835248 15.2537384 375.31223679 C15.2694361 379.62840243 15.26663941 383.94414803 15.24917014 388.26030322 C15.24609295 389.82085291 15.2497597 391.38143369 15.26089029 392.94194672 C15.32258602 402.20603627 15.16678507 409.33477211 8.78515625 416.6171875 C8.13417969 417.15601563 7.48320312 417.69484375 6.8125 418.25 C6.16410156 418.80429687 5.51570313 419.35859375 4.84765625 419.9296875 C0.83716256 422.69296993 -2.72178943 423.62478909 -7.55933857 423.63226891 C-8.61634569 423.6387178 -9.6733528 423.64516669 -10.76239043 423.651811 C-11.91743565 423.6487138 -13.07248088 423.6456166 -14.26252747 423.64242554 C-15.49438788 423.64695665 -16.72624829 423.65148776 -17.9954378 423.65615618 C-21.41204119 423.66662934 -24.82843412 423.66812554 -28.24503863 423.66576743 C-31.93090678 423.66535931 -35.61674353 423.67639799 -39.30259705 423.68588257 C-46.52297327 423.70249458 -53.74331685 423.70799221 -60.96371058 423.70910732 C-66.83309315 423.71005772 -72.70246494 423.71416758 -78.5718441 423.72050858 C-95.2137171 423.73812166 -111.85556431 423.74734736 -128.49744669 423.74584763 C-129.39459055 423.74576772 -130.29173441 423.7456878 -131.21606445 423.74560547 C-132.56342396 423.74548283 -132.56342396 423.74548283 -133.93800285 423.74535771 C-148.4949425 423.74454482 -163.05177867 423.76368292 -177.60868839 423.7918822 C-192.55669673 423.82061054 -207.50465461 423.83442252 -222.45269126 423.83269465 C-230.84444434 423.83203072 -239.23608894 423.83752415 -247.62781715 423.85905075 C-254.77287023 423.87726192 -261.91776568 423.88161047 -269.06283192 423.8680319 C-272.70742269 423.86150182 -276.35171103 423.86138613 -279.99627304 423.8787384 C-283.94982926 423.89736801 -287.90294389 423.88491549 -291.85652161 423.86947632 C-293.00487466 423.87976344 -294.15322772 423.89005057 -295.33637935 423.90064943 C-303.10553945 423.83354244 -308.48695273 422.67258323 -314.4921875 417.41015625 C-315.03101563 416.75917969 -315.56984375 416.10820312 -316.125 415.4375 C-316.67929687 414.78910156 -317.23359375 414.14070313 -317.8046875 413.47265625 C-321.71137808 407.8026756 -322.05443493 402.07862441 -321.25 395.375 C-319.75 392.6875 -319.75 392.6875 -317.25 391.375 C-313.32937398 390.62783152 -310.36377013 390.68265641 -306.9375 392.8125 C-304.92149846 395.87383567 -304.0969096 398.80269523 -303.25390625 402.3515625 C-302.40192281 404.58183382 -302.40192281 404.58183382 -300.00594807 405.4857347 C-297.20382969 406.38989783 -295.08323633 406.62558821 -292.15092468 406.62668228 C-290.63579017 406.63450552 -290.63579017 406.63450552 -289.09004688 406.64248681 C-287.98742858 406.63802537 -286.88481028 406.63356392 -285.7487793 406.62896729 C-284.57197192 406.63208727 -283.39516455 406.63520725 -282.18269634 406.63842177 C-278.91994209 406.64501911 -275.65733663 406.64264418 -272.39458609 406.63644934 C-268.87442831 406.63192619 -265.35429073 406.63890793 -261.83413696 406.64440918 C-254.93961538 406.65330628 -248.04513732 406.65137976 -241.15061402 406.6455839 C-235.54770186 406.64106866 -229.94480189 406.64045391 -224.34188843 406.64263153 C-223.54470545 406.642938 -222.74752248 406.64324446 -221.92618245 406.64356022 C-220.30676277 406.64419966 -218.6873431 406.64484809 -217.06792343 406.6455054 C-201.87965208 406.65120962 -186.69140486 406.64464935 -171.50313747 406.63390467 C-158.46855091 406.62496907 -145.43399998 406.62652109 -132.39941406 406.63574219 C-117.26579737 406.64644319 -102.13220183 406.65066029 -86.99858189 406.64451766 C-85.38509178 406.64388056 -83.77160168 406.64325181 -82.15811157 406.64263153 C-80.96728369 406.6421687 -80.96728369 406.6421687 -79.75239867 406.64169653 C-74.1556772 406.63996908 -68.55896915 406.64288577 -62.96224976 406.64759064 C-56.1424964 406.65319758 -49.3227891 406.65168696 -42.50304103 406.64102915 C-39.02295316 406.63576991 -35.54294208 406.63371997 -32.06285477 406.64032745 C-28.2922328 406.64577015 -24.52182869 406.63896402 -20.7512207 406.62896729 C-19.6486024 406.63342873 -18.5459841 406.63789017 -17.40995312 406.64248681 C-15.89481861 406.63466357 -15.89481861 406.63466357 -14.34907532 406.62668228 C-13.47880864 406.62635758 -12.60854197 406.62603287 -11.71190357 406.62569833 C-8.80869432 406.33006136 -6.8018871 405.80985197 -4.25 404.375 C-2.05975728 400.62472639 -1.99953877 397.17949687 -1.99831772 392.90159607 C-1.99310222 391.58496758 -1.98788673 390.2683391 -1.98251319 388.91181278 C-1.98683723 387.4521943 -1.99135054 385.99257636 -1.99603271 384.53295898 C-1.99372851 382.98128074 -1.99055226 381.4296036 -1.98657823 379.87792873 C-1.97821606 375.61185718 -1.98236195 371.3458749 -1.98855066 367.07980299 C-1.99306833 362.47988239 -1.9860948 357.87997734 -1.98059082 353.28005981 C-1.97168785 344.26795633 -1.97362285 335.25588613 -1.9794161 326.24378133 C-1.98392903 318.92080871 -1.98454709 311.59784543 -1.98236847 304.27487183 C-1.98190877 302.71274968 -1.98190877 302.71274968 -1.98143978 301.11906952 C-1.98080035 299.00359384 -1.98015192 296.88811816 -1.9794946 294.77264249 C-1.97378866 274.92608248 -1.98035334 255.07954093 -1.99109533 235.23298395 C-2.00003108 218.19600349 -1.99847912 201.15905028 -1.98925781 184.12207031 C-1.97855985 164.34753629 -1.97433801 144.57301845 -1.98048234 124.79848194 C-1.98111945 122.69069735 -1.98174819 120.58291277 -1.98236847 118.47512817 C-1.98267702 117.43800121 -1.98298557 116.40087425 -1.98330347 115.3323192 C-1.98503183 108.01637251 -1.98211227 100.70043607 -1.97740936 93.38449097 C-1.97180579 84.47134735 -1.97330594 75.55823897 -1.98397085 66.6450994 C-1.98923462 62.09567687 -1.99127231 57.54631314 -1.98467255 52.99689102 C-1.97872557 48.83456972 -1.98196746 44.67236186 -1.99262765 40.51005089 C-1.994867 39.00204713 -1.99371344 37.49403385 -1.98887607 35.98603618 C-1.98281529 33.94016532 -1.99021354 31.89426772 -1.99831772 29.84840393 C-1.99864242 28.71081414 -1.99896713 27.57322435 -1.99930167 26.40116215 C-2.25646297 23.29698596 -2.80388013 21.12683885 -4.25 18.375 C-6.79067501 17.01989124 -6.79067501 17.01989124 -9.75 16.25 C-15.05087527 14.67368709 -15.05087527 14.67368709 -17.25 11.375 C-17.89491363 4.60340691 -17.89491363 4.60340691 -15.9375 0.875 C-10.99118503 -1.88573393 -5.37486832 -1.49301898 0 0 Z " fill="#28aa4a" transform="translate(385.25,72.625)"/>
<path d="M0 0 C1.32396412 -0.00935994 1.32396412 -0.00935994 2.67467499 -0.01890898 C5.63820449 -0.03488939 8.60091723 -0.02221496 11.56445312 -0.00964355 C13.68660971 -0.01506242 15.80876253 -0.02218375 17.9309082 -0.03088379 C23.69944448 -0.04914793 29.46769519 -0.04203675 35.23623657 -0.02936745 C41.26687401 -0.01925584 47.29748663 -0.02862801 53.328125 -0.03491211 C63.45642497 -0.04219387 73.58460835 -0.03258689 83.71289062 -0.0135498 C95.43046156 0.00821986 107.14775411 0.00116887 118.8653183 -0.02085543 C128.9172072 -0.03899431 138.96901219 -0.04157513 149.02091217 -0.03110075 C155.02822942 -0.02485753 161.03541572 -0.024053 167.04272461 -0.0372467 C172.68986066 -0.04878253 178.33663703 -0.04082075 183.98373413 -0.01766968 C186.05902509 -0.01237048 188.1343462 -0.01391694 190.20962524 -0.02272034 C193.03729732 -0.0336115 195.86380863 -0.01999008 198.69140625 0 C199.51747124 -0.00892289 200.34353622 -0.01784577 201.19463348 -0.02703905 C204.83167641 0.02301691 206.91442064 0.18000489 209.85339355 2.41468048 C211.46952122 4.68161351 211.88871997 5.75485648 211.84570312 8.50793457 C211.86117187 9.49793457 211.86117187 9.49793457 211.87695312 10.50793457 C211.06965744 13.54716539 209.85321503 14.6013244 207.34570312 16.50793457 C204.33853774 16.90065775 201.69819313 17.04834748 198.69140625 17.01586914 C197.8087635 17.0221091 196.92612076 17.02834907 196.01673126 17.03477812 C193.05320176 17.05075853 190.09048902 17.0380841 187.12695312 17.0255127 C185.00479654 17.03093156 182.88264372 17.03805289 180.76049805 17.04675293 C174.99196177 17.06501707 169.22371106 17.05790589 163.45516968 17.04523659 C157.42453224 17.03512498 151.39391962 17.04449715 145.36328125 17.05078125 C135.23498128 17.05806301 125.1067979 17.04845603 114.97851562 17.02941895 C103.26094469 17.00764928 91.54365214 17.01470027 79.82608795 17.03672457 C69.77419905 17.05486346 59.72239406 17.05744427 49.67049408 17.04696989 C43.66317683 17.04072667 37.65599053 17.03992214 31.64868164 17.05311584 C26.00154559 17.06465167 20.35476922 17.05668989 14.70767212 17.03353882 C12.63238116 17.02823962 10.55706005 17.02978609 8.48178101 17.03858948 C5.65410893 17.04948065 2.82759762 17.03585923 0 17.01586914 C-1.23909748 17.02925347 -1.23909748 17.02925347 -2.50322723 17.04290819 C-6.14027016 16.99285223 -8.22301439 16.83586425 -11.1619873 14.60118866 C-12.77811497 12.33425563 -13.19731372 11.26101266 -13.15429688 8.50793457 C-13.16976562 7.51793457 -13.16976562 7.51793457 -13.18554688 6.50793457 C-11.41266137 -0.16645794 -5.87159192 -0.06342304 0 0 Z " fill="#28aa4a" transform="translate(92.654296875,383.4920654296875)"/>
<path d="M0 0 C1.32396412 -0.00935994 1.32396412 -0.00935994 2.67467499 -0.01890898 C5.63820449 -0.03488939 8.60091723 -0.02221496 11.56445312 -0.00964355 C13.68660971 -0.01506242 15.80876253 -0.02218375 17.9309082 -0.03088379 C23.69944448 -0.04914793 29.46769519 -0.04203675 35.23623657 -0.02936745 C41.26687401 -0.01925584 47.29748663 -0.02862801 53.328125 -0.03491211 C63.45642497 -0.04219387 73.58460835 -0.03258689 83.71289062 -0.0135498 C95.43046156 0.00821986 107.14775411 0.00116887 118.8653183 -0.02085543 C128.9172072 -0.03899431 138.96901219 -0.04157513 149.02091217 -0.03110075 C155.02822942 -0.02485753 161.03541572 -0.024053 167.04272461 -0.0372467 C172.68986066 -0.04878253 178.33663703 -0.04082075 183.98373413 -0.01766968 C186.05902509 -0.01237048 188.1343462 -0.01391694 190.20962524 -0.02272034 C193.03729732 -0.0336115 195.86380863 -0.01999008 198.69140625 0 C199.51747124 -0.00892289 200.34353622 -0.01784577 201.19463348 -0.02703905 C204.83167641 0.02301691 206.91442064 0.18000489 209.85339355 2.41468048 C211.46952122 4.68161351 211.88871997 5.75485648 211.84570312 8.50793457 C211.86117187 9.49793457 211.86117187 9.49793457 211.87695312 10.50793457 C211.06965744 13.54716539 209.85321503 14.6013244 207.34570312 16.50793457 C204.33853774 16.90065775 201.69819313 17.04834748 198.69140625 17.01586914 C197.8087635 17.0221091 196.92612076 17.02834907 196.01673126 17.03477812 C193.05320176 17.05075853 190.09048902 17.0380841 187.12695312 17.0255127 C185.00479654 17.03093156 182.88264372 17.03805289 180.76049805 17.04675293 C174.99196177 17.06501707 169.22371106 17.05790589 163.45516968 17.04523659 C157.42453224 17.03512498 151.39391962 17.04449715 145.36328125 17.05078125 C135.23498128 17.05806301 125.1067979 17.04845603 114.97851562 17.02941895 C103.26094469 17.00764928 91.54365214 17.01470027 79.82608795 17.03672457 C69.77419905 17.05486346 59.72239406 17.05744427 49.67049408 17.04696989 C43.66317683 17.04072667 37.65599053 17.03992214 31.64868164 17.05311584 C26.00154559 17.06465167 20.35476922 17.05668989 14.70767212 17.03353882 C12.63238116 17.02823962 10.55706005 17.02978609 8.48178101 17.03858948 C5.65410893 17.04948065 2.82759762 17.03585923 0 17.01586914 C-1.23909748 17.02925347 -1.23909748 17.02925347 -2.50322723 17.04290819 C-6.14027016 16.99285223 -8.22301439 16.83586425 -11.1619873 14.60118866 C-12.77811497 12.33425563 -13.19731372 11.26101266 -13.15429688 8.50793457 C-13.16976562 7.51793457 -13.16976562 7.51793457 -13.18554688 6.50793457 C-11.41266137 -0.16645794 -5.87159192 -0.06342304 0 0 Z " fill="#28aa4a" transform="translate(92.654296875,343.4920654296875)"/>
<path d="M0 0 C1.32396412 -0.00935994 1.32396412 -0.00935994 2.67467499 -0.01890898 C5.63820449 -0.03488939 8.60091723 -0.02221496 11.56445312 -0.00964355 C13.68660971 -0.01506242 15.80876253 -0.02218375 17.9309082 -0.03088379 C23.69944448 -0.04914793 29.46769519 -0.04203675 35.23623657 -0.02936745 C41.26687401 -0.01925584 47.29748663 -0.02862801 53.328125 -0.03491211 C63.45642497 -0.04219387 73.58460835 -0.03258689 83.71289062 -0.0135498 C95.43046156 0.00821986 107.14775411 0.00116887 118.8653183 -0.02085543 C128.9172072 -0.03899431 138.96901219 -0.04157513 149.02091217 -0.03110075 C155.02822942 -0.02485753 161.03541572 -0.024053 167.04272461 -0.0372467 C172.68986066 -0.04878253 178.33663703 -0.04082075 183.98373413 -0.01766968 C186.05902509 -0.01237048 188.1343462 -0.01391694 190.20962524 -0.02272034 C193.03729732 -0.0336115 195.86380863 -0.01999008 198.69140625 0 C199.51747124 -0.00892289 200.34353622 -0.01784577 201.19463348 -0.02703905 C204.83167641 0.02301691 206.91442064 0.18000489 209.85339355 2.41468048 C211.46952122 4.68161351 211.88871997 5.75485648 211.84570312 8.50793457 C211.86117187 9.49793457 211.86117187 9.49793457 211.87695312 10.50793457 C211.06965744 13.54716539 209.85321503 14.6013244 207.34570312 16.50793457 C204.33853774 16.90065775 201.69819313 17.04834748 198.69140625 17.01586914 C197.8087635 17.0221091 196.92612076 17.02834907 196.01673126 17.03477812 C193.05320176 17.05075853 190.09048902 17.0380841 187.12695312 17.0255127 C185.00479654 17.03093156 182.88264372 17.03805289 180.76049805 17.04675293 C174.99196177 17.06501707 169.22371106 17.05790589 163.45516968 17.04523659 C157.42453224 17.03512498 151.39391962 17.04449715 145.36328125 17.05078125 C135.23498128 17.05806301 125.1067979 17.04845603 114.97851562 17.02941895 C103.26094469 17.00764928 91.54365214 17.01470027 79.82608795 17.03672457 C69.77419905 17.05486346 59.72239406 17.05744427 49.67049408 17.04696989 C43.66317683 17.04072667 37.65599053 17.03992214 31.64868164 17.05311584 C26.00154559 17.06465167 20.35476922 17.05668989 14.70767212 17.03353882 C12.63238116 17.02823962 10.55706005 17.02978609 8.48178101 17.03858948 C5.65410893 17.04948065 2.82759762 17.03585923 0 17.01586914 C-1.23909748 17.02925347 -1.23909748 17.02925347 -2.50322723 17.04290819 C-6.14027016 16.99285223 -8.22301439 16.83586425 -11.1619873 14.60118866 C-12.77811497 12.33425563 -13.19731372 11.26101266 -13.15429688 8.50793457 C-13.16976562 7.51793457 -13.16976562 7.51793457 -13.18554688 6.50793457 C-11.41266137 -0.16645794 -5.87159192 -0.06342304 0 0 Z " fill="#28aa4a" transform="translate(92.654296875,303.4920654296875)"/>
<path d="M0 0 C1.32396412 -0.00935994 1.32396412 -0.00935994 2.67467499 -0.01890898 C5.63820449 -0.03488939 8.60091723 -0.02221496 11.56445312 -0.00964355 C13.68660971 -0.01506242 15.80876253 -0.02218375 17.9309082 -0.03088379 C23.69944448 -0.04914793 29.46769519 -0.04203675 35.23623657 -0.02936745 C41.26687401 -0.01925584 47.29748663 -0.02862801 53.328125 -0.03491211 C63.45642497 -0.04219387 73.58460835 -0.03258689 83.71289062 -0.0135498 C95.43046156 0.00821986 107.14775411 0.00116887 118.8653183 -0.02085543 C128.9172072 -0.03899431 138.96901219 -0.04157513 149.02091217 -0.03110075 C155.02822942 -0.02485753 161.03541572 -0.024053 167.04272461 -0.0372467 C172.68986066 -0.04878253 178.33663703 -0.04082075 183.98373413 -0.01766968 C186.05902509 -0.01237048 188.1343462 -0.01391694 190.20962524 -0.02272034 C193.03729732 -0.0336115 195.86380863 -0.01999008 198.69140625 0 C199.51747124 -0.00892289 200.34353622 -0.01784577 201.19463348 -0.02703905 C204.83167641 0.02301691 206.91442064 0.18000489 209.85339355 2.41468048 C211.46952122 4.68161351 211.88871997 5.75485648 211.84570312 8.50793457 C211.86117187 9.49793457 211.86117187 9.49793457 211.87695312 10.50793457 C211.06965744 13.54716539 209.85321503 14.6013244 207.34570312 16.50793457 C204.33853774 16.90065775 201.69819313 17.04834748 198.69140625 17.01586914 C197.8087635 17.0221091 196.92612076 17.02834907 196.01673126 17.03477812 C193.05320176 17.05075853 190.09048902 17.0380841 187.12695312 17.0255127 C185.00479654 17.03093156 182.88264372 17.03805289 180.76049805 17.04675293 C174.99196177 17.06501707 169.22371106 17.05790589 163.45516968 17.04523659 C157.42453224 17.03512498 151.39391962 17.04449715 145.36328125 17.05078125 C135.23498128 17.05806301 125.1067979 17.04845603 114.97851562 17.02941895 C103.26094469 17.00764928 91.54365214 17.01470027 79.82608795 17.03672457 C69.77419905 17.05486346 59.72239406 17.05744427 49.67049408 17.04696989 C43.66317683 17.04072667 37.65599053 17.03992214 31.64868164 17.05311584 C26.00154559 17.06465167 20.35476922 17.05668989 14.70767212 17.03353882 C12.63238116 17.02823962 10.55706005 17.02978609 8.48178101 17.03858948 C5.65410893 17.04948065 2.82759762 17.03585923 0 17.01586914 C-1.23909748 17.02925347 -1.23909748 17.02925347 -2.50322723 17.04290819 C-6.14027016 16.99285223 -8.22301439 16.83586425 -11.1619873 14.60118866 C-12.77811497 12.33425563 -13.19731372 11.26101266 -13.15429688 8.50793457 C-13.16976562 7.51793457 -13.16976562 7.51793457 -13.18554688 6.50793457 C-11.41266137 -0.16645794 -5.87159192 -0.06342304 0 0 Z " fill="#28aa4a" transform="translate(92.654296875,263.4920654296875)"/>
<path d="M0 0 C7.18348902 2.153709 12.10885037 12.38118536 16.18945312 18.11914062 C16.79208984 18.95380859 17.39472656 19.78847656 18.015625 20.6484375 C18.55985107 21.41260986 19.10407715 22.17678223 19.66479492 22.96411133 C20.37406128 23.78818481 20.37406128 23.78818481 21.09765625 24.62890625 C21.75765625 24.62890625 22.41765625 24.62890625 23.09765625 24.62890625 C24.62724067 22.90318334 24.62724067 22.90318334 26.1796875 20.6484375 C26.78232422 19.81376953 27.38496094 18.97910156 28.00585938 18.11914062 C28.63427734 17.23548828 29.26269531 16.35183594 29.91015625 15.44140625 C40.04100146 1.2455197 40.04100146 1.2455197 44.1953125 0 C47.46259489 0.11042505 49.78167244 0.43931596 52.59765625 2.12890625 C54.70810432 5.6463197 54.89680521 8.68868129 54.09765625 12.62890625 C52.26004038 16.09261386 49.91300462 19.06987801 47.47265625 22.12890625 C46.85519531 22.93199219 46.23773438 23.73507813 45.6015625 24.5625 C40.77163742 30.83631847 40.77163742 30.83631847 38.22753906 33.828125 C37.66131836 34.51519531 37.09509766 35.20226562 36.51171875 35.91015625 C35.99818848 36.50892578 35.4846582 37.10769531 34.95556641 37.72460938 C33.83362569 39.68055041 33.83362569 39.68055041 34.75195312 42.09790039 C36.06872957 44.57450079 37.46662711 46.65374668 39.21484375 48.84375 C39.82199219 49.61267578 40.42914063 50.38160156 41.0546875 51.17382812 C41.68761719 51.96337891 42.32054687 52.75292969 42.97265625 53.56640625 C54.67032075 68.26687329 54.67032075 68.26687329 54.59765625 72.75390625 C54.09765625 76.62890625 54.09765625 76.62890625 52.59765625 79.12890625 C49.78167244 80.81849654 47.46259489 81.14738745 44.1953125 81.2578125 C37.01182348 79.1041035 32.08646213 68.87662714 28.00585938 63.13867188 C27.40322266 62.30400391 26.80058594 61.46933594 26.1796875 60.609375 C25.63546143 59.84520264 25.09123535 59.08103027 24.53051758 58.29370117 C23.82125122 57.46962769 23.82125122 57.46962769 23.09765625 56.62890625 C22.43765625 56.62890625 21.77765625 56.62890625 21.09765625 56.62890625 C19.56807183 58.35462916 19.56807183 58.35462916 18.015625 60.609375 C17.41298828 61.44404297 16.81035156 62.27871094 16.18945312 63.13867188 C15.56103516 64.02232422 14.93261719 64.90597656 14.28515625 65.81640625 C4.15431104 80.0122928 4.15431104 80.0122928 0 81.2578125 C-3.26728239 81.14738745 -5.58635994 80.81849654 -8.40234375 79.12890625 C-10.51279182 75.6114928 -10.70149271 72.56913121 -9.90234375 68.62890625 C-8.06472788 65.16519864 -5.71769212 62.18793449 -3.27734375 59.12890625 C-2.65988281 58.32582031 -2.04242188 57.52273437 -1.40625 56.6953125 C3.42367508 50.42149403 3.42367508 50.42149403 5.96777344 47.4296875 C6.53399414 46.74261719 7.10021484 46.05554688 7.68359375 45.34765625 C8.19712402 44.74888672 8.7106543 44.15011719 9.23974609 43.53320312 C10.36168681 41.57726209 10.36168681 41.57726209 9.44335938 39.15991211 C8.12658293 36.68331171 6.72868539 34.60406582 4.98046875 32.4140625 C4.37332031 31.64513672 3.76617187 30.87621094 3.140625 30.08398438 C2.50769531 29.29443359 1.87476563 28.50488281 1.22265625 27.69140625 C-10.47500825 12.99093921 -10.47500825 12.99093921 -10.40234375 8.50390625 C-9.90234375 4.62890625 -9.90234375 4.62890625 -8.40234375 2.12890625 C-5.58635994 0.43931596 -3.26728239 0.11042505 0 0 Z " fill="#28aa4a" transform="translate(233.90234375,111.37109375)"/>
<path d="M0 0 C3.77268096 3.09536366 5.16321833 6.28295687 6.84765625 10.80859375 C7.22775848 11.81486313 7.22775848 11.81486313 7.61553955 12.84146118 C8.4418467 15.03631794 9.25256428 17.23655477 10.0625 19.4375 C10.63151234 20.9637936 11.20142811 22.48975068 11.7722168 24.01538086 C12.64770793 26.35621864 13.52219794 28.69738614 14.39228821 31.04023743 C16.30323105 36.17802628 18.27757873 41.28674608 20.296875 46.3828125 C21.05985439 48.32545579 21.82154351 50.26859939 22.58273315 52.21194458 C23.29520411 54.01864079 24.02158238 55.81983306 24.74829102 57.62084961 C27.24933963 64.05700638 28.69444536 69.08360478 28 76 C26.5 78.5625 26.5 78.5625 24 80 C20.14351055 80.75075102 17.13625201 80.69437623 13.75 78.625 C11.00495252 74.50742879 8 69.05320691 8 64 C0.08 64 -7.84 64 -16 64 C-16.99 67.3 -17.98 70.6 -19 74 C-21.39726027 78.69863014 -21.39726027 78.69863014 -24 80 C-31.01599016 80.56580566 -31.01599016 80.56580566 -34.5 78.5625 C-36.73473583 74.74482629 -36.54440517 71.26666839 -36 67 C-34.65425546 62.2059634 -32.87565785 57.59041578 -31.07421875 52.953125 C-30.56457798 51.6107718 -30.05611951 50.26796919 -29.54878235 48.92474365 C-28.48758103 46.12418645 -27.41683205 43.32755537 -26.33813477 40.53369141 C-24.95942786 36.96241222 -23.59804371 33.38485386 -22.24287701 29.8045845 C-20.94284105 26.37256773 -19.63366982 22.9440578 -18.32421875 19.515625 C-18.07753637 18.86713844 -17.830854 18.21865189 -17.5766964 17.55051422 C-16.87348803 15.70654488 -16.16284179 13.86541727 -15.4519043 12.02441406 C-15.0499736 10.97900452 -14.64804291 9.93359497 -14.2339325 8.85650635 C-11.15942272 1.73913427 -8.28408822 -1.70370871 0 0 Z M-5 34 C-6.65 38.62 -8.3 43.24 -10 48 C-6.04 48 -2.08 48 2 48 C0.35 43.38 -1.3 38.76 -3 34 C-3.66 34 -4.32 34 -5 34 Z " fill="#28aa4a" transform="translate(188,112)"/>
<path d="M0 0 C1.07672974 -0.0112793 2.15345947 -0.02255859 3.26281738 -0.03417969 C5.02716125 -0.0220343 5.02716125 -0.0220343 6.82714844 -0.00964355 C8.69107239 -0.02015747 8.69107239 -0.02015747 10.59265137 -0.03088379 C13.9978753 -0.04547416 17.40212726 -0.04205291 20.80729675 -0.02936745 C24.37154442 -0.01923659 27.9357507 -0.02863335 31.5 -0.03491211 C37.48542738 -0.04218831 43.47065729 -0.0326017 49.45605469 -0.0135498 C56.37491301 0.00821911 63.29329986 0.0011677 70.21214676 -0.02085543 C76.15368306 -0.03901038 82.09507746 -0.04156736 88.03663254 -0.03110075 C91.58476235 -0.02486625 95.13267058 -0.02402872 98.68078613 -0.0372467 C102.63600985 -0.05095221 106.59070592 -0.03195378 110.54589844 -0.00964355 C111.72212769 -0.01774048 112.89835693 -0.0258374 114.11022949 -0.03417969 C115.7253241 -0.01726074 115.7253241 -0.01726074 117.37304688 0 C118.30808044 0.0015081 119.24311401 0.0030162 120.20648193 0.00457001 C123.43531902 0.65991475 124.637185 1.9861788 126.68652344 4.50793457 C127.21777344 6.50793457 127.21777344 6.50793457 127.18652344 8.50793457 C127.20199219 9.49793457 127.20199219 9.49793457 127.21777344 10.50793457 C126.44425138 13.4200176 124.98577122 14.60089121 122.68652344 16.50793457 C120.20648193 17.01129913 120.20648193 17.01129913 117.37304688 17.01586914 C116.29631714 17.02714844 115.2195874 17.03842773 114.11022949 17.05004883 C112.34588562 17.03790344 112.34588562 17.03790344 110.54589844 17.0255127 C108.68197449 17.03602661 108.68197449 17.03602661 106.78039551 17.04675293 C103.37517158 17.0613433 99.97091962 17.05792205 96.56575012 17.04523659 C93.00150246 17.03510573 89.43729618 17.04450249 85.87304688 17.05078125 C79.8876195 17.05805745 73.90238958 17.04847084 67.91699219 17.02941895 C60.99813386 17.00765003 54.07974702 17.01470144 47.16090012 17.03672457 C41.21936382 17.05487952 35.27796941 17.0574365 29.33641434 17.04696989 C25.78828453 17.04073539 22.2403763 17.03989786 18.69226074 17.05311584 C14.73703703 17.06682135 10.78234095 17.04782292 6.82714844 17.0255127 C5.65091919 17.03360962 4.47468994 17.04170654 3.26281738 17.05004883 C1.64772278 17.03312988 1.64772278 17.03312988 0 17.01586914 C-0.93503357 17.01436104 -1.87006714 17.01285294 -2.83343506 17.01129913 C-6.06227215 16.35595439 -7.26413812 15.02969034 -9.31347656 12.50793457 C-9.84472656 10.50793457 -9.84472656 10.50793457 -9.81347656 8.50793457 C-9.82894531 7.51793457 -9.82894531 7.51793457 -9.84472656 6.50793457 C-8.49154751 1.41361344 -4.87144101 0.00785708 0 0 Z " fill="#28aa4a" transform="translate(89.3134765625,223.4920654296875)"/>
<path d="M0 0 C1.10794922 -0.01260864 2.21589844 -0.02521729 3.35742188 -0.03820801 C4.54916016 -0.03011108 5.74089844 -0.02201416 6.96875 -0.01367188 C8.19658203 -0.01749878 9.42441406 -0.02132568 10.68945312 -0.02526855 C13.28516459 -0.02799029 15.88090336 -0.02061099 18.4765625 -0.00390625 C22.45374599 0.01749738 26.42912282 -0.0037015 30.40625 -0.02929688 C32.92708733 -0.02665365 35.44792353 -0.02152878 37.96875 -0.01367188 C39.16048828 -0.0217688 40.35222656 -0.02986572 41.58007812 -0.03820801 C43.24200195 -0.01929504 43.24200195 -0.01929504 44.9375 0 C45.91138672 0.00318237 46.88527344 0.00636475 47.88867188 0.00964355 C51.19021681 0.65961178 52.38452655 1.93295409 54.46875 4.51757812 C55 6.51757812 55 6.51757812 54.96875 8.51757812 C54.98421875 9.50757812 54.98421875 9.50757812 55 10.51757812 C54.17252239 13.63278794 53.10084566 14.60906232 50.46875 16.51757812 C47.04137805 17.01895021 43.67316125 16.89336901 40.21875 16.76757812 C39.28289062 16.74953125 38.34703125 16.73148438 37.3828125 16.71289062 C35.07707985 16.66583486 32.77344055 16.60011525 30.46875 16.51757812 C30.47763245 17.26038025 30.48651489 18.00318237 30.4956665 18.76849365 C30.57584744 25.77207718 30.63673186 32.77550147 30.67599869 39.77941513 C30.69686513 43.38016098 30.72516421 46.98052728 30.77050781 50.58105469 C30.81400125 54.05645726 30.83789421 57.531495 30.84825897 61.00714874 C30.85923615 62.97703596 30.890457 64.9467766 30.92193604 66.91644287 C30.92223816 68.11738586 30.92254028 69.31832886 30.92285156 70.55566406 C30.93173401 71.61267517 30.94061646 72.66968628 30.94976807 73.75872803 C30.34845082 77.20754679 29.17664504 78.3728458 26.46875 80.51757812 C24.46875 81.04882812 24.46875 81.04882812 22.46875 81.01757812 C21.80875 81.02789062 21.14875 81.03820312 20.46875 81.04882812 C17.53362427 80.26918535 16.37186551 78.85666789 14.46875 76.51757812 C13.98773193 73.75872803 13.98773193 73.75872803 14.01464844 70.55566406 C14.01495056 69.35472107 14.01525269 68.15377808 14.01556396 66.91644287 C14.03620911 65.62466125 14.05685425 64.33287964 14.078125 63.00195312 C14.08558929 61.66246384 14.09128134 60.3229636 14.09527588 58.98345947 C14.11051787 55.46506376 14.14978582 51.94733297 14.1940918 48.42919922 C14.23507636 44.83635451 14.2532936 41.24340192 14.2734375 37.65039062 C14.31628255 30.60584846 14.38451554 23.5617568 14.46875 16.51757812 C13.88383789 16.53852539 13.29892578 16.55947266 12.69628906 16.58105469 C10.03728535 16.66437928 7.37855645 16.71628709 4.71875 16.76757812 C3.33816406 16.81785156 3.33816406 16.81785156 1.9296875 16.86914062 C-4.90969715 16.96826214 -4.90969715 16.96826214 -8.13867188 14.62695312 C-9.63556184 12.35957422 -10.07332857 11.21060647 -10.03125 8.51757812 C-10.04671875 7.52757813 -10.04671875 7.52757813 -10.0625 6.51757812 C-8.67664018 1.3002235 -4.95665502 0.01619688 0 0 Z " fill="#28aa4a" transform="translate(105.53125,111.482421875)"/>
</svg>
