<?xml version="1.0" standalone="no"?>
<!DOCTYPE svg PUBLIC "-//W3C//DTD SVG 20010904//EN"
 "http://www.w3.org/TR/2001/REC-SVG-20010904/DTD/svg10.dtd">
<svg version="1.0" xmlns="http://www.w3.org/2000/svg"
 width="100" height="100" viewBox="0 0 210.000000 240.000000"
 preserveAspectRatio="xMidYMid meet">

<g transform="translate(0.000000,240.000000) scale(0.100000,-0.100000)"
fill="#28aa4a" stroke="none">
<path d="M70 2382 c-74 -37 -70 34 -70 -1115 0 -1118 -2 -1073 56 -1112 28
-19 52 -20 552 -23 l523 -3 -3 38 -3 38 -517 5 c-284 3 -520 9 -525 13 -4 5
-9 472 -11 1038 -2 1020 -2 1029 18 1049 20 20 32 20 778 20 639 0 761 -2 778
-14 18 -14 19 -32 19 -639 l0 -625 34 -4 c18 -3 35 1 37 7 3 6 3 292 2 635 -3
601 -4 626 -23 654 -39 57 -17 56 -847 56 -706 0 -766 -1 -798 -18z"/>
<path d="M235 2135 c-25 -24 -25 -25 -25 -230 0 -192 1 -206 20 -225 20 -20
33 -20 639 -20 673 0 642 -3 657 54 3 12 4 109 2 215 -3 189 -3 193 -27 212
-22 18 -48 19 -633 19 l-609 0 -24 -25z m1223 -227 l2 -178 -590 0 -590 0 0
173 c0 96 3 177 7 180 3 4 268 6 587 5 l581 -3 3 -177z"/>
<path d="M1310 1905 c0 -108 1 -115 20 -115 19 0 20 7 20 115 0 108 -1 115
-20 115 -19 0 -20 -7 -20 -115z"/>
<path d="M276 1424 c-11 -29 -7 -199 6 -212 14 -14 225 -17 246 -4 9 6 12 37
10 118 l-3 109 -126 3 c-109 2 -128 0 -133 -14z"/>
<path d="M736 1424 c-10 -26 -7 -184 4 -205 10 -17 22 -19 125 -19 144 0 145
1 145 116 0 127 3 124 -144 124 -104 0 -125 -3 -130 -16z"/>
<path d="M1207 1433 c-4 -3 -7 -55 -7 -114 0 -88 3 -108 16 -113 9 -3 65 -6
124 -6 98 0 110 2 120 19 11 21 14 179 4 205 -5 13 -26 16 -128 16 -68 0 -126
-3 -129 -7z"/>
<path d="M276 1004 c-3 -8 -6 -58 -6 -109 0 -83 2 -96 19 -105 23 -12 220 -13
239 -2 9 6 12 37 10 118 l-3 109 -126 3 c-109 2 -128 0 -133 -14z"/>
<path d="M736 1004 c-3 -9 -6 -55 -6 -104 0 -119 1 -120 140 -120 138 0 140 2
140 113 0 135 9 127 -140 127 -107 0 -129 -3 -134 -16z"/>
<path d="M1207 1013 c-4 -3 -7 -37 -7 -75 l0 -69 49 41 c27 22 84 56 127 75
l79 35 -121 0 c-66 0 -124 -3 -127 -7z"/>
<path d="M1534 866 c-99 -19 -186 -60 -233 -111 -52 -57 -59 -93 -29 -152 48
-96 176 -152 368 -160 136 -6 233 11 327 57 205 101 157 278 -97 354 -76 23
-248 29 -336 12z m241 -36 c152 -20 245 -70 245 -132 0 -83 -192 -148 -395
-134 -180 12 -295 65 -295 135 0 92 231 160 445 131z"/>
<path d="M1565 777 c-11 -32 -25 -94 -25 -107 0 -18 117 -53 126 -38 3 5 3 24
0 43 -11 54 41 87 78 49 22 -21 20 -41 -4 -56 -20 -13 -28 -58 -11 -58 4 0 20
9 35 21 58 45 20 152 -54 152 -40 0 -80 -38 -80 -76 0 -22 -4 -28 -16 -23 -9
3 -18 6 -20 6 -3 0 -2 20 1 44 6 35 4 44 -9 49 -9 4 -19 1 -21 -6z"/>
<path d="M276 584 c-3 -8 -6 -58 -6 -109 0 -115 0 -115 137 -115 135 0 134 -1
131 130 l-3 105 -126 3 c-109 2 -128 0 -133 -14z"/>
<path d="M736 584 c-3 -9 -6 -55 -6 -104 0 -119 1 -120 138 -120 59 0 114 5
122 10 17 10 27 136 16 195 l-7 35 -128 0 c-108 0 -130 -3 -135 -16z"/>
<path d="M1257 473 c-14 -69 28 -132 121 -181 80 -43 177 -64 297 -64 122 0
221 22 299 65 82 45 119 93 119 152 0 25 -2 48 -6 51 -3 4 -20 -8 -38 -25 -38
-38 -103 -73 -184 -97 -84 -26 -296 -26 -380 0 -80 24 -146 59 -183 96 -17 16
-32 30 -35 30 -2 0 -7 -12 -10 -27z"/>
<path d="M1260 255 c-15 -41 -3 -81 38 -127 74 -82 197 -121 377 -121 214 0
373 67 415 177 10 28 4 96 -9 96 -4 0 -20 -14 -37 -31 -70 -74 -198 -113 -369
-113 -174 1 -287 35 -367 112 l-37 35 -11 -28z"/>
</g>
</svg>
